<svg width="26" height="25" viewBox="0 0 26 25" fill="none" xmlns="http://www.w3.org/2000/svg">
<path fill-rule="evenodd" clip-rule="evenodd" d="M25 13C25 19.6273 19.6273 25 13 25C6.37334 25 1 19.6273 1 13C1 6.37334 6.37334 1 13 1C19.6273 1 25 6.37334 25 13Z" fill="#C50017"/>
<path fill-rule="evenodd" clip-rule="evenodd" d="M17.9902 20.9195C17.9602 20.8002 17.2115 18.0002 13.0001 18.0002C8.78813 18.0002 8.03948 20.8002 8.01012 20.9195C7.97344 21.0642 8.03878 21.2142 8.16815 21.2888C8.29817 21.3615 8.46083 21.3415 8.56747 21.2375C8.58012 21.2249 9.87012 20.0002 13.0001 20.0002C16.1295 20.0002 17.4202 21.2249 17.4321 21.2375C17.4961 21.3002 17.5815 21.3335 17.6668 21.3335C17.7228 21.3335 17.7795 21.3195 17.8308 21.2908C17.9615 21.2162 18.0268 21.0648 17.9902 20.9195Z" fill="white"/>
<path fill-rule="evenodd" clip-rule="evenodd" d="M11.4716 12.5289C9.30158 10.3589 5.81426 10.3336 5.66695 10.3336C5.29893 10.3336 5.00098 10.6316 5.00098 10.9995C5.00033 11.3669 5.29828 11.6662 5.66631 11.6669C5.68565 11.6669 6.94963 11.6815 8.32166 12.1582C7.92633 12.5848 7.66699 13.2475 7.66699 14.0002C7.66699 15.2895 8.41301 16.3335 9.33363 16.3335C10.2543 16.3335 11.0003 15.2895 11.0003 14.0002C11.0003 13.8842 10.9876 13.7735 10.9756 13.6621C10.9843 13.6621 10.9922 13.6668 11.0003 13.6668C11.171 13.6668 11.3416 13.6015 11.4716 13.4715C11.7322 13.2109 11.7322 12.7896 11.4716 12.5289Z" fill="white"/>
<path fill-rule="evenodd" clip-rule="evenodd" d="M20.3337 10.3335C20.1864 10.3335 16.6997 10.3588 14.529 12.5288C14.2683 12.7895 14.2683 13.2108 14.529 13.4715C14.659 13.6015 14.8297 13.6668 15.0003 13.6668C15.009 13.6668 15.0163 13.6621 15.0244 13.6621C15.0137 13.7735 15.0003 13.8842 15.0003 14.0002C15.0003 15.2895 15.7464 16.3335 16.667 16.3335C17.5876 16.3335 18.3336 15.2895 18.3336 14.0002C18.3336 13.2475 18.0743 12.5848 17.679 12.1582C19.0509 11.6815 20.315 11.6669 20.3349 11.6669C20.7023 11.6662 21.0003 11.3669 20.9996 10.9995C20.999 10.6315 20.7016 10.3335 20.3337 10.3335Z" fill="white"/>
<path d="M13 25C19.6399 25 25.0234 19.6165 25.0234 12.9766C25.0234 6.33662 19.6399 0.953125 13 0.953125C6.36006 0.953125 0.976562 6.33662 0.976562 12.9766C0.976562 19.6165 6.36006 25 13 25Z" fill="#D3D1D1"/>
<path fill-rule="evenodd" clip-rule="evenodd" d="M17.649 19.0282C15.0662 15.4351 10.9106 15.4632 8.34939 19.0817C7.98342 19.5988 7.40762 18.8101 7.77311 18.2939C10.6386 14.2454 15.3385 14.2238 18.2253 18.2404C18.5939 18.753 18.0178 19.5413 17.649 19.0282Z" fill="#222B45"/>
<path d="M8.30811 12.5708C9.41483 12.5708 10.312 11.6736 10.312 10.5669C10.312 9.46017 9.41483 8.56299 8.30811 8.56299C7.20138 8.56299 6.3042 9.46017 6.3042 10.5669C6.3042 11.6736 7.20138 12.5708 8.30811 12.5708Z" fill="#222B45"/>
<path d="M17.6597 12.5708C18.7664 12.5708 19.6636 11.6736 19.6636 10.5669C19.6636 9.46017 18.7664 8.56299 17.6597 8.56299C16.5529 8.56299 15.6558 9.46017 15.6558 10.5669C15.6558 11.6736 16.5529 12.5708 17.6597 12.5708Z" fill="#222B45"/>
</svg>
