<svg width="14" height="14" viewBox="0 0 14 14" fill="none" xmlns="http://www.w3.org/2000/svg">
<path d="M7.00124 0C3.13618 0 0 3.13389 0 6.99877C0 10.8636 3.13618 14 7.00124 14C10.8663 14 14 10.8661 14 6.99877C14 3.13389 10.8663 0 7.00124 0ZM7.86152 2.09173C8.4714 2.09173 8.96724 2.58564 8.96724 3.19563C8.96724 3.80314 8.47388 4.29705 7.86152 4.29705C7.25412 4.29705 6.75828 3.80314 6.75828 3.19563C6.75828 2.58564 7.25164 2.09173 7.86152 2.09173ZM8.26563 4.60328L7.90862 5.93438H6.5773L6.93182 4.60328H8.26563ZM3.58987 5.93191H4.91872L5.27572 4.60328H6.60705L6.24757 5.93438H4.91872L4.56171 7.26301H3.23039L3.58987 5.93191ZM2.39242 10.5549L2.7519 9.22138H4.08075L3.72375 10.5549H2.39242ZM5.4096 9.22632H4.07827L4.4328 7.89275H5.76412L5.4096 9.22632ZM6.15583 7.57911L6.51284 6.24802H7.84664L7.48964 7.57911H6.15583ZM9.69612 10.5549H8.3648L8.71932 9.22632H7.39295L7.74996 7.89275H9.08128L8.72428 9.22138H10.0506L9.69612 10.5549ZM11.2531 4.60822H9.92173L9.5672 5.93685H9.56472H8.2334L8.59288 4.60575H9.92173L10.2787 3.27712H11.6125L11.2531 4.60822Z" fill="#4834D6"/>
</svg>
