<svg width="348" height="63" viewBox="0 0 348 63" fill="none" xmlns="http://www.w3.org/2000/svg">
<mask id="path-1-inside-1_632_9003" fill="white">
<path fill-rule="evenodd" clip-rule="evenodd" d="M308 5C310.761 5 313 2.76142 313 0H345C346.657 0 348 1.34315 348 3V6C346.343 6 345 7.34315 345 9C345 10.6569 346.343 12 348 12V15C346.343 15 345 16.3431 345 18C345 19.6569 346.343 21 348 21V24C346.343 24 345 25.3431 345 27C345 28.6569 346.343 30 348 30V33C346.343 33 345 34.3431 345 36C345 37.6569 346.343 39 348 39V42C346.343 42 345 43.3431 345 45C345 46.6569 346.343 48 348 48V51C346.343 51 345 52.3431 345 54C345 55.6569 346.343 57 348 57V60C348 61.6569 346.657 63 345 63H313C313 60.2386 310.761 58 308 58C305.239 58 303 60.2386 303 63H3C1.34314 63 0 61.6569 0 60V57C1.65685 57 3 55.6569 3 54C3 52.3431 1.65685 51 0 51V48C1.65685 48 3 46.6569 3 45C3 43.3431 1.65685 42 0 42V39C1.65685 39 3 37.6569 3 36C3 34.3431 1.65685 33 0 33V30C1.65685 30 3 28.6569 3 27C3 25.3431 1.65685 24 0 24V21C1.65685 21 3 19.6569 3 18C3 16.3431 1.65685 15 0 15V12C1.65685 12 3 10.6569 3 9C3 7.34315 1.65685 6 0 6V3C0 1.34315 1.34315 0 3 0H303C303 2.76142 305.239 5 308 5Z"/>
</mask>
<path fill-rule="evenodd" clip-rule="evenodd" d="M308 5C310.761 5 313 2.76142 313 0H345C346.657 0 348 1.34315 348 3V6C346.343 6 345 7.34315 345 9C345 10.6569 346.343 12 348 12V15C346.343 15 345 16.3431 345 18C345 19.6569 346.343 21 348 21V24C346.343 24 345 25.3431 345 27C345 28.6569 346.343 30 348 30V33C346.343 33 345 34.3431 345 36C345 37.6569 346.343 39 348 39V42C346.343 42 345 43.3431 345 45C345 46.6569 346.343 48 348 48V51C346.343 51 345 52.3431 345 54C345 55.6569 346.343 57 348 57V60C348 61.6569 346.657 63 345 63H313C313 60.2386 310.761 58 308 58C305.239 58 303 60.2386 303 63H3C1.34314 63 0 61.6569 0 60V57C1.65685 57 3 55.6569 3 54C3 52.3431 1.65685 51 0 51V48C1.65685 48 3 46.6569 3 45C3 43.3431 1.65685 42 0 42V39C1.65685 39 3 37.6569 3 36C3 34.3431 1.65685 33 0 33V30C1.65685 30 3 28.6569 3 27C3 25.3431 1.65685 24 0 24V21C1.65685 21 3 19.6569 3 18C3 16.3431 1.65685 15 0 15V12C1.65685 12 3 10.6569 3 9C3 7.34315 1.65685 6 0 6V3C0 1.34315 1.34315 0 3 0H303C303 2.76142 305.239 5 308 5Z" fill="white"/>
<path d="M313 0V-1H312V0H313ZM348 6V7H349V6H348ZM348 12H349V11H348V12ZM348 15V16H349V15H348ZM348 21H349V20H348V21ZM348 24V25H349V24H348ZM348 30H349V29H348V30ZM348 33V34H349V33H348ZM348 39H349V38H348V39ZM348 42V43H349V42H348ZM348 48H349V47H348V48ZM348 51V52H349V51H348ZM348 57H349V56H348V57ZM313 63H312V64H313V63ZM303 63V64H304V63H303ZM0 57V56H-1V57H0ZM0 51H-1V52H0V51ZM0 48V47H-1V48H0ZM0 42H-1V43H0V42ZM0 39V38H-1V39H0ZM0 33H-1V34H0V33ZM0 30V29H-1V30H0ZM0 24H-1V25H0V24ZM0 21V20H-1V21H0ZM0 15H-1V16H0V15ZM0 12V11H-1V12H0ZM0 6H-1V7H0V6ZM303 0H304V-1H303V0ZM312 0C312 2.20914 310.209 4 308 4V6C311.314 6 314 3.31371 314 0H312ZM345 -1H313V1H345V-1ZM349 3C349 0.790862 347.209 -1 345 -1V1C346.105 1 347 1.89543 347 3H349ZM349 6V3H347V6H349ZM346 9C346 7.89543 346.895 7 348 7V5C345.791 5 344 6.79086 344 9H346ZM348 11C346.895 11 346 10.1046 346 9H344C344 11.2091 345.791 13 348 13V11ZM349 15V12H347V15H349ZM346 18C346 16.8954 346.895 16 348 16V14C345.791 14 344 15.7909 344 18H346ZM348 20C346.895 20 346 19.1046 346 18H344C344 20.2091 345.791 22 348 22V20ZM349 24V21H347V24H349ZM346 27C346 25.8954 346.895 25 348 25V23C345.791 23 344 24.7909 344 27H346ZM348 29C346.895 29 346 28.1046 346 27H344C344 29.2091 345.791 31 348 31V29ZM349 33V30H347V33H349ZM346 36C346 34.8954 346.895 34 348 34V32C345.791 32 344 33.7909 344 36H346ZM348 38C346.895 38 346 37.1046 346 36H344C344 38.2091 345.791 40 348 40V38ZM349 42V39H347V42H349ZM346 45C346 43.8954 346.895 43 348 43V41C345.791 41 344 42.7909 344 45H346ZM348 47C346.895 47 346 46.1046 346 45H344C344 47.2091 345.791 49 348 49V47ZM349 51V48H347V51H349ZM346 54C346 52.8954 346.895 52 348 52V50C345.791 50 344 51.7909 344 54H346ZM348 56C346.895 56 346 55.1046 346 54H344C344 56.2091 345.791 58 348 58V56ZM349 60V57H347V60H349ZM345 64C347.209 64 349 62.2091 349 60H347C347 61.1046 346.105 62 345 62V64ZM313 64H345V62H313V64ZM308 59C310.209 59 312 60.7909 312 63H314C314 59.6863 311.314 57 308 57V59ZM304 63C304 60.7909 305.791 59 308 59V57C304.686 57 302 59.6863 302 63H304ZM3 64H303V62H3V64ZM-1 60C-1 62.2091 0.790856 64 3 64V62C1.89543 62 1 61.1046 1 60H-1ZM-1 57V60H1V57H-1ZM2 54C2 55.1046 1.10457 56 0 56V58C2.20914 58 4 56.2091 4 54H2ZM0 52C1.10457 52 2 52.8954 2 54H4C4 51.7909 2.20914 50 0 50V52ZM-1 48V51H1V48H-1ZM2 45C2 46.1046 1.10457 47 0 47V49C2.20914 49 4 47.2091 4 45H2ZM0 43C1.10457 43 2 43.8954 2 45H4C4 42.7909 2.20914 41 0 41V43ZM-1 39V42H1V39H-1ZM2 36C2 37.1046 1.10457 38 0 38V40C2.20914 40 4 38.2091 4 36H2ZM0 34C1.10457 34 2 34.8954 2 36H4C4 33.7909 2.20914 32 0 32V34ZM-1 30V33H1V30H-1ZM2 27C2 28.1046 1.10457 29 0 29V31C2.20914 31 4 29.2091 4 27H2ZM0 25C1.10457 25 2 25.8954 2 27H4C4 24.7909 2.20914 23 0 23V25ZM-1 21V24H1V21H-1ZM2 18C2 19.1046 1.10457 20 0 20V22C2.20914 22 4 20.2091 4 18H2ZM0 16C1.10457 16 2 16.8954 2 18H4C4 15.7909 2.20914 14 0 14V16ZM-1 12V15H1V12H-1ZM2 9C2 10.1046 1.10457 11 0 11V13C2.20914 13 4 11.2091 4 9H2ZM0 7C1.10457 7 2 7.89543 2 9H4C4 6.79086 2.20914 5 0 5V7ZM-1 3V6H1V3H-1ZM3 -1C0.790861 -1 -1 0.790861 -1 3H1C1 1.89543 1.89543 1 3 1V-1ZM303 -1H3V1H303V-1ZM308 4C305.791 4 304 2.20914 304 0H302C302 3.31371 304.686 6 308 6V4Z" fill="#F0D3DE" mask="url(#path-1-inside-1_632_9003)"/>
<path d="M307.5 10.875C307.5 11.1511 307.724 11.375 308 11.375C308.276 11.375 308.5 11.1511 308.5 10.875L307.5 10.875ZM308.5 14.625C308.5 14.3489 308.276 14.125 308 14.125C307.724 14.125 307.5 14.3489 307.5 14.625L308.5 14.625ZM307.5 18.375C307.5 18.6511 307.724 18.875 308 18.875C308.276 18.875 308.5 18.6511 308.5 18.375L307.5 18.375ZM308.5 22.125C308.5 21.8489 308.276 21.625 308 21.625C307.724 21.625 307.5 21.8489 307.5 22.125L308.5 22.125ZM307.5 25.875C307.5 26.1511 307.724 26.375 308 26.375C308.276 26.375 308.5 26.1511 308.5 25.875L307.5 25.875ZM308.5 29.625C308.5 29.3489 308.276 29.125 308 29.125C307.724 29.125 307.5 29.3489 307.5 29.625L308.5 29.625ZM307.5 33.375C307.5 33.6511 307.724 33.875 308 33.875C308.276 33.875 308.5 33.6511 308.5 33.375L307.5 33.375ZM308.5 37.125C308.5 36.8489 308.276 36.625 308 36.625C307.724 36.625 307.5 36.8489 307.5 37.125L308.5 37.125ZM307.5 40.875C307.5 41.1511 307.724 41.375 308 41.375C308.276 41.375 308.5 41.1511 308.5 40.875L307.5 40.875ZM308.5 44.625C308.5 44.3489 308.276 44.125 308 44.125C307.724 44.125 307.5 44.3489 307.5 44.625L308.5 44.625ZM307.5 48.375C307.5 48.6511 307.724 48.875 308 48.875C308.276 48.875 308.5 48.6511 308.5 48.375L307.5 48.375ZM308.5 52.125C308.5 51.8489 308.276 51.625 308 51.625C307.724 51.625 307.5 51.8489 307.5 52.125L308.5 52.125ZM307.5 9L307.5 10.875L308.5 10.875L308.5 9L307.5 9ZM307.5 14.625L307.5 18.375L308.5 18.375L308.5 14.625L307.5 14.625ZM307.5 22.125L307.5 25.875L308.5 25.875L308.5 22.125L307.5 22.125ZM307.5 29.625L307.5 33.375L308.5 33.375L308.5 29.625L307.5 29.625ZM307.5 37.125L307.5 40.875L308.5 40.875L308.5 37.125L307.5 37.125ZM307.5 44.625L307.5 48.375L308.5 48.375L308.5 44.625L307.5 44.625ZM307.5 52.125L307.5 54L308.5 54L308.5 52.125L307.5 52.125Z" fill="#F0D3DE"/>
</svg>
