<svg width="20" height="21" viewBox="0 0 20 21" fill="none" xmlns="http://www.w3.org/2000/svg">
<path d="M7.22471 10.2494C7.87302 11.5748 8.94739 12.6443 10.2758 13.2866C10.3729 13.3326 10.4804 13.3526 10.5877 13.3445C10.6949 13.3363 10.7982 13.3004 10.8874 13.2403L12.8433 11.936C12.9298 11.8784 13.0293 11.8432 13.1328 11.8337C13.2364 11.8241 13.3407 11.8406 13.4362 11.8816L17.0954 13.4498C17.2197 13.5026 17.3234 13.5943 17.3911 13.7112C17.4587 13.8282 17.4865 13.9639 17.4702 14.0979C17.3546 15.003 16.913 15.8348 16.2282 16.4377C15.5434 17.0405 14.6624 17.3731 13.75 17.3732C10.9321 17.3732 8.22956 16.2538 6.23699 14.2612C4.24442 12.2686 3.125 9.56611 3.125 6.74818C3.12505 5.83582 3.45765 4.95476 4.06053 4.26996C4.66341 3.58517 5.49523 3.14361 6.40023 3.02795C6.53431 3.01173 6.67002 3.03951 6.78693 3.10712C6.90384 3.17474 6.99561 3.27851 7.04841 3.40281L8.61798 7.06515C8.65858 7.15987 8.67512 7.26317 8.66614 7.36584C8.65715 7.46851 8.62291 7.56737 8.56647 7.6536L7.26676 9.63952C7.2076 9.72886 7.17263 9.83201 7.16526 9.9389C7.15789 10.0458 7.17837 10.1528 7.22471 10.2494V10.2494Z" stroke="#333333" stroke-width="1.25" stroke-linecap="round" stroke-linejoin="round"/>
</svg>
