<svg width="20" height="20" viewBox="0 0 20 20" fill="none" xmlns="http://www.w3.org/2000/svg">
<path d="M19.1693 15.8333C19.1693 16.2754 18.9937 16.6993 18.6811 17.0118C18.3686 17.3244 17.9446 17.5 17.5026 17.5H2.5026C2.06058 17.5 1.63665 17.3244 1.32409 17.0118C1.01153 16.6993 0.835938 16.2754 0.835938 15.8333V6.66667C0.835938 6.22464 1.01153 5.80072 1.32409 5.48816C1.63665 5.17559 2.06058 5 2.5026 5H5.83594L7.5026 2.5H12.5026L14.1693 5H17.5026C17.9446 5 18.3686 5.17559 18.6811 5.48816C18.9937 5.80072 19.1693 6.22464 19.1693 6.66667V15.8333Z" stroke="#666666" stroke-width="1.25" stroke-linecap="round" stroke-linejoin="round"/>
<path d="M9.9974 14.1667C11.8383 14.1667 13.3307 12.6743 13.3307 10.8333C13.3307 8.99238 11.8383 7.5 9.9974 7.5C8.15645 7.5 6.66406 8.99238 6.66406 10.8333C6.66406 12.6743 8.15645 14.1667 9.9974 14.1667Z" stroke="#666666" stroke-width="1.25" stroke-linecap="round" stroke-linejoin="round"/>
</svg>
