<svg width="22" height="22" viewBox="0 0 22 22" fill="none" xmlns="http://www.w3.org/2000/svg">
<path d="M0.6875 2.0625H4.125L7.5625 15.8125H18.5625L21.3125 7.5625H5.5" stroke="#333333" stroke-width="1.25" stroke-miterlimit="10" stroke-linecap="round" stroke-linejoin="round"/>
<path d="M7.90625 19.9375C8.66564 19.9375 9.28125 19.3219 9.28125 18.5625C9.28125 17.8031 8.66564 17.1875 7.90625 17.1875C7.14686 17.1875 6.53125 17.8031 6.53125 18.5625C6.53125 19.3219 7.14686 19.9375 7.90625 19.9375Z" stroke="#333333" stroke-width="1.25" stroke-miterlimit="10" stroke-linecap="round" stroke-linejoin="round"/>
<path d="M16.8438 19.9375C17.6031 19.9375 18.2188 19.3219 18.2188 18.5625C18.2188 17.8031 17.6031 17.1875 16.8438 17.1875C16.0844 17.1875 15.4688 17.8031 15.4688 18.5625C15.4688 19.3219 16.0844 19.9375 16.8438 19.9375Z" stroke="#333333" stroke-width="1.25" stroke-miterlimit="10" stroke-linecap="round" stroke-linejoin="round"/>
</svg>
