<svg width="16" height="16" viewBox="0 0 16 16" fill="none" xmlns="http://www.w3.org/2000/svg">
<g clip-path="url(#clip0_1614_6220)">
<path d="M0.5 1.5H3L5.5 11.5H13.5L15.5 5.5H4" stroke="white" stroke-width="1.25" stroke-miterlimit="10" stroke-linecap="round" stroke-linejoin="round"/>
<path d="M5.75 14.5C6.30228 14.5 6.75 14.0523 6.75 13.5C6.75 12.9477 6.30228 12.5 5.75 12.5C5.19772 12.5 4.75 12.9477 4.75 13.5C4.75 14.0523 5.19772 14.5 5.75 14.5Z" stroke="white" stroke-width="1.25" stroke-miterlimit="10" stroke-linecap="round" stroke-linejoin="round"/>
<path d="M12.25 14.5C12.8023 14.5 13.25 14.0523 13.25 13.5C13.25 12.9477 12.8023 12.5 12.25 12.5C11.6977 12.5 11.25 12.9477 11.25 13.5C11.25 14.0523 11.6977 14.5 12.25 14.5Z" stroke="white" stroke-width="1.25" stroke-miterlimit="10" stroke-linecap="round" stroke-linejoin="round"/>
</g>
<defs>
<clipPath id="clip0_1614_6220">
<rect width="16" height="16" fill="white"/>
</clipPath>
</defs>
</svg>
