<svg width="51" height="49" viewBox="0 0 51 49" fill="none" xmlns="http://www.w3.org/2000/svg">
<path d="M25.0911 0C11.2596 0 0 9.84824 0 21.9547C0 34.0611 11.2596 43.9094 25.0911 43.9094C27.6788 43.9064 30.2539 43.5476 32.7438 42.843L41.4159 48.363C41.6527 48.5149 41.9259 48.6003 42.207 48.6103C42.4881 48.6203 42.7668 48.5545 43.0137 48.4198C43.2606 48.2852 43.4668 48.0865 43.6106 47.8448C43.7544 47.603 43.8305 47.327 43.831 47.0457V36.4918C45.7931 34.6095 47.359 32.3536 48.4362 29.8571C49.5135 27.3605 50.0804 24.6737 50.1037 21.9547C50.1821 9.84824 38.9225 0 25.0911 0ZM37.6366 21.9547C37.6366 22.3706 37.4714 22.7695 37.1773 23.0636C36.8832 23.3577 36.4843 23.5229 36.0684 23.5229H14.1137C13.6978 23.5229 13.2989 23.3577 13.0048 23.0636C12.7108 22.7695 12.5455 22.3706 12.5455 21.9547C12.5455 21.5388 12.7108 21.1399 13.0048 20.8458C13.2989 20.5517 13.6978 20.3865 14.1137 20.3865H36.0684C36.4843 20.3865 36.8832 20.5517 37.1773 20.8458C37.4714 21.1399 37.6366 21.5388 37.6366 21.9547ZM32.54 29.7956C32.54 30.2116 32.3748 30.6104 32.0807 30.9045C31.7866 31.1986 31.3877 31.3638 30.9718 31.3638H19.2103C18.7944 31.3638 18.3956 31.1986 18.1015 30.9045C17.8074 30.6104 17.6422 30.2116 17.6422 29.7956C17.6422 29.3797 17.8074 28.9809 18.1015 28.6868C18.3956 28.3927 18.7944 28.2274 19.2103 28.2274H30.9718C31.3877 28.2274 31.7866 28.3927 32.0807 28.6868C32.3748 28.9809 32.54 29.3797 32.54 29.7956ZM12.9846 14.1137C12.9846 13.6978 13.1498 13.2989 13.4439 13.0048C13.738 12.7108 14.1369 12.5455 14.5528 12.5455H35.6293C36.0452 12.5455 36.4441 12.7108 36.7382 13.0048C37.0323 13.2989 37.1975 13.6978 37.1975 14.1137C37.1975 14.5296 37.0323 14.9285 36.7382 15.2226C36.4441 15.5167 36.0452 15.6819 35.6293 15.6819H14.5528C14.1369 15.6819 13.738 15.5167 13.4439 15.2226C13.1498 14.9285 12.9846 14.5296 12.9846 14.1137Z" fill="#0E0E10" fill-opacity="0.8"/>
</svg>
