<svg width="20" height="21" viewBox="0 0 20 21" fill="none" xmlns="http://www.w3.org/2000/svg">
<path d="M3.54912 14.3295C2.6173 12.7587 2.29097 10.9017 2.6314 9.1073C2.97184 7.31288 3.95563 5.70447 5.39803 4.58408C6.84044 3.46369 8.64224 2.90839 10.4651 3.02246C12.2879 3.13653 14.0065 3.91212 15.2979 5.20359C16.5894 6.49506 17.365 8.21357 17.4791 10.0364C17.5932 11.8593 17.0379 13.6611 15.9175 15.1035C14.7971 16.5459 13.1887 17.5297 11.3943 17.8701C9.59988 18.2106 7.74291 17.8843 6.17207 16.9525L6.17209 16.9524L3.58173 17.6925C3.47456 17.7231 3.36115 17.7245 3.25325 17.6965C3.14536 17.6686 3.0469 17.6123 2.96809 17.5335C2.88927 17.4547 2.83297 17.3562 2.80501 17.2483C2.77705 17.1404 2.77846 17.027 2.80908 16.9198L3.54918 14.3295L3.54912 14.3295Z" stroke="#333333" stroke-width="1.25" stroke-linecap="round" stroke-linejoin="round"/>
<path d="M7.5 9.25H12.5" stroke="#333333" stroke-width="1.25" stroke-linecap="round" stroke-linejoin="round"/>
<path d="M7.5 11.75H12.5" stroke="#333333" stroke-width="1.25" stroke-linecap="round" stroke-linejoin="round"/>
</svg>
