<svg width="24" height="24" viewBox="0 0 24 24" fill="none" xmlns="http://www.w3.org/2000/svg">
<path stroke='black' d="M22.6673 6.89333C22.6693 6.6311 22.5979 6.37354 22.4613 6.14972C22.3246 5.9259 22.1281 5.74473 21.894 5.62667C21.672 5.50748 21.4208 5.45361 21.1695 5.47131C20.9182 5.48901 20.677 5.57754 20.474 5.72667L17.334 7.73333V5.33333C17.334 4.97971 17.1935 4.64057 16.9435 4.39052C16.6934 4.14048 16.3543 4 16.0007 4H4.00065C3.29341 4 2.61513 4.28095 2.11503 4.78105C1.61494 5.28115 1.33398 5.95942 1.33398 6.66667V17.3333C1.33398 18.0406 1.61494 18.7189 2.11503 19.219C2.61513 19.719 3.29341 20 4.00065 20H16.0007C16.3543 20 16.6934 19.8595 16.9435 19.6095C17.1935 19.3594 17.334 19.0203 17.334 18.6667V16.2667L20.4273 18.2667C20.6342 18.4251 20.8818 18.5217 21.1414 18.5453C21.4009 18.5689 21.6619 18.5185 21.894 18.4C22.1323 18.28 22.3315 18.0946 22.4684 17.8656C22.6054 17.6366 22.6743 17.3734 22.6673 17.1067V6.89333ZM21.2873 17.18C21.2473 17.18 21.214 17.18 21.1607 17.14L16.0007 13.8467V18.6667H4.00065C3.64703 18.6667 3.30789 18.5262 3.05784 18.2761C2.80779 18.0261 2.66732 17.687 2.66732 17.3333V6.66667C2.66732 6.31304 2.80779 5.97391 3.05784 5.72386C3.30789 5.47381 3.64703 5.33333 4.00065 5.33333H16.0007V10.1533L21.2007 6.82C21.2132 6.81079 21.2284 6.80583 21.244 6.80583C21.2596 6.80583 21.2747 6.81079 21.2873 6.82C21.3019 6.82565 21.3143 6.83581 21.3227 6.84901C21.3311 6.8622 21.335 6.87773 21.334 6.89333V17.1067C21.335 17.1223 21.3311 17.1378 21.3227 17.151C21.3143 17.1642 21.3019 17.1743 21.2873 17.18Z" fill="white"/>
</svg>
