<svg width="494" height="323" viewBox="0 0 494 323" fill="none" xmlns="http://www.w3.org/2000/svg">
<g opacity="0.4">
<path opacity="0.5" d="M44.5987 116.6H9.29472C8.18516 116.6 7.27734 115.693 7.27734 114.583V100.562C7.27734 99.4527 8.18516 98.5449 9.29472 98.5449H44.5987C45.7083 98.5449 46.6161 99.4527 46.6161 100.562V114.583C46.6161 115.693 45.7083 116.6 44.5987 116.6Z" fill="#4834D6"/>
<g opacity="0.4">
<path opacity="0.4" d="M90.1891 38.428H54.885C53.7755 38.428 52.8677 37.5202 52.8677 36.4107V22.3899C52.8677 21.2804 53.7755 20.3726 54.885 20.3726H90.1891C91.2986 20.3726 92.2064 21.2804 92.2064 22.3899V36.4107C92.1056 37.5202 91.2986 38.428 90.1891 38.428Z" fill="#F75C00"/>
<path opacity="0.5" d="M130.434 38.428H95.1302C94.0206 38.428 93.1128 37.5202 93.1128 36.4107V22.3899C93.1128 21.2804 94.0206 20.3726 95.1302 20.3726H130.434C131.544 20.3726 132.452 21.2804 132.452 22.3899V36.4107C132.452 37.5202 131.544 38.428 130.434 38.428Z" fill="#F75C00"/>
<path opacity="0.4" d="M171.185 38.428H135.881C134.771 38.428 133.863 37.5202 133.863 36.4107V22.3899C133.863 21.2804 134.771 20.3726 135.881 20.3726H171.185C172.294 20.3726 173.202 21.2804 173.202 22.3899V36.4107C173.202 37.5202 172.294 38.428 171.185 38.428Z" fill="#F75C00"/>
<path opacity="0.4" d="M212.033 38.428H176.729C175.62 38.428 174.712 37.5202 174.712 36.4107V22.3899C174.712 21.2804 175.62 20.3726 176.729 20.3726H212.033C213.143 20.3726 214.051 21.2804 214.051 22.3899V36.4107C213.95 37.5202 213.042 38.428 212.033 38.428Z" fill="#F75C00"/>
<path opacity="0.7" d="M189.341 18.8582H154.037C152.928 18.8582 152.02 17.9504 152.02 16.8408V2.82011C152.02 1.71055 152.928 0.802734 154.037 0.802734H189.341C190.451 0.802734 191.359 1.71055 191.359 2.82011V16.8408C191.258 17.9504 190.451 18.8582 189.341 18.8582Z" fill="#F75C00"/>
<path opacity="0.5" d="M230.089 18.8582H194.785C193.675 18.8582 192.768 17.9504 192.768 16.8408V2.82011C192.768 1.71055 193.675 0.802734 194.785 0.802734H230.089C231.199 0.802734 232.106 1.71055 232.106 2.82011V16.8408C232.106 17.9504 231.199 18.8582 230.089 18.8582Z" fill="#F75C00"/>
<path opacity="0.4" d="M108.245 57.8939H72.9407C71.8312 57.8939 70.9233 56.9861 70.9233 55.8765V41.8558C70.9233 40.7462 71.8312 39.8384 72.9407 39.8384H108.245C109.354 39.8384 110.262 40.7462 110.262 41.8558V55.8765C110.262 56.9861 109.354 57.8939 108.245 57.8939Z" fill="#F75C00"/>
<path opacity="0.5" d="M148.49 57.8939H113.186C112.076 57.8939 111.168 56.9861 111.168 55.8765V41.8558C111.168 40.7462 112.076 39.8384 113.186 39.8384H148.49C149.599 39.8384 150.507 40.7462 150.507 41.8558V55.8765C150.507 56.9861 149.599 57.8939 148.49 57.8939Z" fill="#F75C00"/>
<path opacity="0.5" d="M189.341 57.8939H154.037C152.928 57.8939 152.02 56.9861 152.02 55.8765V41.8558C152.02 40.7462 152.928 39.8384 154.037 39.8384H189.341C190.451 39.8384 191.359 40.7462 191.359 41.8558V55.8765C191.258 56.9861 190.451 57.8939 189.341 57.8939Z" fill="#F75C00"/>
<path opacity="0.7" d="M230.089 57.8939H194.785C193.675 57.8939 192.768 56.9861 192.768 55.8765V41.8558C192.768 40.7462 193.675 39.8384 194.785 39.8384H230.089C231.199 39.8384 232.106 40.7462 232.106 41.8558V55.8765C232.106 56.9861 231.199 57.8939 230.089 57.8939Z" fill="#F75C00"/>
<path opacity="0.4" d="M252.989 38.428H217.685C216.575 38.428 215.667 37.5202 215.667 36.4107V22.3899C215.667 21.2804 216.575 20.3726 217.685 20.3726H252.989C254.098 20.3726 255.006 21.2804 255.006 22.3899V36.4107C254.905 37.5202 254.098 38.428 252.989 38.428Z" fill="#F75C00"/>
<path opacity="0.5" d="M293.234 38.428H257.93C256.82 38.428 255.913 37.5202 255.913 36.4107V22.3899C255.913 21.2804 256.82 20.3726 257.93 20.3726H293.234C294.344 20.3726 295.251 21.2804 295.251 22.3899V36.4107C295.251 37.5202 294.344 38.428 293.234 38.428Z" fill="#F75C00"/>
<path opacity="0.4" d="M333.984 38.428H298.68C297.571 38.428 296.663 37.5202 296.663 36.4107V22.3899C296.663 21.2804 297.571 20.3726 298.68 20.3726H333.984C335.094 20.3726 336.002 21.2804 336.002 22.3899V36.4107C336.002 37.5202 335.094 38.428 333.984 38.428Z" fill="#F75C00"/>
<path opacity="0.5" d="M374.839 38.428H339.535C338.426 38.428 337.518 37.5202 337.518 36.4107V22.3899C337.518 21.2804 338.426 20.3726 339.535 20.3726H374.839C375.949 20.3726 376.857 21.2804 376.857 22.3899V36.4107C376.756 37.5202 375.848 38.428 374.839 38.428Z" fill="#F75C00"/>
<path opacity="0.4" d="M271.045 18.8582H235.741C234.631 18.8582 233.723 17.9504 233.723 16.8408V2.82011C233.723 1.71055 234.631 0.802734 235.741 0.802734H271.045C272.154 0.802734 273.062 1.71055 273.062 2.82011V16.8408C273.062 17.9504 272.154 18.8582 271.045 18.8582Z" fill="#F75C00"/>
<path opacity="0.4" d="M352.141 18.8582H316.837C315.728 18.8582 314.82 17.9504 314.82 16.8408V2.82011C314.82 1.71055 315.728 0.802734 316.837 0.802734H352.141C353.251 0.802734 354.159 1.71055 354.159 2.82011V16.8408C354.058 17.9504 353.251 18.8582 352.141 18.8582Z" fill="#F75C00"/>
<path opacity="0.4" d="M271.045 57.8939H235.741C234.631 57.8939 233.723 56.9861 233.723 55.8765V41.8558C233.723 40.7462 234.631 39.8384 235.741 39.8384H271.045C272.154 39.8384 273.062 40.7462 273.062 41.8558V55.8765C273.062 56.9861 272.154 57.8939 271.045 57.8939Z" fill="#F75C00"/>
<path opacity="0.5" d="M311.29 57.8939H275.986C274.876 57.8939 273.968 56.9861 273.968 55.8765V41.8558C273.968 40.7462 274.876 39.8384 275.986 39.8384H311.29C312.399 39.8384 313.307 40.7462 313.307 41.8558V55.8765C313.307 56.9861 312.399 57.8939 311.29 57.8939Z" fill="#F75C00"/>
<path opacity="0.5" d="M352.141 57.8939H316.837C315.728 57.8939 314.82 56.9861 314.82 55.8765V41.8558C314.82 40.7462 315.728 39.8384 316.837 39.8384H352.141C353.251 39.8384 354.159 40.7462 354.159 41.8558V55.8765C354.058 56.9861 353.251 57.8939 352.141 57.8939Z" fill="#F75C00"/>
<path opacity="0.4" d="M392.895 57.8939H357.591C356.482 57.8939 355.574 56.9861 355.574 55.8765V41.8558C355.574 40.7462 356.482 39.8384 357.591 39.8384H392.895C394.005 39.8384 394.912 40.7462 394.912 41.8558V55.8765C394.912 56.9861 394.005 57.8939 392.895 57.8939Z" fill="#F75C00"/>
<path opacity="0.5" d="M109.454 97.032H74.1502C73.0406 97.032 72.1328 96.1242 72.1328 95.0147V80.9939C72.1328 79.8844 73.0406 78.9766 74.1502 78.9766H109.454C110.564 78.9766 111.472 79.8844 111.472 80.9939V95.0147C111.371 96.1242 110.564 97.032 109.454 97.032Z" fill="#F75C00"/>
<path opacity="0.5" d="M149.696 97.032H114.392C113.283 97.032 112.375 96.1242 112.375 95.0147V80.9939C112.375 79.8844 113.283 78.9766 114.392 78.9766H149.696C150.806 78.9766 151.714 79.8844 151.714 80.9939V95.0147C151.714 96.1242 150.806 97.032 149.696 97.032Z" fill="#F75C00"/>
<path opacity="0.7" d="M190.551 97.032H155.247C154.137 97.032 153.229 96.1242 153.229 95.0147V80.9939C153.229 79.8844 154.137 78.9766 155.247 78.9766H190.551C191.66 78.9766 192.568 79.8844 192.568 80.9939V95.0147C192.467 96.1242 191.56 97.032 190.551 97.032Z" fill="#4834D6"/>
<path opacity="0.5" d="M231.305 97.032H196.001C194.891 97.032 193.983 96.1242 193.983 95.0147V80.9939C193.983 79.8844 194.891 78.9766 196.001 78.9766H231.305C232.414 78.9766 233.322 79.8844 233.322 80.9939V95.0147C233.221 96.1242 232.414 97.032 231.305 97.032Z" fill="#F75C00"/>
<path opacity="0.4" d="M127.506 77.4622H92.2024C91.0929 77.4622 90.1851 76.5544 90.1851 75.4448V61.4241C90.1851 60.3146 91.0929 59.4067 92.2024 59.4067H127.506C128.616 59.4067 129.524 60.3146 129.524 61.4241V75.4448C129.524 76.5544 128.616 77.4622 127.506 77.4622Z" fill="#F75C00"/>
<path opacity="0.5" d="M167.853 77.4622H132.549C131.44 77.4622 130.532 76.5544 130.532 75.4448V61.4241C130.532 60.3146 131.44 59.4067 132.549 59.4067H167.853C168.963 59.4067 169.871 60.3146 169.871 61.4241V75.4448C169.77 76.5544 168.862 77.4622 167.853 77.4622Z" fill="#F75C00"/>
<path opacity="0.4" d="M208.609 77.4622H173.305C172.196 77.4622 171.288 76.5544 171.288 75.4448V61.4241C171.288 60.3146 172.196 59.4067 173.305 59.4067H208.609C209.719 59.4067 210.627 60.3146 210.627 61.4241V75.4448C210.526 76.5544 209.719 77.4622 208.609 77.4622Z" fill="#F75C00"/>
<path opacity="0.5" d="M249.357 77.4622H214.053C212.943 77.4622 212.036 76.5544 212.036 75.4448V61.4241C212.036 60.3146 212.943 59.4067 214.053 59.4067H249.357C250.467 59.4067 251.374 60.3146 251.374 61.4241V75.4448C251.374 76.5544 250.467 77.4622 249.357 77.4622Z" fill="#F75C00"/>
<path opacity="0.4" d="M127.506 116.499H92.2024C91.0929 116.499 90.1851 115.592 90.1851 114.482V100.461C90.1851 99.3517 91.0929 98.4438 92.2024 98.4438H127.506C128.616 98.4438 129.524 99.3517 129.524 100.461V114.482C129.524 115.592 128.616 116.499 127.506 116.499Z" fill="#F75C00"/>
<path opacity="0.7" d="M167.853 116.499H132.549C131.44 116.499 130.532 115.592 130.532 114.482V100.461C130.532 99.3517 131.44 98.4438 132.549 98.4438H167.853C168.963 98.4438 169.871 99.3517 169.871 100.461V114.482C169.77 115.592 168.862 116.499 167.853 116.499Z" fill="#4834D6"/>
<path opacity="0.4" d="M208.609 116.499H173.305C172.196 116.499 171.288 115.592 171.288 114.482V100.461C171.288 99.3517 172.196 98.4438 173.305 98.4438H208.609C209.719 98.4438 210.627 99.3517 210.627 100.461V114.482C210.526 115.592 209.719 116.499 208.609 116.499Z" fill="#F75C00"/>
<path opacity="0.7" d="M249.357 116.499H214.053C212.943 116.499 212.036 115.592 212.036 114.482V100.461C212.036 99.3517 212.943 98.4438 214.053 98.4438H249.357C250.467 98.4438 251.374 99.3517 251.374 100.461V114.482C251.374 115.592 250.467 116.499 249.357 116.499Z" fill="#4834D6"/>
<path opacity="0.4" d="M272.254 97.032H236.95C235.84 97.032 234.933 96.1242 234.933 95.0147V80.9939C234.933 79.8844 235.84 78.9766 236.95 78.9766H272.254C273.364 78.9766 274.271 79.8844 274.271 80.9939V95.0147C274.171 96.1242 273.364 97.032 272.254 97.032Z" fill="#F75C00"/>
<path opacity="0.7" d="M312.505 97.032H277.201C276.092 97.032 275.184 96.1242 275.184 95.0147V80.9939C275.184 79.8844 276.092 78.9766 277.201 78.9766H312.505C313.615 78.9766 314.523 79.8844 314.523 80.9939V95.0147C314.523 96.1242 313.615 97.032 312.505 97.032Z" fill="#4834D6"/>
<path opacity="0.5" d="M353.253 97.032H317.949C316.839 97.032 315.932 96.1242 315.932 95.0147V80.9939C315.932 79.8844 316.839 78.9766 317.949 78.9766H353.253C354.363 78.9766 355.27 79.8844 355.27 80.9939V95.0147C355.27 96.1242 354.363 97.032 353.253 97.032Z" fill="#F75C00"/>
<path opacity="0.5" d="M394.105 97.032H358.801C357.691 97.032 356.783 96.1242 356.783 95.0147V80.9939C356.783 79.8844 357.691 78.9766 358.801 78.9766H394.105C395.214 78.9766 396.122 79.8844 396.122 80.9939V95.0147C396.021 96.1242 395.214 97.032 394.105 97.032Z" fill="#F75C00"/>
<path opacity="0.4" d="M290.313 77.4622H255.009C253.9 77.4622 252.992 76.5544 252.992 75.4448V61.4241C252.992 60.3146 253.9 59.4067 255.009 59.4067H290.313C291.423 59.4067 292.33 60.3146 292.33 61.4241V75.4448C292.33 76.5544 291.423 77.4622 290.313 77.4622Z" fill="#F75C00"/>
<path opacity="0.5" d="M330.659 77.4622H295.355C294.246 77.4622 293.338 76.5544 293.338 75.4448V61.4241C293.338 60.3146 294.246 59.4067 295.355 59.4067H330.659C331.769 59.4067 332.677 60.3146 332.677 61.4241V75.4448C332.576 76.5544 331.668 77.4622 330.659 77.4622Z" fill="#F75C00"/>
<path opacity="0.4" d="M371.41 77.4622H336.106C334.996 77.4622 334.088 76.5544 334.088 75.4448V61.4241C334.088 60.3146 334.996 59.4067 336.106 59.4067H371.41C372.519 59.4067 373.427 60.3146 373.427 61.4241V75.4448C373.326 76.5544 372.519 77.4622 371.41 77.4622Z" fill="#F75C00"/>
<path opacity="0.7" d="M412.157 77.4622H376.853C375.743 77.4622 374.835 76.5544 374.835 75.4448V61.4241C374.835 60.3146 375.743 59.4067 376.853 59.4067H412.157C413.266 59.4067 414.174 60.3146 414.174 61.4241V75.4448C414.174 76.5544 413.266 77.4622 412.157 77.4622Z" fill="#4834D6"/>
<path opacity="0.4" d="M290.313 116.499H255.009C253.9 116.499 252.992 115.592 252.992 114.482V100.461C252.992 99.3517 253.9 98.4438 255.009 98.4438H290.313C291.423 98.4438 292.33 99.3517 292.33 100.461V114.482C292.33 115.592 291.423 116.499 290.313 116.499Z" fill="#F75C00"/>
<path opacity="0.5" d="M330.659 116.499H295.355C294.246 116.499 293.338 115.592 293.338 114.482V100.461C293.338 99.3517 294.246 98.4438 295.355 98.4438H330.659C331.769 98.4438 332.677 99.3517 332.677 100.461V114.482C332.576 115.592 331.668 116.499 330.659 116.499Z" fill="#F75C00"/>
<path opacity="0.4" d="M371.41 116.499H336.106C334.996 116.499 334.088 115.592 334.088 114.482V100.461C334.088 99.3517 334.996 98.4438 336.106 98.4438H371.41C372.519 98.4438 373.427 99.3517 373.427 100.461V114.482C373.326 115.592 372.519 116.499 371.41 116.499Z" fill="#F75C00"/>
<path opacity="0.5" d="M412.157 116.499H376.853C375.743 116.499 374.835 115.592 374.835 114.482V100.461C374.835 99.3517 375.743 98.4438 376.853 98.4438H412.157C413.266 98.4438 414.174 99.3517 414.174 100.461V114.482C414.174 115.592 413.266 116.499 412.157 116.499Z" fill="#F75C00"/>
<path opacity="0.4" d="M88.0699 156.342H52.7659C51.6564 156.342 50.7485 155.434 50.7485 154.324V140.304C50.7485 139.194 51.6564 138.286 52.7659 138.286H88.0699C89.1795 138.286 90.0873 139.194 90.0873 140.304V154.324C90.0873 155.434 89.1795 156.342 88.0699 156.342Z" fill="#F75C00"/>
<path opacity="0.5" d="M128.416 156.342H93.1121C92.0025 156.342 91.0947 155.434 91.0947 154.324V140.304C91.0947 139.194 92.0025 138.286 93.1121 138.286H128.416C129.526 138.286 130.433 139.194 130.433 140.304V154.324C130.333 155.434 129.425 156.342 128.416 156.342Z" fill="#F75C00"/>
<path opacity="0.4" d="M169.167 156.342H133.863C132.753 156.342 131.845 155.434 131.845 154.324V140.304C131.845 139.194 132.753 138.286 133.863 138.286H169.167C170.276 138.286 171.184 139.194 171.184 140.304V154.324C171.083 155.434 170.276 156.342 169.167 156.342Z" fill="#F75C00"/>
<path opacity="0.4" d="M209.914 156.342H174.61C173.501 156.342 172.593 155.434 172.593 154.324V140.304C172.593 139.194 173.501 138.286 174.61 138.286H209.914C211.024 138.286 211.932 139.194 211.932 140.304V154.324C211.932 155.434 211.024 156.342 209.914 156.342Z" fill="#F75C00"/>
<path opacity="0.5" d="M106.122 136.774H70.8182C69.7086 136.774 68.8008 135.866 68.8008 134.757V120.837C68.8008 119.727 69.7086 118.819 70.8182 118.819H106.122C107.232 118.819 108.14 119.727 108.14 120.837V134.857C108.14 135.967 107.232 136.774 106.122 136.774Z" fill="#F75C00"/>
<path opacity="0.5" d="M146.472 136.774H111.168C110.058 136.774 109.15 135.866 109.15 134.757V120.837C109.15 119.727 110.058 118.819 111.168 118.819H146.472C147.581 118.819 148.489 119.727 148.489 120.837V134.857C148.388 135.967 147.581 136.774 146.472 136.774Z" fill="#F75C00"/>
<path opacity="0.5" d="M86.4562 76.7576H51.1521C50.0426 76.7576 49.1348 75.8498 49.1348 74.7403V60.7195C49.1348 59.61 50.0426 58.7021 51.1521 58.7021H86.4562C87.5657 58.7021 88.4735 59.61 88.4735 60.7195V74.7403C88.3727 75.8498 87.5657 76.7576 86.4562 76.7576Z" fill="#F75C00"/>
<path opacity="0.5" d="M84.94 116.6H49.636C48.5265 116.6 47.6187 115.693 47.6187 114.583V100.562C47.6187 99.4527 48.5265 98.5449 49.636 98.5449H84.94C86.0496 98.5449 86.9574 99.4527 86.9574 100.562V114.583C86.8566 115.693 85.9487 116.6 84.94 116.6Z" fill="#F75C00"/>
<path opacity="0.5" d="M187.219 136.774H151.915C150.805 136.774 149.897 135.866 149.897 134.757V120.837C149.897 119.727 150.805 118.819 151.915 118.819H187.219C188.328 118.819 189.236 119.727 189.236 120.837V134.857C189.236 135.967 188.328 136.774 187.219 136.774Z" fill="#F75C00"/>
<path opacity="0.5" d="M227.973 136.774H192.669C191.559 136.774 190.651 135.866 190.651 134.757V120.837C190.651 119.727 191.559 118.819 192.669 118.819H227.973C229.082 118.819 229.99 119.727 229.99 120.837V134.857C229.99 135.967 229.082 136.774 227.973 136.774Z" fill="#F75C00"/>
<path opacity="0.5" d="M106.122 175.91H70.8182C69.7086 175.91 68.8008 175.002 68.8008 173.893V159.872C68.8008 158.762 69.7086 157.854 70.8182 157.854H106.122C107.232 157.854 108.14 158.762 108.14 159.872V173.893C108.14 175.002 107.232 175.91 106.122 175.91Z" fill="#F75C00"/>
<path opacity="0.7" d="M146.472 175.91H111.168C110.058 175.91 109.15 175.002 109.15 173.893V159.872C109.15 158.762 110.058 157.854 111.168 157.854H146.472C147.581 157.854 148.489 158.762 148.489 159.872V173.893C148.388 175.002 147.581 175.91 146.472 175.91Z" fill="#F75C00"/>
<path opacity="0.5" d="M187.219 175.91H151.915C150.805 175.91 149.897 175.002 149.897 173.893V159.872C149.897 158.762 150.805 157.854 151.915 157.854H187.219C188.328 157.854 189.236 158.762 189.236 159.872V173.893C189.236 175.002 188.328 175.91 187.219 175.91Z" fill="#F75C00"/>
<path opacity="0.5" d="M227.973 175.91H192.669C191.559 175.91 190.651 175.002 190.651 173.893V159.872C190.651 158.762 191.559 157.854 192.669 157.854H227.973C229.082 157.854 229.99 158.762 229.99 159.872V173.893C229.99 175.002 229.082 175.91 227.973 175.91Z" fill="#F75C00"/>
<path opacity="0.4" d="M250.87 156.342H215.566C214.456 156.342 213.548 155.434 213.548 154.324V140.304C213.548 139.194 214.456 138.286 215.566 138.286H250.87C251.979 138.286 252.887 139.194 252.887 140.304V154.324C252.887 155.434 251.979 156.342 250.87 156.342Z" fill="#F75C00"/>
<path opacity="0.5" d="M291.216 156.342H255.912C254.802 156.342 253.895 155.434 253.895 154.324V140.304C253.895 139.194 254.802 138.286 255.912 138.286H291.216C292.325 138.286 293.233 139.194 293.233 140.304V154.324C293.132 155.434 292.225 156.342 291.216 156.342Z" fill="#F75C00"/>
<path opacity="0.4" d="M331.966 156.342H296.662C295.553 156.342 294.645 155.434 294.645 154.324V140.304C294.645 139.194 295.553 138.286 296.662 138.286H331.966C333.076 138.286 333.984 139.194 333.984 140.304V154.324C333.883 155.434 333.076 156.342 331.966 156.342Z" fill="#F75C00"/>
<path opacity="0.5" d="M372.72 156.342H337.416C336.307 156.342 335.399 155.434 335.399 154.324V140.304C335.399 139.194 336.307 138.286 337.416 138.286H372.72C373.83 138.286 374.738 139.194 374.738 140.304V154.324C374.738 155.434 373.83 156.342 372.72 156.342Z" fill="#F75C00"/>
<path opacity="0.4" d="M268.922 136.774H233.618C232.509 136.774 231.601 135.866 231.601 134.757V120.837C231.601 119.727 232.509 118.819 233.618 118.819H268.922C270.032 118.819 270.94 119.727 270.94 120.837V134.857C270.94 135.967 270.032 136.774 268.922 136.774Z" fill="#F75C00"/>
<path opacity="0.7" d="M309.272 136.774H273.968C272.858 136.774 271.95 135.866 271.95 134.757V120.837C271.95 119.727 272.858 118.819 273.968 118.819H309.272C310.381 118.819 311.289 119.727 311.289 120.837V134.857C311.188 135.967 310.381 136.774 309.272 136.774Z" fill="#4834D6"/>
<path opacity="0.4" d="M350.025 136.774H314.721C313.612 136.774 312.704 135.866 312.704 134.757V120.837C312.704 119.727 313.612 118.819 314.721 118.819H350.025C351.135 118.819 352.043 119.727 352.043 120.837V134.857C352.043 135.967 351.135 136.774 350.025 136.774Z" fill="#F75C00"/>
<path opacity="0.5" d="M390.773 136.774H355.469C354.359 136.774 353.451 135.866 353.451 134.757V120.837C353.451 119.727 354.359 118.819 355.469 118.819H390.773C391.882 118.819 392.79 119.727 392.79 120.837V134.857C392.79 135.967 391.882 136.774 390.773 136.774Z" fill="#F75C00"/>
<path opacity="0.7" d="M432.129 136.774H396.825C395.716 136.774 394.808 135.866 394.808 134.757V120.837C394.808 119.727 395.716 118.819 396.825 118.819H432.129C433.239 118.819 434.147 119.727 434.147 120.837V134.857C434.147 135.967 433.239 136.774 432.129 136.774Z" fill="#F75C00"/>
<path opacity="0.4" d="M446.958 195.782H411.654C410.544 195.782 409.636 194.874 409.636 193.764V179.743C409.636 178.634 410.544 177.726 411.654 177.726H446.958C448.067 177.726 448.975 178.634 448.975 179.743V193.764C448.975 194.874 448.067 195.782 446.958 195.782Z" fill="#F75C00"/>
<path opacity="0.5" d="M427.392 215.652H392.088C390.979 215.652 390.071 214.744 390.071 213.634V199.614C390.071 198.504 390.979 197.596 392.088 197.596H427.392C428.502 197.596 429.41 198.504 429.41 199.614V213.634C429.41 214.845 428.502 215.652 427.392 215.652Z" fill="#F75C00"/>
<path opacity="0.5" d="M432.129 175.809H396.825C395.716 175.809 394.808 174.901 394.808 173.792V159.771C394.808 158.661 395.716 157.753 396.825 157.753H432.129C433.239 157.753 434.147 158.661 434.147 159.771V173.792C434.147 174.901 433.239 175.809 432.129 175.809Z" fill="#F75C00"/>
<path opacity="0.7" d="M415.59 38.428H380.286C379.176 38.428 378.269 37.5202 378.269 36.4107V22.3899C378.269 21.2804 379.176 20.3726 380.286 20.3726H415.59C416.7 20.3726 417.607 21.2804 417.607 22.3899V36.4107C417.506 37.5202 416.7 38.428 415.59 38.428Z" fill="#F75C00"/>
<path opacity="0.4" d="M456.34 38.428H421.036C419.927 38.428 419.019 37.5202 419.019 36.4107V22.3899C419.019 21.2804 419.927 20.3726 421.036 20.3726H456.34C457.45 20.3726 458.358 21.2804 458.358 22.3899V36.4107C458.358 37.5202 457.45 38.428 456.34 38.428Z" fill="#F75C00"/>
<path opacity="0.7" d="M434.148 57.7928H398.844C397.734 57.7928 396.826 56.885 396.826 55.7754V41.7547C396.826 40.6451 397.734 39.7373 398.844 39.7373H434.148C435.257 39.7373 436.165 40.6451 436.165 41.7547V55.7754C436.165 56.885 435.257 57.7928 434.148 57.7928Z" fill="#F75C00"/>
<path opacity="0.4" d="M474.999 74.8392H439.695C438.586 74.8392 437.678 73.9314 437.678 72.8218V58.8011C437.678 57.6915 438.586 56.7837 439.695 56.7837H474.999C476.109 56.7837 477.016 57.6915 477.016 58.8011V72.8218C476.916 74.0322 476.109 74.8392 474.999 74.8392Z" fill="#F75C00"/>
<path opacity="0.4" d="M64.2633 195.782H28.9593C27.8497 195.782 26.9419 194.874 26.9419 193.764V179.743C26.9419 178.634 27.8497 177.726 28.9593 177.726H64.2633C65.3728 177.726 66.2807 178.634 66.2807 179.743V193.764C66.1798 194.874 65.3728 195.782 64.2633 195.782Z" fill="#F75C00"/>
<path opacity="0.7" d="M435.862 97.032H400.558C399.449 97.032 398.541 96.1242 398.541 95.0147V80.9939C398.541 79.8844 399.449 78.9766 400.558 78.9766H435.862C436.972 78.9766 437.88 79.8844 437.88 80.9939V95.0147C437.779 96.1242 436.972 97.032 435.862 97.032Z" fill="#4834D6"/>
<path opacity="0.4" d="M268.922 175.91H233.618C232.509 175.91 231.601 175.002 231.601 173.893V159.872C231.601 158.762 232.509 157.854 233.618 157.854H268.922C270.032 157.854 270.94 158.762 270.94 159.872V173.893C270.94 175.002 270.032 175.91 268.922 175.91Z" fill="#F75C00"/>
<path opacity="0.5" d="M309.272 175.91H273.968C272.858 175.91 271.95 175.002 271.95 173.893V159.872C271.95 158.762 272.858 157.854 273.968 157.854H309.272C310.381 157.854 311.289 158.762 311.289 159.872V173.893C311.188 175.002 310.381 175.91 309.272 175.91Z" fill="#F75C00"/>
<path opacity="0.5" d="M350.025 175.91H314.721C313.612 175.91 312.704 175.002 312.704 173.893V159.872C312.704 158.762 313.612 157.854 314.721 157.854H350.025C351.135 157.854 352.043 158.762 352.043 159.872V173.893C352.043 175.002 351.135 175.91 350.025 175.91Z" fill="#F75C00"/>
<path opacity="0.4" d="M390.773 175.91H355.469C354.359 175.91 353.451 175.002 353.451 173.893V159.872C353.451 158.762 354.359 157.854 355.469 157.854H390.773C391.882 157.854 392.79 158.762 392.79 159.872V173.893C392.79 175.002 391.882 175.91 390.773 175.91Z" fill="#F75C00"/>
<path opacity="0.5" d="M101.985 215.652H66.6809C65.5714 215.652 64.6636 214.744 64.6636 213.634V199.614C64.6636 198.504 65.5714 197.596 66.6809 197.596H101.985C103.095 197.596 104.002 198.504 104.002 199.614V213.634C104.002 214.845 103.095 215.652 101.985 215.652Z" fill="#F75C00"/>
<path opacity="0.5" d="M142.335 215.652H107.031C105.921 215.652 105.013 214.744 105.013 213.634V199.614C105.013 198.504 105.921 197.596 107.031 197.596H142.335C143.444 197.596 144.352 198.504 144.352 199.614V213.634C144.251 214.845 143.444 215.652 142.335 215.652Z" fill="#F75C00"/>
<path opacity="0.7" d="M183.088 215.652H147.784C146.674 215.652 145.767 214.744 145.767 213.634V199.614C145.767 198.504 146.674 197.596 147.784 197.596H183.088C184.198 197.596 185.105 198.504 185.105 199.614V213.634C185.105 214.845 184.198 215.652 183.088 215.652Z" fill="#F75C00"/>
<path opacity="0.5" d="M223.836 215.652H188.532C187.422 215.652 186.514 214.744 186.514 213.634V199.614C186.514 198.504 187.422 197.596 188.532 197.596H223.836C224.945 197.596 225.853 198.504 225.853 199.614V213.634C225.853 214.845 224.945 215.652 223.836 215.652Z" fill="#F75C00"/>
<path opacity="0.4" d="M120.142 196.187H84.8377C83.7281 196.187 82.8203 195.28 82.8203 194.17V180.149C82.8203 179.04 83.7281 178.132 84.8377 178.132H120.142C121.251 178.132 122.159 179.04 122.159 180.149V194.17C122.058 195.28 121.251 196.187 120.142 196.187Z" fill="#F75C00"/>
<path opacity="0.7" d="M160.393 196.187H125.089C123.98 196.187 123.072 195.28 123.072 194.17V180.149C123.072 179.04 123.98 178.132 125.089 178.132H160.393C161.503 178.132 162.411 179.04 162.411 180.149V194.17C162.411 195.28 161.503 196.187 160.393 196.187Z" fill="#F75C00"/>
<path opacity="0.4" d="M201.144 196.187H165.84C164.73 196.187 163.822 195.28 163.822 194.17V180.149C163.822 179.04 164.73 178.132 165.84 178.132H201.144C202.253 178.132 203.161 179.04 203.161 180.149V194.17C203.161 195.28 202.253 196.187 201.144 196.187Z" fill="#F75C00"/>
<path opacity="0.5" d="M241.992 196.187H206.688C205.579 196.187 204.671 195.28 204.671 194.17V180.149C204.671 179.04 205.579 178.132 206.688 178.132H241.992C243.102 178.132 244.01 179.04 244.01 180.149V194.17C243.909 195.28 243.001 196.187 241.992 196.187Z" fill="#F75C00"/>
<path opacity="0.4" d="M120.142 235.221H84.8377C83.7281 235.221 82.8203 234.314 82.8203 233.204V219.183C82.8203 218.074 83.7281 217.166 84.8377 217.166H120.142C121.251 217.166 122.159 218.074 122.159 219.183V233.204C122.058 234.314 121.251 235.221 120.142 235.221Z" fill="#F75C00"/>
<path opacity="0.5" d="M160.393 235.221H125.089C123.98 235.221 123.072 234.314 123.072 233.204V219.183C123.072 218.074 123.98 217.166 125.089 217.166H160.393C161.503 217.166 162.411 218.074 162.411 219.183V233.204C162.411 234.314 161.503 235.221 160.393 235.221Z" fill="#F75C00"/>
<path opacity="0.4" d="M201.144 235.221H165.84C164.73 235.221 163.822 234.314 163.822 233.204V219.183C163.822 218.074 164.73 217.166 165.84 217.166H201.144C202.253 217.166 203.161 218.074 203.161 219.183V233.204C203.161 234.314 202.253 235.221 201.144 235.221Z" fill="#F75C00"/>
<path opacity="0.5" d="M241.992 235.221H206.688C205.579 235.221 204.671 234.314 204.671 233.204V219.183C204.671 218.074 205.579 217.166 206.688 217.166H241.992C243.102 217.166 244.01 218.074 244.01 219.183V233.204C243.909 234.314 243.001 235.221 241.992 235.221Z" fill="#F75C00"/>
<path opacity="0.4" d="M264.791 215.652H229.487C228.378 215.652 227.47 214.744 227.47 213.634V199.614C227.47 198.504 228.378 197.596 229.487 197.596H264.791C265.901 197.596 266.808 198.504 266.808 199.614V213.634C266.808 214.845 265.901 215.652 264.791 215.652Z" fill="#F75C00"/>
<path opacity="0.7" d="M305.141 215.652H269.837C268.727 215.652 267.819 214.744 267.819 213.634V199.614C267.819 198.504 268.727 197.596 269.837 197.596H305.141C306.25 197.596 307.158 198.504 307.158 199.614V213.634C307.057 214.845 306.25 215.652 305.141 215.652Z" fill="#F75C00"/>
<path opacity="0.5" d="M345.888 215.652H310.584C309.475 215.652 308.567 214.744 308.567 213.634V199.614C308.567 198.504 309.475 197.596 310.584 197.596H345.888C346.998 197.596 347.906 198.504 347.906 199.614V213.634C347.906 214.845 346.998 215.652 345.888 215.652Z" fill="#F75C00"/>
<path opacity="0.5" d="M386.642 215.652H351.338C350.228 215.652 349.32 214.744 349.32 213.634V199.614C349.32 198.504 350.228 197.596 351.338 197.596H386.642C387.751 197.596 388.659 198.504 388.659 199.614V213.634C388.659 214.845 387.751 215.652 386.642 215.652Z" fill="#F75C00"/>
<path opacity="0.4" d="M282.948 196.187H247.644C246.534 196.187 245.626 195.28 245.626 194.17V180.149C245.626 179.04 246.534 178.132 247.644 178.132H282.948C284.057 178.132 284.965 179.04 284.965 180.149V194.17C284.864 195.28 284.057 196.187 282.948 196.187Z" fill="#F75C00"/>
<path opacity="0.5" d="M323.193 196.187H287.889C286.779 196.187 285.872 195.28 285.872 194.17V180.149C285.872 179.04 286.779 178.132 287.889 178.132H323.193C324.303 178.132 325.21 179.04 325.21 180.149V194.17C325.21 195.28 324.303 196.187 323.193 196.187Z" fill="#F75C00"/>
<path opacity="0.4" d="M363.947 196.187H328.643C327.533 196.187 326.625 195.28 326.625 194.17V180.149C326.625 179.04 327.533 178.132 328.643 178.132H363.947C365.056 178.132 365.964 179.04 365.964 180.149V194.17C365.964 195.28 365.056 196.187 363.947 196.187Z" fill="#F75C00"/>
<path opacity="0.5" d="M404.798 196.187H369.494C368.385 196.187 367.477 195.28 367.477 194.17V180.149C367.477 179.04 368.385 178.132 369.494 178.132H404.798C405.908 178.132 406.816 179.04 406.816 180.149V194.17C406.715 195.28 405.807 196.187 404.798 196.187Z" fill="#F75C00"/>
<path opacity="0.4" d="M282.948 235.221H247.644C246.534 235.221 245.626 234.314 245.626 233.204V219.183C245.626 218.074 246.534 217.166 247.644 217.166H282.948C284.057 217.166 284.965 218.074 284.965 219.183V233.204C284.864 234.314 284.057 235.221 282.948 235.221Z" fill="#F75C00"/>
<path opacity="0.5" d="M323.193 235.221H287.889C286.779 235.221 285.872 234.314 285.872 233.204V219.183C285.872 218.074 286.779 217.166 287.889 217.166H323.193C324.303 217.166 325.21 218.074 325.21 219.183V233.204C325.21 234.314 324.303 235.221 323.193 235.221Z" fill="#F75C00"/>
<path opacity="0.4" d="M363.947 235.221H328.643C327.533 235.221 326.625 234.314 326.625 233.204V219.183C326.625 218.074 327.533 217.166 328.643 217.166H363.947C365.056 217.166 365.964 218.074 365.964 219.183V233.204C365.964 234.314 365.056 235.221 363.947 235.221Z" fill="#F75C00"/>
<path opacity="0.7" d="M404.798 235.221H369.494C368.385 235.221 367.477 234.314 367.477 233.204V219.183C367.477 218.074 368.385 217.166 369.494 217.166H404.798C405.908 217.166 406.816 218.074 406.816 219.183V233.204C406.715 234.314 405.807 235.221 404.798 235.221Z" fill="#4834D6"/>
</g>
</g>
<path opacity="0.57" d="M215.461 229.772L401.388 229C401.388 229 450.419 242.013 433.417 256.791C416.415 271.458 400.291 276.421 417.293 286.126C434.295 295.83 448.555 319.431 380.766 322.739C312.977 325.937 285.993 298.808 299.923 291.86C327.785 277.855 280.837 287.89 265.371 276.642C256.486 270.135 287.528 251.277 249.904 249.181C230.379 248.079 172.572 245.211 180.909 258.776C190.781 274.987 191.549 283.479 148.001 286.677C86.2455 291.088 27.6706 291.088 7.81649 276.531C-4.13982 267.819 -14.6701 231.095 75.1667 231.095C137.471 230.985 215.461 229.772 215.461 229.772Z" fill="#FCBE99"/>
<g clip-path="url(#clip0_2661_7146)">
<path d="M165.659 231.661L116.536 144.733C115.986 141.766 113.349 139.678 110.382 139.678H60.7084C57.7412 139.678 55.1037 141.766 54.4443 144.733L31.6957 254.41C31.6957 254.629 31.5858 256.058 31.5858 256.278C31.1462 261.003 36.5312 262.872 40.5973 260.344C46.0922 256.827 58.2907 250.563 60.9282 250.563H122.47C125.987 250.563 128.734 253.421 128.734 256.827C128.734 256.937 128.734 257.047 128.734 257.157C128.954 261.443 135.328 261.663 135.987 257.487L165.659 231.661ZM106.205 164.844H74.5553C70.5991 164.844 67.3022 161.657 67.3022 157.591C67.3022 153.525 70.4892 150.338 74.5553 150.338H106.205C110.162 150.338 113.459 153.525 113.459 157.591C113.459 161.657 110.272 164.844 106.205 164.844Z" fill="black" fill-opacity="0.12"/>
</g>
<g clip-path="url(#clip1_2661_7146)">
<path d="M131.371 253.75L110.82 150.228C110.271 147.481 107.963 145.502 105.216 145.502H51.3663C48.6189 145.502 46.3111 147.481 45.7616 150.228L25.1011 253.75C24.3318 257.377 27.0792 260.894 30.7058 260.894H40.047C43.234 260.894 45.7616 258.256 45.7616 254.959C45.7616 251.662 48.2892 249.025 51.4762 249.025H107.084C110.271 249.025 112.798 251.662 112.798 254.959C112.798 258.256 115.326 260.894 118.513 260.894H125.546C129.393 260.784 132.14 257.377 131.371 253.75ZM92.5775 169.02H63.8945C60.2679 169.02 57.4106 166.053 57.4106 162.317C57.4106 158.58 60.3778 155.613 63.8945 155.613H92.5775C96.2041 155.613 99.0614 158.58 99.0614 162.317C99.0614 166.053 96.2041 169.02 92.5775 169.02Z" fill="#FA9100"/>
<path d="M136.976 256.718L114.227 145.832C113.678 142.865 111.04 140.777 108.073 140.777H48.6189C45.6517 140.777 43.0141 142.865 42.3548 145.832L19.6062 256.718C18.8369 260.674 21.8041 264.3 25.8703 264.3H36.2006C39.7173 264.3 42.5746 261.443 42.5746 257.926C42.5746 254.41 45.4319 251.552 48.9486 251.552H110.381C113.897 251.552 116.755 254.41 116.755 257.926C116.755 261.443 119.612 264.3 123.129 264.3H130.931C134.778 264.3 137.855 260.674 136.976 256.718ZM94.116 165.943H62.4658C58.5095 165.943 55.2126 162.756 55.2126 158.69C55.2126 154.624 58.3996 151.437 62.4658 151.437H94.116C98.0723 151.437 101.369 154.624 101.369 158.69C101.369 162.756 98.1821 165.943 94.116 165.943Z" fill="#FFCC00"/>
<path d="M117.744 162.866C98.9514 197.483 68.2903 235.727 20.3755 253.31L19.6062 256.827C18.8369 260.783 21.8041 264.41 25.8703 264.41H36.2006C39.7173 264.41 42.5746 261.553 42.5746 258.036C42.5746 254.519 45.4319 251.662 48.9486 251.662H110.381C113.897 251.662 116.755 254.519 116.755 258.036C116.755 261.553 119.612 264.41 123.129 264.41H130.931C134.997 264.41 137.965 260.674 137.195 256.827L117.744 162.866Z" fill="#FDBF2D"/>
</g>
<path d="M406.96 245.299L396.616 225.884L391.884 217" fill="#CACBCC"/>
<path d="M477.87 292.871C469.62 281.205 420.225 285.958 420.225 285.958C420.225 285.958 420.555 287.902 421.325 290.603L365 311.882L440.687 311.774C441.017 311.774 441.237 311.882 441.567 311.882C443.767 312.098 445.967 311.99 448.058 311.774H448.608V311.666C462.909 309.614 484.141 301.837 477.87 292.871Z" fill="black" fill-opacity="0.12"/>
<path d="M235.5 315C299.289 315 351 302.24 351 286.5C351 270.76 299.289 258 235.5 258C171.711 258 120 270.76 120 286.5C120 302.24 171.711 315 235.5 315Z" fill="#FED2B8"/>
<g clip-path="url(#clip2_2661_7146)">
<path d="M254.119 242.401C254.119 242.401 247.362 243.17 242.785 244.818C241.695 245.148 240.823 245.588 240.061 246.137C234.829 249.654 232.65 255.149 228.726 257.567C224.803 259.985 222.95 258.117 221.315 257.128C219.681 256.139 217.828 257.787 215.212 258.227C212.597 258.666 211.289 252.072 221.642 240.422C223.713 238.114 225.784 236.136 227.963 234.597C239.952 225.585 252.485 226.245 252.485 226.245L254.119 242.401Z" fill="white"/>
<path opacity="0.1" d="M254.119 242.401C254.119 242.401 247.362 243.17 242.785 244.818C240.932 237.785 233.303 235.257 228.072 234.487C240.06 225.475 252.594 226.135 252.594 226.135L254.119 242.401Z" fill="#5E452C"/>
<path d="M231.124 200.637C230.252 200.197 229.38 199.538 228.508 198.768C218.264 190.416 205.513 167.666 209.872 163.489C211.289 162.06 215.321 161.071 220.116 160.412H220.225C231.342 158.763 246.708 158.543 246.708 158.543C260.549 164.588 241.804 206.681 231.124 200.637Z" fill="white"/>
<path d="M233.303 191.515C233.303 191.515 216.847 174.37 218.7 171.183C220.988 167.336 247.689 170.743 247.689 170.743C247.689 170.743 236.573 183.382 233.303 191.515Z" fill="#ED8585"/>
<path d="M218.917 170.853C221.206 169.864 223.604 169.534 226.001 169.314C228.399 169.094 230.906 168.984 233.303 169.094C234.502 169.094 235.701 169.204 236.9 169.314C238.099 169.424 239.297 169.534 240.496 169.644L244.093 170.084C245.292 170.303 246.49 170.523 247.689 170.743C245.292 170.633 242.894 170.523 240.496 170.413C238.099 170.303 235.701 170.193 233.303 170.084C230.906 169.974 228.508 169.974 226.11 170.084C224.912 170.084 223.713 170.193 222.514 170.303C221.206 170.413 220.116 170.523 218.917 170.853Z" fill="#483723"/>
<path opacity="0.1" d="M231.124 200.637C230.252 200.197 229.38 199.538 228.508 198.768C230.47 196.57 232.868 193.713 235.592 189.976C237.336 187.558 238.099 185.14 238.208 182.832C238.317 177.997 235.265 173.271 231.669 169.534C231.669 169.534 231.669 169.424 231.56 169.424C227.31 165.028 222.405 161.731 220.662 160.632C220.444 160.522 220.335 160.412 220.226 160.302H220.335L220.226 160.192C231.342 158.544 246.709 158.324 246.709 158.324C260.55 164.588 241.804 206.682 231.124 200.637Z" fill="#5E452C"/>
<path d="M232.105 203.385C226.764 201.956 221.424 200.527 216.084 199.098C214.449 198.659 215.321 196.131 216.956 196.571C222.296 197.999 227.636 199.428 232.977 200.857C234.611 201.297 233.739 203.824 232.105 203.385Z" fill="#5E452C"/>
<path d="M231.124 208.001C225.675 208.55 220.334 208.99 214.885 209.54C213.25 209.649 212.706 207.122 214.449 206.902C219.898 206.352 225.239 205.913 230.688 205.363C232.432 205.253 232.868 207.891 231.124 208.001Z" fill="#5E452C"/>
<path d="M356.346 216.353C351.333 224.926 320.708 221.409 320.708 221.409C320.708 221.409 318.311 227.234 312.753 230.201C305.669 234.048 291.501 235.367 291.501 235.367C291.501 235.367 291.828 236.466 292.7 238.334C294.007 240.972 296.732 245.148 301.963 249.105C305.887 252.072 309.047 255.479 310.9 258.996C313.189 263.282 313.842 267.789 312.426 272.295C309.701 280.428 289.103 290.868 275.153 288.78C268.832 287.901 266.325 285.593 264.364 281.197C264.364 281.197 252.376 281.197 251.722 280.428C251.068 279.658 251.831 278.559 251.831 278.559C251.831 278.559 241.804 278.559 240.496 278.559C239.189 278.559 241.804 276.031 244.965 274.603C244.965 274.603 236.464 256.358 250.741 247.456C250.741 247.456 252.594 232.399 251.395 230.091L251.286 229.981C249.542 228.443 230.579 221.079 227.527 207.121C227.418 206.572 227.309 206.022 227.2 205.473C226.982 203.385 227.091 200.857 227.527 198.219C229.925 181.624 243.221 157.665 243.221 157.665C243.221 157.665 251.613 158.434 263.71 160.192C266.216 160.522 268.941 160.962 271.666 161.511C286.596 164.039 304.797 167.886 319.074 173.381C325.395 175.799 330.953 178.546 335.203 181.624C335.312 181.624 361.359 207.781 356.346 216.353Z" fill="white"/>
<path d="M274.608 208.66C273.955 205.143 275.044 201.626 275.044 198.109C275.153 192.285 270.358 189.097 268.941 183.822C265.454 171.293 277.115 163.709 288.34 164.699C304.252 166.237 313.952 180.305 310.464 196.131C307.086 211.738 292.591 219.651 285.725 218.991C280.167 218.442 275.589 214.155 274.608 208.66Z" fill="#EFB065"/>
<path d="M272.538 234.377C275.698 234.597 278.859 234.927 282.019 235.147C285.18 235.367 288.34 235.476 291.501 235.476C288.449 236.356 285.18 236.466 281.91 236.246C278.75 235.916 275.589 235.367 272.538 234.377Z" fill="#483723"/>
<path d="M288.34 254.71C287.686 257.458 286.705 259.985 285.616 262.513C284.526 265.041 283.436 267.569 282.019 269.987C282.673 267.239 283.654 264.711 284.744 262.183C285.724 259.546 286.923 257.018 288.34 254.71Z" fill="#483723"/>
<path d="M250.741 247.346C250.523 248.555 250.196 249.874 250.087 251.083C249.869 252.292 249.651 253.611 249.542 254.82C249.324 257.347 249.106 259.875 249.324 262.403C249.433 264.931 249.978 267.459 251.068 269.657C252.158 271.965 254.01 273.723 256.299 274.822C255.1 274.493 253.901 273.833 252.921 273.064C251.94 272.294 251.068 271.195 250.414 270.096C249.106 267.788 248.561 265.151 248.343 262.513C248.125 259.875 248.343 257.347 248.779 254.71C249.106 252.292 249.76 249.764 250.741 247.346Z" fill="#483723"/>
<path d="M309.483 228.113C313.951 231.301 318.529 234.598 322.997 237.785C324.414 238.774 322.67 240.752 321.253 239.763C316.785 236.576 312.208 233.279 307.739 230.092C306.323 229.102 308.066 227.124 309.483 228.113Z" fill="#5E452C"/>
<path d="M311.881 224.157C317.112 225.585 322.343 227.014 327.575 228.443C329.209 228.882 328.664 231.52 327.03 231.081C321.798 229.652 316.567 228.223 311.336 226.794C309.81 226.245 310.246 223.717 311.881 224.157Z" fill="#5E452C"/>
<path d="M284.843 211.185C287.67 211.069 289.868 208.664 289.753 205.813C289.638 202.963 287.253 200.746 284.427 200.862C281.6 200.978 279.402 203.383 279.517 206.233C279.632 209.084 282.017 211.3 284.843 211.185Z" fill="#5E452C"/>
<path d="M237.097 199.205C239.744 199.096 241.802 196.845 241.694 194.177C241.586 191.508 239.354 189.433 236.707 189.541C234.061 189.65 232.003 191.901 232.111 194.57C232.219 197.238 234.451 199.314 237.097 199.205Z" fill="#5E452C"/>
<path d="M262.729 200.857C263.274 202.285 263.71 203.714 263.819 205.033C263.819 205.692 263.71 206.352 263.383 206.572C263.056 206.901 262.729 206.791 262.075 206.572C260.985 206.132 259.896 205.143 258.915 204.154C257.934 203.165 256.953 202.066 256.081 200.967L255.427 200.197L254.664 200.747C253.684 201.406 252.703 202.066 251.613 202.505C250.523 202.945 249.433 203.275 248.561 203.165C248.125 203.055 247.907 202.835 247.798 202.505C247.689 202.066 247.907 201.516 248.125 200.967C248.561 199.867 249.324 198.878 250.087 197.779C248.997 198.549 248.125 199.318 247.362 200.417C247.036 200.967 246.6 201.626 246.6 202.505C246.6 202.725 246.6 202.945 246.709 203.165C246.818 203.384 246.927 203.604 247.036 203.824C247.362 204.154 247.689 204.374 248.125 204.593C249.76 205.143 251.177 204.703 252.376 204.264C253.684 203.824 254.773 203.165 255.863 202.395L254.446 202.175C255.427 203.384 256.408 204.483 257.498 205.582C258.043 206.132 258.697 206.572 259.351 207.011C260.005 207.451 260.659 207.89 261.53 208.11C261.966 208.22 262.402 208.33 262.947 208.22C263.492 208.11 263.928 207.89 264.364 207.451C264.582 207.231 264.691 207.011 264.8 206.791C264.909 206.572 264.909 206.352 265.018 206.132C265.127 205.692 265.018 205.253 264.909 204.813C264.473 203.275 263.71 201.956 262.729 200.857Z" fill="#5E452C"/>
<path d="M303.785 220.28C304.229 217.647 300.548 214.82 295.564 213.965C290.579 213.111 286.178 214.552 285.734 217.186C285.29 219.819 288.972 222.646 293.956 223.5C298.941 224.355 303.342 222.913 303.785 220.28Z" fill="#ED8585"/>
<path d="M232.868 203.055C232.759 204.923 230.47 206.462 227.418 207.012C227.309 206.462 227.2 205.913 227.091 205.363C226.873 203.275 226.982 200.747 227.418 198.109C230.797 199.099 233.086 201.077 232.868 203.055Z" fill="#ED8585"/>
<path d="M253.139 197.01C253.03 197.779 255.645 199.428 255.645 199.428C255.645 199.428 258.697 198.878 258.915 198.219C259.024 197.45 256.19 196.9 256.19 196.9C256.19 196.9 253.248 196.351 253.139 197.01Z" fill="#5E452C"/>
<path d="M298.367 191.625C297.822 192.944 286.052 187.009 287.033 184.591C288.013 182.283 299.893 188.218 298.367 191.625Z" fill="#5E452C"/>
<path d="M245.51 174.81C245.837 175.909 235.701 178.217 235.047 176.238C234.611 174.26 244.747 171.842 245.51 174.81Z" fill="#5E452C"/>
<path d="M322.125 216.024C322.125 216.024 345.775 214.375 346.429 210.748C347.192 206.352 325.177 190.855 325.177 190.855C325.177 190.855 325.177 207.781 322.125 216.024Z" fill="#ED8585"/>
<path d="M346.428 210.748C346.211 209.539 345.339 208.55 344.576 207.671C343.813 206.792 342.941 205.913 341.96 205.033C340.216 203.385 338.364 201.736 336.402 200.198C334.549 198.659 332.588 197.12 330.626 195.692C328.664 194.153 326.702 192.724 324.741 191.295L325.504 190.856C325.504 192.944 325.504 195.142 325.286 197.23C325.177 199.318 324.959 201.516 324.632 203.605C324.305 205.693 323.978 207.781 323.542 209.869C323.106 211.957 322.561 214.046 322.016 216.024C322.888 211.847 323.433 207.671 323.869 203.495C324.087 201.407 324.305 199.318 324.414 197.23C324.523 195.142 324.523 193.054 324.523 190.966V189.977L325.395 190.526C327.356 191.955 329.318 193.493 331.28 194.922C333.241 196.461 335.094 198 336.947 199.648C338.8 201.297 340.543 202.945 342.287 204.704C343.159 205.583 343.922 206.572 344.685 207.561C345.557 208.44 346.32 209.43 346.428 210.748Z" fill="#483723"/>
<path opacity="0.1" d="M269.595 233.938C267.96 233.718 259.786 232.729 251.286 229.872C249.542 228.333 230.579 220.969 227.527 207.012C227.418 206.462 227.309 205.912 227.2 205.363C226.982 203.275 227.091 200.747 227.527 198.109C229.925 181.624 243.221 157.665 243.221 157.665C243.221 157.665 251.613 158.434 263.71 160.192C252.92 174.04 238.426 195.691 241.695 209.539C246.381 229.872 266.87 233.608 269.595 233.938Z" fill="#5E452C"/>
<path d="M335.312 181.624C335.312 181.624 340.98 156.456 320.164 134.804C304.034 117.989 276.679 120.297 261.966 130.408C252.158 137.112 247.798 149.202 247.036 149.861C246.273 150.411 240.606 149.861 239.407 150.85C238.208 151.84 235.265 157.994 235.81 158.983C236.464 159.863 280.058 157.335 335.312 181.624Z" fill="#F9BA2B"/>
<path d="M319.619 134.365C319.619 134.365 318.856 127.331 317.875 126.342C317.112 125.243 302.944 114.252 288.559 117.659C286.815 118.099 282.564 125.243 282.564 125.243L319.619 134.365Z" fill="#F9BA2B"/>
<path opacity="0.2" d="M284.09 122.825C283.109 123.594 282.346 124.583 281.474 125.572C280.603 126.561 279.949 127.661 279.186 128.65C277.769 130.848 276.57 133.156 275.698 135.574L274.608 138.541L276.57 136.123C278.859 133.266 281.147 130.408 283.436 127.661C284.635 126.342 285.834 124.913 287.142 123.814C287.795 123.264 288.667 123.154 289.539 123.045C290.411 123.045 291.283 123.045 292.155 123.374C291.283 122.935 290.411 122.825 289.43 122.715C288.994 122.715 288.449 122.715 288.013 122.825C287.577 122.935 287.033 123.045 286.706 123.374C285.18 124.473 283.872 125.792 282.673 127.111C280.167 129.749 277.878 132.606 275.589 135.464L276.461 135.903C276.897 134.694 277.333 133.595 277.878 132.386C278.423 131.287 278.968 130.078 279.622 128.979C280.276 127.88 280.929 126.781 281.583 125.792C282.564 124.803 283.327 123.814 284.09 122.825Z" fill="#5E452C"/>
<path opacity="0.2" d="M317.875 132.716C316.35 131.397 314.606 130.298 312.862 129.309C311.118 128.32 309.266 127.441 307.413 126.671C305.56 125.902 303.598 125.243 301.637 124.803C299.675 124.254 297.604 124.034 295.643 123.924C297.604 124.473 299.457 125.023 301.419 125.682C303.271 126.342 305.233 127.001 307.086 127.77C308.939 128.54 310.791 129.309 312.644 130.078C314.279 130.848 316.132 131.727 317.875 132.716Z" fill="#5E452C"/>
<path opacity="0.2" d="M250.741 150.191C254.12 150.521 257.498 150.85 260.877 151.29C264.255 151.73 267.634 152.169 270.903 152.719C277.551 153.818 284.308 154.917 290.847 156.565C297.495 158.104 304.034 159.862 310.355 162.061C311.99 162.61 313.516 163.27 315.151 163.819L317.548 164.698L319.837 165.687L322.126 166.677L323.324 167.226L324.414 167.776L328.883 170.193C323.106 166.457 316.894 163.599 310.573 161.181L305.778 159.533C304.143 158.983 302.509 158.544 300.874 158.104L298.476 157.335L295.969 156.675C294.335 156.236 292.7 155.796 291.065 155.466C284.417 153.928 277.769 152.829 271.012 151.839C264.364 151.07 257.607 150.411 250.741 150.191Z" fill="#5E452C"/>
<path d="M310.9 258.996C309.592 259.765 308.066 260.425 306.759 260.864C303.489 261.853 299.239 262.623 296.187 260.864C294.988 260.095 294.117 258.996 293.354 257.897C291.61 255.699 289.866 253.94 288.013 251.962C283 246.467 287.251 240.862 292.809 238.334C294.117 240.972 296.841 245.148 302.072 249.105C305.887 252.072 308.938 255.479 310.9 258.996Z" fill="#EFB065"/>
<path d="M264.255 281.197C263.928 279.109 264.364 276.911 265.453 275.042C266.543 273.174 268.396 271.855 270.467 271.086L271.992 270.646C272.537 270.536 273.082 270.426 273.518 270.316C274.608 270.097 275.589 270.097 276.679 269.877C278.749 269.657 280.82 269.437 282.891 269.327C287.032 268.998 291.174 268.778 295.206 268.118C297.168 267.789 299.347 267.349 300.546 265.591C301.745 263.942 302.29 261.854 302.399 259.766C302.508 261.854 302.181 264.052 300.982 265.92C300.655 266.36 300.328 266.8 299.892 267.129C299.674 267.239 299.456 267.459 299.238 267.569L298.476 267.899C297.495 268.338 296.405 268.558 295.424 268.778C293.353 269.217 291.283 269.437 289.212 269.657L283 270.207C280.929 270.316 278.858 270.536 276.788 270.756C274.717 270.976 272.646 271.196 270.794 271.745C268.832 272.405 267.088 273.504 265.998 275.152C264.8 277.021 264.255 279.109 264.255 281.197Z" fill="#483723"/>
<path d="M262.075 272.624C260.767 273.174 259.46 274.163 258.152 273.833C259.133 271.525 261.312 257.347 262.62 248.885C266.871 251.742 271.23 256.688 271.557 261.853C271.775 268.008 266.98 270.646 262.075 272.624Z" fill="#EFB065"/>
<path d="M251.722 278.559C252.049 278.01 252.485 277.46 253.029 277.131C253.574 276.691 254.119 276.361 254.664 276.032L256.299 275.042C256.844 274.713 257.389 274.383 257.825 273.943L257.934 273.833L257.825 273.943C257.716 274.053 257.825 273.943 257.825 273.833C257.825 273.724 257.825 273.724 257.934 273.614C257.934 273.504 258.043 273.284 258.043 273.174C258.152 272.844 258.152 272.515 258.261 272.185L258.588 270.207L259.242 266.25L260.549 258.337C260.985 255.699 261.421 253.062 261.966 250.424C262.402 247.786 262.947 245.148 263.492 242.511C263.056 247.896 262.402 253.281 261.639 258.557C261.203 261.194 260.767 263.832 260.331 266.58C260.113 267.899 259.786 269.217 259.569 270.536C259.46 271.196 259.242 271.855 259.133 272.515C259.024 272.844 258.915 273.174 258.806 273.504C258.806 273.614 258.697 273.833 258.588 274.053C258.588 274.163 258.479 274.273 258.479 274.273C258.479 274.383 258.479 274.383 258.261 274.603C257.716 275.042 257.171 275.372 256.626 275.702C256.081 276.032 255.536 276.251 254.882 276.581C254.337 276.911 253.792 277.131 253.247 277.46C252.594 277.57 252.158 278.01 251.722 278.559Z" fill="#483723"/>
</g>
<g clip-path="url(#clip3_2661_7146)">
<path d="M241.821 288.424L170.058 278.094C167.421 277.764 165.333 275.456 165.223 272.819C164.454 263.258 165.772 241.279 187.642 226.882C189.84 225.454 192.917 225.673 194.785 227.542L246.546 278.753C250.502 282.6 247.206 289.194 241.821 288.424Z" fill="#E8E9EB"/>
</g>
<path d="M154.45 286.554C153.131 285.785 152.472 283.477 152.472 279.96C152.472 272.048 155.989 258.091 163.132 243.474C173.462 222.374 187.309 208.308 191.815 210.176C203.024 214.792 191.485 231.166 181.155 252.266C170.825 273.366 165.66 292.818 154.45 286.554Z" fill="#D53727"/>
<path d="M157.967 288.313C153.572 286.115 156.319 266.333 166.649 245.233C176.98 224.133 190.936 209.737 195.332 211.935C199.728 214.133 195.003 232.925 184.672 254.025C174.342 275.125 162.363 290.401 157.967 288.313Z" fill="#FF6C1A"/>
<g opacity="0.4">
<g opacity="0.4">
<path opacity="0.4" d="M169.835 278.094L167.197 260.071L158.296 267.105C155.329 275.127 154.449 286.556 157.966 288.315L169.835 278.094Z" fill="#FF6C1A"/>
</g>
<g opacity="0.46">
<path opacity="0.46" d="M190.168 234.686L192.146 233.697L192.585 227.432L194.563 211.607C191.706 211.388 186.541 215.564 180.826 222.707L182.255 232.378L183.024 238.202L190.168 234.686Z" fill="#FF6C1A"/>
</g>
</g>
<mask id="mask0_2661_7146" style="mask-type:alpha" maskUnits="userSpaceOnUse" x="164" y="225" width="85" height="64">
<path d="M241.487 288.431L169.725 278.1C167.087 277.771 164.999 275.463 164.89 272.825C164.23 263.264 165.549 241.285 187.418 226.779C189.616 225.35 192.693 225.57 194.562 227.438L246.433 278.65C250.169 282.606 246.982 289.2 241.487 288.431Z" fill="#E8E9EB"/>
</mask>
<g mask="url(#mask0_2661_7146)">
<path d="M222.915 314.916C219.069 285.463 230.718 261.506 256.324 246.56C260.61 252.604 264.896 258.649 269.072 264.693C250.609 275.902 242.477 292.387 245.004 313.927C237.641 314.256 230.278 314.586 222.915 314.916Z" fill="#F75C00"/>
<path d="M190.608 316.455C184.674 275.794 201.927 240.517 237.753 220.186C242.039 226.23 246.325 232.275 250.501 238.319C221.818 254.913 208.301 282.607 212.807 315.466C205.334 315.796 197.971 316.126 190.608 316.455Z" fill="#F75C00"/>
<path d="M158.3 317.993C150.388 265.902 173.026 219.526 219.073 193.81C223.359 199.854 227.645 205.899 231.821 211.943C192.808 234.032 173.905 272.716 180.499 317.004C173.026 317.224 165.663 317.553 158.3 317.993Z" fill="#F75C00"/>
</g>
<path opacity="0.31" d="M169.726 278.099L241.488 288.429C244.126 288.869 246.323 287.44 247.312 285.352L169.176 260.735C168.517 260.625 167.857 260.405 167.308 260.076C166.868 262.164 164.89 268.648 164.89 272.274C164.89 275.022 166.868 277.659 169.726 278.099Z" fill="#DC2F00"/>
<path opacity="0.31" d="M180.167 235.016C180.167 235.016 203.355 278.754 241.489 288.425L196.981 282.051L169.617 278.095C169.617 278.095 164.672 277.436 164.782 272.161C165.001 266.886 170.166 244.796 180.167 235.016Z" fill="#DC2F00"/>
<g clip-path="url(#clip4_2661_7146)">
<path d="M413.338 268.113C412.896 265.595 406.935 264.171 397.883 264.062L392.695 254.425L387.948 245.445L377.572 226.063L372.825 217.193L365.318 202.957C365.208 202.628 364.987 202.409 364.766 202.19C364.656 202.081 364.656 202.081 364.546 201.971C364.435 201.862 364.325 201.643 364.104 201.533C363.994 201.424 363.883 201.314 363.773 201.314C363.663 201.205 363.552 201.095 363.442 201.095C363.331 200.986 363.111 200.986 363 200.876C362.89 200.767 362.779 200.767 362.669 200.657C362.448 200.548 362.338 200.548 362.117 200.438C362.007 200.438 361.896 200.329 361.786 200.329C361.565 200.329 361.455 200.219 361.234 200.219C361.124 200.219 361.013 200.219 361.013 200.219C360.792 200.219 360.572 200.219 360.461 200.219C360.351 200.219 360.351 200.219 360.24 200.219C360.02 200.219 359.799 200.219 359.689 200.219C359.578 200.219 359.578 200.219 359.468 200.219C359.357 200.219 359.357 200.219 359.247 200.219H359.137C356.929 200.657 355.052 202.19 354.611 204.709L351.74 221.025L349.974 230.772L346.111 252.454L344.344 262.419L342.468 273.041C333.857 275.998 328.559 279.283 329 281.802C329 282.021 329.111 282.349 329.331 282.568C329.331 282.678 329.442 282.678 329.442 282.787C329.331 283.663 329.331 284.539 329.663 285.525C330.766 290.124 350.305 292.971 373.598 289.139C396.89 285.415 414.442 276.545 414 271.837C413.89 270.851 413.669 269.865 413.338 269.099C413.338 268.77 413.448 268.442 413.338 268.113Z" fill="black" fill-opacity="0.12"/>
</g>
<g clip-path="url(#clip5_2661_7146)">
<path d="M364.838 203.965L386.784 273.124C387.649 275.657 386.568 278.52 384.189 279.842C376.081 284.577 355.973 293.167 333.811 279.842C331.541 278.52 330.46 275.657 331.325 273.124L354.135 203.855C355.865 198.679 363.108 198.679 364.838 203.965Z" fill="#E8E9EB"/>
</g>
<path d="M401.296 283.532C400.967 288.478 382.284 294.632 358.766 294.632C335.249 294.632 316.566 288.478 316.237 283.532C315.467 271.334 335.249 274.631 358.766 274.631C382.284 274.631 402.066 270.784 401.296 283.532Z" fill="#D53727"/>
<path d="M401.297 279.686C401.297 284.631 382.285 290.785 358.767 290.785C335.249 290.785 316.237 284.631 316.237 279.686C316.237 274.74 335.249 270.784 358.767 270.784C382.285 270.784 401.297 274.74 401.297 279.686Z" fill="#FF6C1A"/>
<g opacity="0.4">
<path opacity="0.4" d="M383.605 274.303L378.22 282.435L389.429 286.831C394.814 285.292 398.551 283.424 400.309 281.556L383.605 274.303Z" fill="#FF6C1A"/>
<path opacity="0.46" d="M338.986 274.303L337.227 272.984L331.403 275.292L316.347 280.567C316.347 280.677 316.457 280.677 316.457 280.787C317.776 283.315 323.71 286.172 332.392 288.15L340.414 282.545L345.36 279.358L338.986 274.303Z" fill="#FF6C1A"/>
</g>
<mask id="mask1_2661_7146" style="mask-type:alpha" maskUnits="userSpaceOnUse" x="330" y="200" width="58" height="88">
<path d="M364.88 204.628L387.189 273.643C388.068 276.171 386.969 279.028 384.551 280.347C376.309 285.072 355.868 293.644 333.339 280.347C331.032 279.028 329.933 276.171 330.812 273.643L354.11 204.518C355.868 199.353 363.231 199.353 364.88 204.628Z" fill="#E8E9EB"/>
</mask>
<g mask="url(#mask1_2661_7146)">
<path d="M396.858 209.683C369.934 225.728 347.735 225.728 320.7 209.683C325.096 201.88 327.184 198.034 331.47 190.231C351.911 201.331 366.087 201.221 386.198 190.231C390.484 198.034 392.572 201.88 396.858 209.683Z" fill="#F75C00"/>
<path d="M412.465 238.038C376.529 260.786 341.253 260.786 305.316 238.038C309.602 230.235 311.69 226.389 315.976 218.586C345.539 236.609 372.243 236.609 401.805 218.586C405.982 226.389 408.179 230.235 412.465 238.038Z" fill="#F75C00"/>
<path d="M427.962 266.389C382.355 295.841 335.209 295.841 289.712 266.389C293.998 258.586 296.086 254.74 300.372 246.937C339.275 271.884 378.398 271.884 417.302 246.937C421.588 254.74 423.676 258.586 427.962 266.389Z" fill="#F75C00"/>
<path opacity="0.31" d="M374.908 236.387L388.206 277.488L389.305 285.731C389.305 285.731 350.072 293.314 336.005 284.412C336.005 284.412 371.062 273.972 374.908 236.387Z" fill="#DC2F00"/>
</g>
<path opacity="0.31" d="M387.186 273.642L364.877 204.627C363.997 202.099 361.799 200.78 359.602 200.67L378.174 280.455C378.284 281.115 378.394 281.774 378.394 282.433C380.482 281.884 382.35 281.224 383.999 280.565C386.636 279.466 388.065 276.279 387.186 273.642Z" fill="#DC2F00"/>
<g clip-path="url(#clip6_2661_7146)">
<path d="M362.265 312.104L434.028 301.774C436.665 301.444 438.753 299.137 438.863 296.499C439.632 286.938 438.314 264.959 416.444 250.562C414.246 249.134 411.169 249.354 409.301 251.222L357.54 302.434C353.583 306.28 356.88 312.874 362.265 312.104Z" fill="#E8E9EB"/>
</g>
<path d="M449.639 310.236C450.958 309.466 451.617 307.158 451.617 303.642C451.617 295.729 448.101 281.772 440.957 267.156C430.627 246.056 416.78 231.989 412.274 233.858C401.065 238.473 412.604 254.848 422.934 275.948C433.265 297.048 438.43 316.5 449.639 310.236Z" fill="#D53727"/>
<path d="M446.122 311.994C450.518 309.796 447.77 290.015 437.44 268.915C427.11 247.815 413.153 233.418 408.757 235.616C404.361 237.814 409.087 256.607 419.417 277.707C429.747 298.807 441.726 314.082 446.122 311.994Z" fill="#FF6C1A"/>
<g opacity="0.4">
<g opacity="0.4">
<path opacity="0.4" d="M434.25 301.77L436.888 283.747L445.79 290.78C448.757 298.803 449.636 310.232 446.119 311.99L434.25 301.77Z" fill="#FF6C1A"/>
</g>
<g opacity="0.46">
<path opacity="0.46" d="M413.922 258.361L411.944 257.372L411.504 251.108L409.526 235.283C412.383 235.063 417.548 239.239 423.263 246.383L421.834 256.054L421.065 261.878L413.922 258.361Z" fill="#FF6C1A"/>
</g>
</g>
<mask id="mask2_2661_7146" style="mask-type:alpha" maskUnits="userSpaceOnUse" x="356" y="249" width="84" height="64">
<path d="M362.605 312.104L434.367 301.774C437.005 301.444 439.093 299.136 439.203 296.499C439.862 286.938 438.543 264.958 416.674 250.452C414.476 249.023 411.399 249.243 409.531 251.111L357.66 302.323C353.923 306.279 357.11 312.873 362.605 312.104Z" fill="#E8E9EB"/>
</mask>
<g mask="url(#mask2_2661_7146)">
<path d="M381.177 338.589C385.023 309.137 373.374 285.179 347.768 270.233C343.483 276.278 339.197 282.322 335.021 288.366C353.483 299.576 361.615 316.06 359.088 337.6C366.451 337.93 373.814 338.259 381.177 338.589Z" fill="#F75C00"/>
<path d="M413.484 340.129C419.419 299.467 402.165 264.19 366.339 243.859C362.053 249.904 357.767 255.948 353.591 261.992C382.274 278.587 395.791 306.281 391.285 339.14C398.758 339.469 406.121 339.799 413.484 340.129Z" fill="#F75C00"/>
<path d="M445.792 341.666C453.705 289.575 431.066 243.199 385.019 217.483C380.734 223.528 376.448 229.572 372.271 235.616C411.285 257.705 430.187 296.389 423.593 340.677C431.066 340.897 438.429 341.227 445.792 341.666Z" fill="#F75C00"/>
</g>
<path opacity="0.31" d="M434.364 301.775L362.601 312.106C359.964 312.545 357.766 311.117 356.777 309.029L434.913 284.412C435.573 284.302 436.232 284.082 436.781 283.752C437.221 285.84 439.199 292.324 439.199 295.951C439.199 298.698 437.221 301.336 434.364 301.775Z" fill="#DC2F00"/>
<path opacity="0.31" d="M423.919 258.694C423.919 258.694 400.731 302.433 362.597 312.104L407.105 305.73L434.469 301.774C434.469 301.774 439.414 301.114 439.304 295.839C439.085 290.564 433.919 268.475 423.919 258.694Z" fill="#DC2F00"/>
<defs>
<clipPath id="clip0_2661_7146">
<rect width="134.074" height="121.765" fill="white" transform="translate(31.5859 139.678)"/>
</clipPath>
<clipPath id="clip1_2661_7146">
<rect width="117.699" height="123.524" fill="white" transform="translate(19.4961 140.777)"/>
</clipPath>
<clipPath id="clip2_2661_7146">
<rect width="148" height="172" fill="white" transform="translate(209 117)"/>
</clipPath>
<clipPath id="clip3_2661_7146">
<rect width="83.3015" height="62.641" fill="white" transform="matrix(-1 0 0 1 248.305 225.893)"/>
</clipPath>
<clipPath id="clip4_2661_7146">
<rect width="85" height="91" fill="white" transform="translate(329 200)"/>
</clipPath>
<clipPath id="clip5_2661_7146">
<rect width="56" height="87" fill="white" transform="translate(331 200)"/>
</clipPath>
<clipPath id="clip6_2661_7146">
<rect width="83.3015" height="62.641" fill="white" transform="translate(355.781 249.573)"/>
</clipPath>
</defs>
</svg>
