<svg width="24" height="24" viewBox="0 0 24 24" fill="none" xmlns="http://www.w3.org/2000/svg">
<path d="M20.25 4.5H3.75002C3.35236 4.50052 2.97113 4.65872 2.68993 4.93991C2.40874 5.2211 2.25054 5.60233 2.25002 6V20.8894C2.2484 21.1755 2.32936 21.456 2.48317 21.6973C2.63699 21.9385 2.85714 22.1303 3.11721 22.2495C3.31672 22.3428 3.5342 22.3912 3.75442 22.3916C4.1065 22.3911 4.44699 22.2657 4.71536 22.0378L7.69192 19.5352L20.25 19.5C20.6477 19.4995 21.0289 19.3413 21.3101 19.0601C21.5913 18.7789 21.7495 18.3977 21.75 18V6C21.7495 5.60233 21.5913 5.2211 21.3101 4.93991C21.0289 4.65872 20.6477 4.50052 20.25 4.5ZM15 14.25H9.00002C8.80111 14.25 8.61035 14.171 8.46969 14.0303C8.32904 13.8897 8.25002 13.6989 8.25002 13.5C8.25002 13.3011 8.32904 13.1103 8.46969 12.9697C8.61035 12.829 8.80111 12.75 9.00002 12.75H15C15.1989 12.75 15.3897 12.829 15.5304 12.9697C15.671 13.1103 15.75 13.3011 15.75 13.5C15.75 13.6989 15.671 13.8897 15.5304 14.0303C15.3897 14.171 15.1989 14.25 15 14.25ZM15 11.25H9.00002C8.80111 11.25 8.61035 11.171 8.46969 11.0303C8.32904 10.8897 8.25002 10.6989 8.25002 10.5C8.25002 10.3011 8.32904 10.1103 8.46969 9.96967C8.61035 9.82902 8.80111 9.75 9.00002 9.75H15C15.1989 9.75 15.3897 9.82902 15.5304 9.96967C15.671 10.1103 15.75 10.3011 15.75 10.5C15.75 10.6989 15.671 10.8897 15.5304 11.0303C15.3897 11.171 15.1989 11.25 15 11.25Z" fill="#999999"/>
</svg>
