<svg width="25" height="24" viewBox="0 0 25 24" fill="none" xmlns="http://www.w3.org/2000/svg">
<path d="M7.56106 18.876L4.48261 21.4638C4.37328 21.5557 4.23999 21.6145 4.0984 21.6332C3.95681 21.652 3.81281 21.6299 3.68334 21.5696C3.55387 21.5093 3.44431 21.4133 3.36755 21.2928C3.29078 21.1724 3.25 21.0325 3.25 20.8897V6C3.25 5.80109 3.32902 5.61032 3.46967 5.46967C3.61032 5.32902 3.80109 5.25 4 5.25H20.5C20.6989 5.25 20.8897 5.32902 21.0303 5.46967C21.171 5.61032 21.25 5.80109 21.25 6V18C21.25 18.1989 21.171 18.3897 21.0303 18.5303C20.8897 18.671 20.6989 18.75 20.5 18.75H7.90665L7.56106 18.876Z" stroke="black" stroke-width="1.5" stroke-linecap="round" stroke-linejoin="round"/>
<path d="M9.25 10.125H15.25" stroke="black" stroke-width="1.5" stroke-linecap="round" stroke-linejoin="round"/>
<path d="M9.25 13.875H15.25" stroke="black" stroke-width="1.5" stroke-linecap="round" stroke-linejoin="round"/>
</svg>
