<svg id="Layer_1" data-name="Layer 1" xmlns="http://www.w3.org/2000/svg" viewBox="0 0 115 115"><defs><style>.cls-1{fill:none;}.cls-2{fill:#424c59;}.cls-3{fill:#bcbcbc;}.cls-4{fill:#d8d8d8;}.cls-5{fill:#f05a94;}.cls-6{fill:#f47fac;}.cls-7{fill:#d8a32e;}.cls-8{fill:#fcc63d;}</style></defs><rect class="cls-1" width="115" height="115"/><path class="cls-2" d="M13.78,15.5a1.76,1.76,0,0,1-1.23-.5L.51,3A1.73,1.73,0,0,1,3,.51L15,12.56A1.73,1.73,0,0,1,15,15,1.75,1.75,0,0,1,13.78,15.5Z" transform="translate(0)"/><path class="cls-2" d="M113.27,115a1.72,1.72,0,0,1-1.22-.51L95.77,98.21a1.73,1.73,0,0,1,2.44-2.44l16.29,16.28a1.73,1.73,0,0,1-1.23,3Z" transform="translate(0)"/><path class="cls-3" d="M59,51.63,47,39.7l5.62-5.62L64.57,46A4,4,0,1,1,59,51.63Z" transform="translate(0)"/><path class="cls-3" d="M51.63,64.57a4,4,0,0,1-5.62,0L34.08,52.65,39.7,47,51.63,59a4,4,0,0,1,1,3.95A4,4,0,0,1,51.63,64.57Z" transform="translate(0)"/><path class="cls-4" d="M52.62,62.91a3.95,3.95,0,0,1-3.95-1L36.74,50l3-2.95L51.63,59A4,4,0,0,1,52.62,62.91Z" transform="translate(0)"/><path class="cls-4" d="M65.57,50a3.71,3.71,0,0,1-1.14.17A4,4,0,0,1,61.62,49L49.69,37l3-3L64.57,46A4,4,0,0,1,65.57,50Z" transform="translate(0)"/><path class="cls-4" d="M8.44,15.52,21.58,28.67l7.09-7.09L15.52,8.44a2.14,2.14,0,0,0-3,0L8.44,12.5A2.14,2.14,0,0,0,8.44,15.52Z" transform="translate(0)"/><path class="cls-3" d="M8.44,15.52,21.58,28.67l3.55-3.54L10.47,10.47l-2,2A2.14,2.14,0,0,0,8.44,15.52Z" transform="translate(0)"/><path class="cls-5" d="M52.58,28.57l-27,21L14.15,38.16a9.75,9.75,0,0,1,0-13.78L24.37,14.16a9.75,9.75,0,0,1,13.79,0Z" transform="translate(0)"/><path class="cls-5" d="M55.88,32.48l-23.4,23.4a4.67,4.67,0,0,1-6.6-6.6l23.4-23.4a4.67,4.67,0,0,1,6.6,6.6Z" transform="translate(0)"/><path class="cls-6" d="M55.88,32.48,38.64,49.72a4.66,4.66,0,1,1-6.59-6.6L49.28,25.88a4.67,4.67,0,0,1,6.6,6.6Z" transform="translate(0)"/><path class="cls-6" d="M47.07,23.07a4.2,4.2,0,0,0-.32.29L32.61,37.5a4.19,4.19,0,0,1-5.93,0l-5.93-5.93a9.75,9.75,0,0,1,0-13.79l3.62-3.63a9.77,9.77,0,0,1,13.79,0Z" transform="translate(0)"/><path class="cls-4" d="M87.53,94.62l10.33,10.32a2.12,2.12,0,0,0,3,0l4.06-4.06a2.12,2.12,0,0,0,0-3L94.62,87.53Z" transform="translate(0)"/><path class="cls-3" d="M87.53,94.62l10.33,10.32a2.12,2.12,0,0,0,3,0l2-2L91.07,91.07Z" transform="translate(0)"/><path class="cls-7" d="M101.19,87,87,101.19a12.44,12.44,0,0,1-17.61,0l-17.05-17,35-28.49,13.77,13.78A12.44,12.44,0,0,1,101.19,87Z" transform="translate(0)"/><path class="cls-7" d="M88.08,55,55,88.08a4.66,4.66,0,0,1-6.59-6.6L81.48,48.4A4.66,4.66,0,0,1,88.08,55Z" transform="translate(0)"/><path class="cls-8" d="M88.08,55,62.62,80.44a4.65,4.65,0,0,1-6.59,0l0,0a2.72,2.72,0,0,1,.05-3.83L82.24,50.4A6.1,6.1,0,0,1,86,48.6a4.46,4.46,0,0,1,2.74.6A4.67,4.67,0,0,1,88.08,55Z" transform="translate(0)"/><path class="cls-8" d="M101.19,87,92.9,95.33a12.46,12.46,0,0,1-17.61,0L61.52,81.55l25.9-25.9,13.77,13.78A12.44,12.44,0,0,1,101.19,87Z" transform="translate(0)"/></svg>