<svg width="151" height="99" viewBox="0 0 151 99" fill="none" xmlns="http://www.w3.org/2000/svg">
<path d="M103.453 98.1503C129.364 98.1503 150.368 77.1458 150.368 51.2353C150.368 25.3249 129.364 4.32031 103.453 4.32031C77.5427 4.32031 56.5381 25.3249 56.5381 51.2353C56.5381 77.1458 77.5427 98.1503 103.453 98.1503Z" fill="#fedfe9"/>
<mask id="path-2-inside-1_8335_44697" fill="white">
<path d="M142.611 84.7275H19.294C18.8307 84.7275 18.4551 85.1031 18.4551 85.5664C18.4551 86.0297 18.8307 86.4053 19.294 86.4053H142.611C143.074 86.4053 143.45 86.0297 143.45 85.5664C143.45 85.1031 143.074 84.7275 142.611 84.7275Z"/>
</mask>
<path d="M142.611 84.7275H19.294C18.8307 84.7275 18.4551 85.1031 18.4551 85.5664C18.4551 86.0297 18.8307 86.4053 19.294 86.4053H142.611C143.074 86.4053 143.45 86.0297 143.45 85.5664C143.45 85.1031 143.074 84.7275 142.611 84.7275Z" fill="#8294C3"/>
<path d="M19.294 86.7275H142.611V82.7275H19.294V86.7275ZM142.611 84.4053H19.294V88.4053H142.611V84.4053ZM19.294 84.4053C19.9352 84.4053 20.4551 84.9252 20.4551 85.5664H16.4551C16.4551 87.1343 17.7261 88.4053 19.294 88.4053V84.4053ZM141.45 85.5664C141.45 84.9252 141.969 84.4053 142.611 84.4053V88.4053C144.179 88.4053 145.45 87.1343 145.45 85.5664H141.45ZM142.611 86.7275C141.969 86.7275 141.45 86.2077 141.45 85.5664H145.45C145.45 83.9985 144.178 82.7275 142.611 82.7275V86.7275ZM19.294 82.7275C17.7261 82.7275 16.4551 83.9986 16.4551 85.5664H20.4551C20.4551 86.2077 19.9352 86.7275 19.294 86.7275V82.7275Z" fill="#A6B1C9" fill-opacity="0.15" mask="url(#path-2-inside-1_8335_44697)"/>
<path fill-rule="evenodd" clip-rule="evenodd" d="M119.122 65.4336C119.122 64.9703 119.498 64.5947 119.961 64.5947H134.222C134.685 64.5947 135.061 64.9703 135.061 65.4336C135.061 65.8969 134.685 66.2725 134.222 66.2725H119.961C119.498 66.2725 119.122 65.8969 119.122 65.4336Z" fill="#99AED3"/>
<path fill-rule="evenodd" clip-rule="evenodd" d="M124.994 71.3057C124.994 70.8424 125.37 70.4668 125.833 70.4668H150.161C150.624 70.4668 151 70.8424 151 71.3057C151 71.769 150.624 72.1446 150.161 72.1446H125.833C125.37 72.1446 124.994 71.769 124.994 71.3057Z" fill="#99AED3"/>
<g clip-path="url(#clip0_8335_44697)">
<path fill-rule="evenodd" clip-rule="evenodd" d="M-3 27.8389C-3 27.3756 -2.62442 27 -2.16111 27H12.1C12.5633 27 12.9389 27.3756 12.9389 27.8389C12.9389 28.3022 12.5633 28.6778 12.1 28.6778H-2.16111C-2.62442 28.6778 -3 28.3022 -3 27.8389Z" fill="#99AED3"/>
<path fill-rule="evenodd" clip-rule="evenodd" d="M2.87207 34.5498C2.87207 34.0865 3.24765 33.7109 3.71096 33.7109H28.0387C28.502 33.7109 28.8776 34.0865 28.8776 34.5498C28.8776 35.0131 28.502 35.3887 28.0387 35.3887H3.71096C3.24765 35.3887 2.87207 35.0131 2.87207 34.5498Z" fill="#99AED3"/>
<g clip-path="url(#clip1_8335_44697)">
<path d="M58.8896 64.6493L100.424 53.5201L102.461 19.5867L42.7549 35.585L58.8896 64.6493Z" fill="#fdd4e3"/>
<path opacity="0.15" d="M65.2862 57.3708L51.8406 33.1504L42.7549 35.585L58.8896 64.6493L100.424 53.5201L100.721 47.8761L65.2862 57.3708Z" fill="#000064"/>
<path d="M64.3609 79.8773C67.2283 79.109 68.9299 76.1617 68.1616 73.2943C67.3933 70.4269 64.446 68.7253 61.5786 69.4936C58.7112 70.2619 57.0096 73.2092 57.7779 76.0766C58.5462 78.944 61.4935 80.6456 64.3609 79.8773Z" fill="#A6B1C9"/>
<path d="M98.1079 70.8353C100.975 70.067 102.677 67.1197 101.909 64.2523C101.14 61.3849 98.193 59.6833 95.3256 60.4516C92.4583 61.2199 90.7566 64.1672 91.5249 67.0346C92.2933 69.902 95.2406 71.6036 98.1079 70.8353Z" fill="#A6B1C9"/>
<path d="M19.0186 19.6865L31.9982 16.2086L58.8893 64.6493L100.424 53.5201L102.461 19.5866L42.7546 35.5849" stroke="#A6B1C9" stroke-width="2" stroke-linecap="round" stroke-linejoin="round"/>
<path d="M64.3609 79.8773C67.2283 79.109 68.9299 76.1617 68.1616 73.2943C67.3933 70.4269 64.446 68.7253 61.5786 69.4936C58.7112 70.2619 57.0096 73.2092 57.7779 76.0766C58.5462 78.944 61.4935 80.6456 64.3609 79.8773Z" stroke="#A6B1C9" stroke-width="2" stroke-linecap="round" stroke-linejoin="round"/>
<path d="M98.1079 70.8353C100.975 70.067 102.677 67.1197 101.909 64.2523C101.14 61.3849 98.193 59.6833 95.3256 60.4516C92.4583 61.2199 90.7566 64.1672 91.5249 67.0346C92.2933 69.902 95.2406 71.6036 98.1079 70.8353Z" stroke="#A6B1C9" stroke-width="2" stroke-linecap="round" stroke-linejoin="round"/>
</g>
</g>
<defs>
<clipPath id="clip0_8335_44697">
<rect width="114.543" height="85.9071" fill="white"/>
</clipPath>
<clipPath id="clip1_8335_44697">
<rect width="86" height="86" fill="white" transform="translate(14.3359 12.5947) rotate(-15)"/>
</clipPath>
</defs>
</svg>
