<svg width="58" height="57" viewBox="0 0 58 57" fill="none" xmlns="http://www.w3.org/2000/svg">
<path d="M57.1415 22.8971C56.7879 19.1564 55.9126 15.7329 54.0707 12.8961C52.2287 10.0593 48.6609 8.5647 45.3716 7.7398C42.0823 6.91489 39.331 7.69351 36.947 10.0961C34.4482 12.613 33.6891 16.4857 32.9872 19.9582C32.2854 23.4307 30.9391 27.9309 28.1045 30.0721C24.8808 32.5114 19.8164 31.1924 15.8157 30.5839C11.8151 29.9754 7.38427 29.3874 4.01032 31.6171C1.24398 33.4466 -0.155576 36.9259 0.013736 40.2309C0.183048 43.536 1.20438 46.592 2.87429 49.4533C5.17229 53.4008 11.9502 58.1882 16.5135 56.7331L36.1919 55.6278C39.9017 53.9303 39.0593 56.5493 45.1135 53.0346C48.6418 50.9928 54.083 43.5796 55.6819 38.4831C57.0855 34.0115 57.5812 27.5606 57.1415 22.8971Z" fill="#F5F5F5"/>
<path d="M18.3077 1.23L16.7648 0.58985C10.6989 -1.45796 3.31219 2.02265 1.05579 7.99346C-1.20061 13.9643 2.04349 21.4316 7.95455 23.8782C13.8656 26.3249 21.4727 23.3436 24.1262 17.5371C26.7797 11.7305 24.0522 4.06543 18.3077 1.23Z" fill="#F5F5F5"/>
<path d="M16.9385 9.35156C15.8856 9.35156 14.8806 9.86202 14.1467 10.6117C13.3969 11.3615 12.8864 12.3664 12.8864 13.4193C12.9822 23.1658 12.7588 32.9282 12.9024 42.6588H11.9931C9.88728 42.6747 8.4196 44.5411 8.3877 46.7105C8.3877 48.8321 9.80751 50.2837 11.2592 50.6666C11.339 50.7304 11.4347 50.7623 11.5464 50.7623C20.6715 50.7304 29.6531 50.7782 38.1082 50.7623C38.172 50.7623 38.2358 50.7463 38.2996 50.7144C39.4801 50.5868 40.5011 50.1082 41.235 49.3585C42.1124 48.4812 42.6069 47.2369 42.6069 45.7853V14.7432H49.3551C49.5944 14.7432 49.8018 14.5359 49.8018 14.2966C49.8018 12.4143 49.3391 11.1541 48.5574 10.3725C47.7917 9.60679 46.7707 9.35156 45.8135 9.35156C36.1938 9.35156 26.5582 9.35156 16.9385 9.35156Z" fill="white" stroke="#E0E0E0"/>
<path d="M16.9385 9.35156C15.8856 9.35156 14.8806 9.86202 14.1467 10.6117C13.3969 11.3615 12.8864 12.3664 12.8864 13.4193C12.9822 23.1658 12.7588 32.9282 12.9024 42.6588H11.9931C9.88728 42.6747 8.4196 44.5411 8.3877 46.7105C8.3877 48.8321 9.80751 50.2837 11.2592 50.6666C11.339 50.7304 11.4347 50.7623 11.5464 50.7623C20.6715 50.7304 29.6531 50.7782 38.1082 50.7623C38.172 50.7623 38.2358 50.7463 38.2996 50.7144C39.4801 50.5868 40.5011 50.1082 41.235 49.3585C42.1124 48.4812 42.6069 47.2369 42.6069 45.7853V14.7432H49.3551C49.5944 14.7432 49.8018 14.5359 49.8018 14.2966C49.8018 12.4143 49.3391 11.1541 48.5574 10.3725C47.7917 9.60679 46.7707 9.35156 45.8135 9.35156C36.1938 9.35156 26.5582 9.35156 16.9385 9.35156ZM16.9385 10.2449H43.1015C41.8093 11.4093 41.6976 13.3714 41.6976 14.8071V45.7853C41.6976 47.0296 41.2828 48.0345 40.5969 48.7364C39.9587 49.3745 39.0654 49.7733 37.9646 49.8371C36.8798 49.7573 35.3962 48.6726 35.3962 46.7105C35.3962 44.6528 37.0074 43.5521 38.1082 43.5521C38.3315 43.5521 38.5389 43.3447 38.5389 43.1054C38.5389 42.8662 38.3315 42.6588 38.1082 42.6588H13.7798C13.8117 32.9282 13.7958 23.1658 13.7958 13.4193C13.7958 12.6536 14.1786 11.856 14.7849 11.2498C15.4549 10.7394 16.2206 10.2608 16.9385 10.2449H16.9385ZM45.7497 10.2449C47.9991 10.3246 48.7648 12.0155 48.8446 13.85H42.6548C42.7505 11.7762 43.7875 10.2608 45.7497 10.2449ZM23.24 16.1151V17.0084H34.0561V16.1151H23.24ZM16.3163 19.7042V20.6135H38.842V19.7042H16.3163ZM16.3163 23.3093V24.2186H38.842V23.3093H16.3163ZM16.3163 26.9144V27.8077H38.842V26.9144H16.3163ZM16.3163 30.5195V31.4128H38.842V30.5195H16.3163ZM16.3163 34.1087V35.0179H28.0259V34.1087H16.3163ZM28.9352 39.5163V40.4255H38.842V39.5163H28.9352ZM11.9931 43.5521H35.9226C35.109 44.254 34.5028 45.3068 34.5028 46.7105C34.5028 48.0824 35.0771 49.1671 35.8748 49.853H11.9931C10.9083 49.853 9.28106 48.7204 9.28106 46.7105C9.31297 45.3865 10.334 43.5521 11.9931 43.5521Z" fill="#999999" stroke="#E0E0E0"/>
</svg>
