<svg width="24" height="24" viewBox="0 0 24 24" fill="none" xmlns="http://www.w3.org/2000/svg">
<path fill-rule="evenodd" clip-rule="evenodd" d="M9.00414 14.9959C8.87481 14.8666 8.69942 14.7939 8.51655 14.7939C8.33368 14.7939 8.15829 14.8666 8.02896 14.9959L2.37931 20.6455V16.8276C2.37931 16.6447 2.30665 16.4693 2.17731 16.3399C2.04798 16.2106 1.87256 16.1379 1.68966 16.1379C1.50675 16.1379 1.33133 16.2106 1.202 16.3399C1.07266 16.4693 1 16.6447 1 16.8276V22.3103C1 22.4933 1.07266 22.6687 1.202 22.798C1.33133 22.9273 1.50675 23 1.68966 23H7.17241C7.35532 23 7.53074 22.9273 7.66007 22.798C7.78941 22.6687 7.86207 22.4933 7.86207 22.3103C7.86207 22.1274 7.78941 21.952 7.66007 21.8227C7.53074 21.6933 7.35532 21.6207 7.17241 21.6207H3.35448L9.00414 15.971C9.13343 15.8417 9.20606 15.6663 9.20606 15.4834C9.20606 15.3006 9.13343 15.1252 9.00414 14.9959V14.9959ZM14.9959 9.00414C15.1252 9.13343 15.3006 9.20606 15.4834 9.20606C15.6663 9.20606 15.8417 9.13343 15.971 9.00414L21.6207 3.35448V7.17241C21.6207 7.35532 21.6933 7.53074 21.8227 7.66007C21.952 7.78941 22.1274 7.86207 22.3103 7.86207C22.4933 7.86207 22.6687 7.78941 22.798 7.66007C22.9273 7.53074 23 7.35532 23 7.17241V1.68966C23 1.50675 22.9273 1.33133 22.798 1.202C22.6687 1.07266 22.4933 1 22.3103 1H16.8276C16.6447 1 16.4693 1.07266 16.3399 1.202C16.2106 1.33133 16.1379 1.50675 16.1379 1.68966C16.1379 1.87256 16.2106 2.04798 16.3399 2.17731C16.4693 2.30665 16.6447 2.37931 16.8276 2.37931H20.6455L14.9959 8.02896C14.8666 8.15829 14.7939 8.33368 14.7939 8.51655C14.7939 8.69942 14.8666 8.87481 14.9959 9.00414V9.00414Z" fill="white" stroke="white"/>
</svg>
