<svg width="115" height="115" viewBox="0 0 115 115" fill="none" xmlns="http://www.w3.org/2000/svg">
<path d="M57.0005 109.999C85.6182 109.999 108.817 86.7186 108.817 58.0002C108.817 29.2818 85.6182 6.00098 57.0005 6.00098C28.3828 6.00098 5.18359 29.2818 5.18359 58.0002C5.18359 86.7186 28.3828 109.999 57.0005 109.999Z" fill="#F46275"/>
<path d="M11.65 58.0008C11.6509 44.7726 16.6761 32.042 25.7023 22.4015C34.7286 12.761 47.0772 6.93553 60.2334 6.1113C59.1632 6.0464 58.0871 6.00032 57 6.00032C50.1799 5.97615 43.4222 7.30329 37.1143 9.90565C30.8065 12.508 25.0726 16.3344 20.2416 21.1653C15.4106 25.9963 11.5774 31.7368 8.96186 38.0576C6.34636 44.3783 5 51.1551 5 57.9992C5 64.8433 6.34636 71.6201 8.96186 77.9409C11.5774 84.2617 15.4106 90.0021 20.2416 94.8331C25.0726 99.664 30.8065 103.49 37.1143 106.093C43.4222 108.695 50.1799 110.022 57 109.998C58.0871 109.998 59.1632 109.953 60.2334 109.887C47.0777 109.063 34.7296 103.238 25.7035 93.5981C16.6773 83.9583 11.6517 71.2285 11.65 58.0008Z" fill="#F43075"/>
<path d="M102.35 58.0008C102.349 44.7726 97.3239 32.042 88.2977 22.4015C79.2714 12.761 66.9229 6.93553 53.7666 6.1113C54.8369 6.0464 55.913 6.00032 57.0001 6.00032C63.8201 5.97615 70.5778 7.30329 76.8857 9.90565C83.1935 12.508 88.9274 16.3344 93.7584 21.1653C98.5895 25.9963 102.423 31.7368 105.038 38.0576C107.654 44.3783 109 51.1551 109 57.9992C109 64.8433 107.654 71.6201 105.038 77.9409C102.423 84.2617 98.5895 90.0021 93.7584 94.8331C88.9274 99.664 83.1935 103.49 76.8857 106.093C70.5778 108.695 63.8201 110.022 57.0001 109.998C55.913 109.998 54.8369 109.953 53.7666 109.887C66.9223 109.063 79.2704 103.238 88.2966 93.5981C97.3228 83.9583 102.348 71.2285 102.35 58.0008Z" fill="#F48875"/>
<path d="M39.7453 57.7799C40.4152 58.4348 41.3152 58.7985 42.2504 58.7924C43.1856 58.7863 44.0807 58.4108 44.7421 57.7472C45.4034 57.0836 45.7777 56.1854 45.7839 55.2469C45.7901 54.3084 45.4278 53.4052 44.7753 52.7329L39.3114 47.2498L44.7753 41.7666C45.4278 41.0943 45.7901 40.1911 45.7839 39.2526C45.7777 38.3141 45.4034 37.4159 44.7421 36.7523C44.0807 36.0887 43.1856 35.7132 42.2504 35.7071C41.3152 35.701 40.4152 36.0647 39.7453 36.7196L34.282 42.2021L28.8188 36.7196C28.1489 36.0647 27.2489 35.701 26.3137 35.7071C25.3785 35.7132 24.4834 36.0887 23.822 36.7523C23.1607 37.4159 22.7864 38.3141 22.7802 39.2526C22.774 40.1911 23.1363 41.0943 23.7888 41.7666L29.2527 47.2498L23.7888 52.7329C23.4514 53.0627 23.1826 53.4565 22.9981 53.8914C22.8136 54.3263 22.717 54.7937 22.7139 55.2664C22.7109 55.739 22.8014 56.2076 22.9802 56.6449C23.1591 57.0822 23.4227 57.4795 23.7558 57.8137C24.0889 58.1479 24.4848 58.4124 24.9206 58.5918C25.3564 58.7712 25.8233 58.862 26.2943 58.8589C26.7653 58.8557 27.231 58.7587 27.6644 58.5735C28.0978 58.3883 28.4902 58.1185 28.8188 57.7799L34.282 52.2974L39.7453 57.7799Z" fill="#3F3679"/>
<path d="M84.7481 47.2497L90.212 41.7666C90.5517 41.4373 90.8227 41.0435 91.0091 40.608C91.1955 40.1725 91.2936 39.7042 91.2977 39.2302C91.3018 38.7563 91.2118 38.2863 91.033 37.8476C90.8541 37.409 90.59 37.0104 90.2561 36.6753C89.9221 36.3402 89.525 36.0751 89.0879 35.8957C88.6508 35.7162 88.1824 35.6259 87.7101 35.63C87.2378 35.6341 86.7711 35.7326 86.3372 35.9197C85.9032 36.1067 85.5108 36.3786 85.1826 36.7196L79.7187 42.2027L74.2548 36.7196C73.9267 36.3786 73.5342 36.1067 73.1003 35.9197C72.6664 35.7326 72.1996 35.6341 71.7274 35.63C71.2551 35.6259 70.7867 35.7162 70.3496 35.8957C69.9125 36.0751 69.5154 36.3402 69.1814 36.6753C68.8475 37.0104 68.5833 37.409 68.4045 37.8476C68.2257 38.2863 68.1357 38.7563 68.1398 39.2302C68.1439 39.7042 68.242 40.1725 68.4284 40.608C68.6148 41.0435 68.8858 41.4373 69.2255 41.7666L74.6894 47.2497L69.2255 52.7328C68.8858 53.0621 68.6148 53.456 68.4284 53.8914C68.242 54.3269 68.1439 54.7953 68.1398 55.2692C68.1357 55.7431 68.2257 56.2131 68.4045 56.6518C68.5833 57.0904 68.8475 57.489 69.1814 57.8241C69.5154 58.1592 69.9125 58.4243 70.3496 58.6037C70.7867 58.7832 71.2551 58.8735 71.7274 58.8694C72.1996 58.8653 72.6664 58.7668 73.1003 58.5798C73.5342 58.3927 73.9267 58.1208 74.2548 57.7799L79.7187 52.2967L85.1826 57.7799C85.8535 58.4301 86.7519 58.7898 87.6845 58.7817C88.6171 58.7736 89.5092 58.3982 90.1687 57.7364C90.8281 57.0746 91.2022 56.1794 91.2103 55.2435C91.2184 54.3076 90.8599 53.406 90.212 52.7328L84.7481 47.2497Z" fill="#3F3679"/>
<path d="M57.0004 71.6826C53.4114 71.6807 49.8892 72.6567 46.8097 74.5064C43.7302 76.3562 41.209 79.0103 39.5151 82.1855C39.2836 82.5992 39.1366 83.0551 39.0827 83.5265C39.0289 83.9979 39.0692 84.4754 39.2014 84.931C39.3336 85.3865 39.5549 85.8111 39.8525 86.1798C40.1501 86.5485 40.518 86.854 40.9347 87.0783C41.3513 87.3027 41.8083 87.4414 42.279 87.4864C42.7497 87.5314 43.2246 87.4818 43.676 87.3404C44.1274 87.1991 44.5461 86.9688 44.9077 86.6631C45.2694 86.3574 45.5667 85.9825 45.7822 85.5601C46.8695 83.5234 48.4871 81.8208 50.4626 80.6339C52.4381 79.4469 54.6975 78.82 57 78.82C59.3026 78.82 61.562 79.4469 63.5375 80.6339C65.513 81.8208 67.1306 83.5234 68.2179 85.5601C68.674 86.3752 69.4305 86.9782 70.3249 87.2395C71.2193 87.5008 72.1801 87.3996 73.0009 86.9577C73.8217 86.5157 74.437 85.7682 74.7145 84.8759C74.992 83.9835 74.9096 83.0175 74.485 82.1855C72.7911 79.0104 70.27 76.3563 67.1906 74.5066C64.1113 72.6568 60.5892 71.6808 57.0004 71.6826Z" fill="#3F3679"/>
</svg>
