<svg width="30" height="30" viewBox="0 0 30 30" fill="none" xmlns="http://www.w3.org/2000/svg">
<path d="M8.23627 27.289C6.85928 25.7242 5.48235 24.0969 4.60606 22.1566C3.72983 20.0912 3.47945 17.7128 3.9176 15.4596C4.35574 13.2064 5.35713 11.0783 6.79673 9.26324C6.67157 10.828 7.23488 12.4553 8.29888 13.6445C7.67296 10.6402 8.67441 7.38556 10.6773 5.00719C12.6801 2.62881 15.4341 1.064 18.3131 0C16.8736 1.50214 16.6858 3.88052 17.2491 5.88342C17.8124 7.88626 19.0017 9.63878 20.0657 11.4539C21.1297 13.2689 22.1311 15.1466 22.1937 17.2121C22.757 16.1481 23.3829 15.084 23.7585 13.8948C24.134 12.7056 24.3218 11.4539 24.0089 10.2646C25.1355 11.6416 25.7614 13.0185 26.0743 14.7711C26.3872 16.5236 26.3247 18.3387 26.1369 20.0912C25.8865 22.0315 25.3858 24.0343 24.3218 25.6616C23.0701 27.6019 21.0672 28.9788 18.8766 29.7299C14.9959 30.4184 11.1779 29.8551 8.23627 27.289Z" fill="#FF2924"/>
<path d="M12.9935 29.6047C18.1258 31.6076 23.1956 25.5365 20.379 20.8423C20.379 20.7796 20.3164 20.7796 20.3164 20.7171C20.5668 23.2832 19.9409 25.1609 18.7517 26.225C19.3776 24.7228 18.9395 22.9703 18.1884 21.4682C17.4373 20.0286 16.3733 18.7143 15.5596 17.3373C14.7459 15.8977 14.1201 14.2704 14.4956 12.6431C12.9935 13.7697 11.9295 15.4596 11.4913 17.2747C11.0532 19.0897 11.3036 21.0926 12.1172 22.7825C11.1784 22.0941 10.4899 20.9675 10.4273 19.7783C9.42587 20.9675 8.80002 22.5322 8.86257 24.0969C8.86263 26.5379 10.8029 28.7285 12.9935 29.6047Z" fill="#FFD15C"/>
</svg>
