<svg width="24" height="24" viewBox="0 0 24 24" fill="none" xmlns="http://www.w3.org/2000/svg">
<path stroke='black' d="M8.38401 2.47926L7.52481 2.73846C6.75848 2.9693 6.07406 3.41429 5.55214 4.02104C5.03021 4.62779 4.69252 5.37104 4.57881 6.16326C4.22241 8.64486 5.01921 11.5465 6.94041 14.8741C8.85681 18.1933 10.9664 20.3317 13.2884 21.2677C14.0345 21.5683 14.8512 21.6485 15.6415 21.4985C16.4318 21.3485 17.1624 20.9748 17.7464 20.4217L18.398 19.8049C18.8202 19.405 19.0828 18.8655 19.1371 18.2865C19.1914 17.7076 19.0337 17.1286 18.6932 16.6573L17.066 14.4013C16.846 14.0967 16.5362 13.8686 16.1801 13.7489C15.8239 13.6293 15.4393 13.6241 15.08 13.7341L12.6188 14.4865L12.5552 14.4985C12.284 14.5381 11.6588 13.9513 10.8788 12.6001C10.0628 11.1865 9.89241 10.3597 10.118 10.1461L11.3708 8.97846C11.8283 8.55167 12.1407 7.99238 12.2643 7.37904C12.3878 6.7657 12.3162 6.12907 12.0596 5.55846L11.2676 3.79326C11.0287 3.26155 10.6044 2.83497 10.074 2.59317C9.54358 2.35137 8.94329 2.31088 8.38521 2.47926H8.38401ZM10.172 4.28526L10.9652 6.05046C11.1195 6.39274 11.1626 6.77474 11.0885 7.14279C11.0145 7.51085 10.827 7.84645 10.5524 8.10246L9.29721 9.27126C8.49321 10.0309 8.75961 11.3305 9.83841 13.2001C10.8548 14.9593 11.7812 15.8281 12.776 15.6769L12.9248 15.6457L15.4304 14.8813C15.5502 14.8445 15.6785 14.8461 15.7973 14.8859C15.916 14.9257 16.0194 15.0017 16.0928 15.1033L17.72 17.3593C17.8904 17.595 17.9694 17.8846 17.9422 18.1742C17.9151 18.4638 17.7836 18.7337 17.5724 18.9337L16.9208 19.5505C16.5036 19.9453 15.9819 20.2121 15.4175 20.319C14.8532 20.426 14.27 20.3688 13.7372 20.1541C11.6996 19.3333 9.77361 17.3809 7.97961 14.2741C6.18201 11.1601 5.45481 8.51166 5.76681 6.33366C5.84798 5.76763 6.08923 5.23659 6.46213 4.80309C6.83504 4.36959 7.32407 4.0517 7.87161 3.88686L8.73201 3.62766C9.01096 3.54384 9.31087 3.56434 9.57583 3.68533C9.84078 3.80633 10.0527 4.01956 10.172 4.28526Z" fill="white"/>
</svg>
