<svg width="21" height="20" viewBox="0 0 21 20" fill="none" xmlns="http://www.w3.org/2000/svg">
<path d="M18.9375 9.375H17.9738C17.8236 7.60891 17.0538 5.95279 15.8005 4.69948C14.5472 3.44616 12.8911 2.67639 11.125 2.52626V1.5625C11.125 1.39674 11.0592 1.23777 10.9419 1.12056C10.8247 1.00335 10.6658 0.9375 10.5 0.9375C10.3342 0.9375 10.1753 1.00335 10.0581 1.12056C9.94085 1.23777 9.875 1.39674 9.875 1.5625V2.52626C8.10891 2.67639 6.45279 3.44616 5.19947 4.69948C3.94615 5.95279 3.17637 7.60891 3.02625 9.375H2.0625C1.89674 9.375 1.73777 9.44085 1.62056 9.55806C1.50335 9.67527 1.4375 9.83424 1.4375 10C1.4375 10.1658 1.50335 10.3247 1.62056 10.4419C1.73777 10.5592 1.89674 10.625 2.0625 10.625H3.02625C3.17637 12.3911 3.94615 14.0472 5.19947 15.3005C6.45279 16.5538 8.10891 17.3236 9.875 17.4737V18.4375C9.875 18.6033 9.94085 18.7622 10.0581 18.8794C10.1753 18.9967 10.3342 19.0625 10.5 19.0625C10.6658 19.0625 10.8247 18.9967 10.9419 18.8794C11.0592 18.7622 11.125 18.6033 11.125 18.4375V17.4737C12.8911 17.3236 14.5472 16.5538 15.8005 15.3005C17.0538 14.0472 17.8236 12.3911 17.9738 10.625H18.9375C19.1033 10.625 19.2622 10.5592 19.3794 10.4419C19.4967 10.3247 19.5625 10.1658 19.5625 10C19.5625 9.83424 19.4967 9.67527 19.3794 9.55806C19.2622 9.44085 19.1033 9.375 18.9375 9.375ZM15.8125 10.625H16.7187C16.5725 12.0587 15.9362 13.3981 14.9172 14.4172C13.8981 15.4362 12.5587 16.0725 11.125 16.2187V15.3125C11.125 15.1467 11.0592 14.9878 10.9419 14.8706C10.8247 14.7533 10.6658 14.6875 10.5 14.6875C10.3342 14.6875 10.1753 14.7533 10.0581 14.8706C9.94085 14.9878 9.875 15.1467 9.875 15.3125V16.2187C8.44129 16.0725 7.10189 15.4362 6.08285 14.4172C5.0638 13.3981 4.4275 12.0587 4.28132 10.625H5.1875C5.35326 10.625 5.51223 10.5592 5.62944 10.4419C5.74665 10.3247 5.8125 10.1658 5.8125 10C5.8125 9.83424 5.74665 9.67527 5.62944 9.55806C5.51223 9.44085 5.35326 9.375 5.1875 9.375H4.28132C4.4275 7.94129 5.0638 6.60189 6.08285 5.58285C7.10189 4.5638 8.44129 3.9275 9.875 3.78132V4.6875C9.875 4.85326 9.94085 5.01223 10.0581 5.12944C10.1753 5.24665 10.3342 5.3125 10.5 5.3125C10.6658 5.3125 10.8247 5.24665 10.9419 5.12944C11.0592 5.01223 11.125 4.85326 11.125 4.6875V3.78132C12.5587 3.9275 13.8981 4.5638 14.9172 5.58285C15.9362 6.60189 16.5725 7.94129 16.7187 9.375H15.8125C15.6467 9.375 15.4878 9.44085 15.3706 9.55806C15.2533 9.67527 15.1875 9.83424 15.1875 10C15.1875 10.1658 15.2533 10.3247 15.3706 10.4419C15.4878 10.5592 15.6467 10.625 15.8125 10.625Z" fill="#126BFB"/>
<path d="M10.5 13.125C12.2259 13.125 13.625 11.7259 13.625 10C13.625 8.27411 12.2259 6.875 10.5 6.875C8.77411 6.875 7.375 8.27411 7.375 10C7.375 11.7259 8.77411 13.125 10.5 13.125Z" fill="#126BFB"/>
</svg>
