<svg width="55" height="46" viewBox="0 0 55 46" fill="none" xmlns="http://www.w3.org/2000/svg">
<path d="M45.7857 16.6154L42.9074 16.6059C40.3302 10.0477 33.9281 5.63472 26.9404 5.61157C19.9528 5.58843 13.7023 9.95955 11.3452 16.5013L8.47298 16.4918C7.7079 16.4893 7.09791 17.1097 7.11114 17.8759L7.26928 27.0368C7.28251 27.8031 7.91399 28.4276 8.67907 28.4302L11.5574 28.4397C14.1406 34.9978 20.5366 39.4108 27.5243 39.434C34.512 39.4571 40.7624 35.086 43.1135 28.5442L45.9918 28.5537C46.7569 28.5563 47.3669 27.9358 47.3536 27.1696L47.1955 18.0087C47.1823 17.2425 46.5508 16.6179 45.7857 16.6154ZM27.4127 32.9666C23.9849 32.9553 20.7836 31.2783 18.7901 28.4576L35.8802 28.5142C33.9783 31.3221 30.8403 32.978 27.4127 32.9666ZM37.0595 28.5181L42.0474 28.5346C39.7406 34.4918 33.9308 38.4589 27.5071 38.4377C21.0834 38.4164 15.136 34.4103 12.6232 28.4371L17.6112 28.4537C19.7314 31.8358 23.4831 33.9438 27.4298 33.9569C31.3763 33.97 35.0617 31.8867 37.0595 28.5181ZM27.052 12.0728C30.4857 12.0842 33.6871 13.7612 35.6806 16.5819L18.5781 16.5253C20.4744 13.7174 23.6182 12.0615 27.052 12.0728ZM12.4173 16.5049C14.7239 10.5476 20.5278 6.58051 26.9575 6.60181C33.3873 6.62311 39.3288 10.6291 41.8414 16.6023L36.8534 16.5858C34.7333 13.2037 30.9816 11.0957 27.0349 11.0826C23.0883 11.0695 19.4029 13.1528 17.4052 16.5214L12.4173 16.5049ZM46.3651 27.1603C46.3688 27.3788 46.1921 27.5581 45.9746 27.5574L8.66187 27.4338C8.4444 27.4331 8.26143 27.2526 8.25765 27.034L8.09961 17.8792C8.09584 17.6607 8.2726 17.4813 8.49007 17.482L45.8028 17.6056C46.0203 17.6064 46.2032 17.7869 46.207 18.0054L46.3651 27.1603Z" fill="#1DB310" stroke="#1DB210" stroke-width="0.2"/>
<path d="M12.7724 23.1322L12.8569 23.5925L12.4439 23.3733L12.2087 23.2485L11.977 23.3702L11.5655 23.5862L11.6366 23.1248L11.6764 22.867L11.4864 22.683L11.1515 22.3588L11.6058 22.2958L11.8659 22.2597L11.9789 22.0242L12.1787 21.6076L12.391 22.0287L12.5108 22.2662L12.7726 22.3054L13.2316 22.3741L12.9091 22.6926L12.7251 22.8743L12.7724 23.1322Z" fill="#1DB310" stroke="#1DB210"/>
<path d="M42.0718 23.1321L42.1568 23.5955L41.7495 23.3793L41.5143 23.2545L41.2825 23.3762L40.8772 23.589L40.9482 23.1312L40.9882 22.8732L40.798 22.6891L40.4632 22.3649L40.9174 22.3019L41.1782 22.2657L41.291 22.0293L41.4882 21.6157L41.6965 22.0286L41.8162 22.2662L42.078 22.3054L42.5317 22.3733L42.2084 22.6925L42.0245 22.8743L42.0718 23.1321Z" fill="#1DB310" stroke="#1DB210"/>
<path d="M32.9594 10.0102L32.99 10.1766L32.8418 10.0979L32.6066 9.97312L32.3748 10.0948L32.2248 10.1736L32.2507 10.0054L32.2905 9.74758L32.1005 9.56366L31.9811 9.44803L32.1425 9.42563L32.4026 9.38955L32.5155 9.15405L32.5874 9.00423L32.6641 9.1564L32.7839 9.39394L33.0457 9.43313L33.2103 9.45779L33.0961 9.5706L32.9121 9.75232L32.9594 10.0102Z" fill="#1DB310" stroke="#1DB210"/>
<path d="M36.9594 13.0102L36.99 13.1766L36.8418 13.0979L36.6066 12.9731L36.3748 13.0948L36.2248 13.1736L36.2507 13.0054L36.2905 12.7476L36.1005 12.5637L35.9811 12.448L36.1425 12.4256L36.4026 12.3895L36.5155 12.154L36.5874 12.0042L36.6641 12.1564L36.7839 12.3939L37.0457 12.4331L37.2103 12.4578L37.0961 12.5706L36.9121 12.7523L36.9594 13.0102Z" fill="#1DB310" stroke="#1DB210"/>
<path d="M32.9594 36.0102L32.99 36.1766L32.8418 36.0979L32.6066 35.9731L32.3748 36.0948L32.2248 36.1736L32.2507 36.0054L32.2905 35.7476L32.1005 35.5637L31.9811 35.448L32.1425 35.4256L32.4026 35.3895L32.5155 35.154L32.5874 35.0042L32.6641 35.1564L32.7839 35.3939L33.0457 35.4331L33.2103 35.4578L33.0961 35.5706L32.9121 35.7523L32.9594 36.0102Z" fill="#1DB310" stroke="#1DB210"/>
<path d="M36.9594 33.0102L36.99 33.1766L36.8418 33.0979L36.6066 32.9731L36.3748 33.0948L36.2248 33.1736L36.2507 33.0054L36.2905 32.7476L36.1005 32.5637L35.9811 32.448L36.1425 32.4256L36.4026 32.3895L36.5155 32.154L36.5874 32.0042L36.6641 32.1564L36.7839 32.3939L37.0457 32.4331L37.2103 32.4578L37.0961 32.5706L36.9121 32.7523L36.9594 33.0102Z" fill="#1DB310" stroke="#1DB210"/>
<path d="M22.8464 10.0061L22.8726 10.1553L22.7776 10.1025L22.5336 9.96675L22.2932 10.0992L22.1955 10.153L22.2177 10.0015L22.254 9.75314L22.0754 9.57201L21.9514 9.44623L22.0971 9.425L22.3607 9.3866L22.4708 9.1455L22.515 9.04865L22.5627 9.14772L22.6797 9.39069L22.9449 9.43228L23.094 9.45567L22.9754 9.57861L22.8027 9.75769L22.8464 10.0061Z" fill="#1DB310" stroke="#1DB210"/>
<path d="M18.8464 12.0061L18.8726 12.1553L18.7776 12.1025L18.5336 11.9668L18.2932 12.0992L18.1955 12.153L18.2177 12.0015L18.254 11.7531L18.0754 11.572L17.9514 11.4462L18.0971 11.425L18.3607 11.3866L18.4708 11.1455L18.515 11.0487L18.5627 11.1477L18.6797 11.3907L18.9449 11.4323L19.094 11.4557L18.9754 11.5786L18.8027 11.7577L18.8464 12.0061Z" fill="#1DB310" stroke="#1DB210"/>
<path d="M22.8464 36.0061L22.8726 36.1553L22.7776 36.1025L22.5336 35.9668L22.2932 36.0992L22.1955 36.153L22.2177 36.0015L22.254 35.7531L22.0754 35.572L21.9514 35.4462L22.0971 35.425L22.3607 35.3866L22.4708 35.1455L22.515 35.0487L22.5627 35.1477L22.6797 35.3907L22.9449 35.4323L23.094 35.4557L22.9754 35.5786L22.8027 35.7577L22.8464 36.0061Z" fill="#1DB310" stroke="#1DB210"/>
<path d="M18.8464 33.0061L18.8726 33.1553L18.7776 33.1025L18.5336 32.9668L18.2932 33.0992L18.1955 33.153L18.2177 33.0015L18.254 32.7531L18.0754 32.572L17.9514 32.4462L18.0971 32.425L18.3607 32.3866L18.4708 32.1455L18.515 32.0487L18.5627 32.1477L18.6797 32.3907L18.9449 32.4323L19.094 32.4557L18.9754 32.5786L18.8027 32.7577L18.8464 33.0061Z" fill="#1DB310" stroke="#1DB210"/>
<path d="M27.8464 9.00608L27.8726 9.15532L27.7776 9.10251L27.5336 8.96675L27.2932 9.09922L27.1955 9.15303L27.2177 9.00145L27.254 8.75314L27.0754 8.57201L26.9514 8.44623L27.0971 8.425L27.3607 8.3866L27.4708 8.1455L27.515 8.04865L27.5627 8.14772L27.6797 8.39069L27.9449 8.43228L28.094 8.45567L27.9754 8.57861L27.8027 8.75769L27.8464 9.00608Z" fill="#1DB310" stroke="#1DB210"/>
<path d="M27.8464 37.0061L27.8726 37.1553L27.7776 37.1025L27.5336 36.9668L27.2932 37.0992L27.1955 37.153L27.2177 37.0015L27.254 36.7531L27.0754 36.572L26.9514 36.4462L27.0971 36.425L27.3607 36.3866L27.4708 36.1455L27.515 36.0487L27.5627 36.1477L27.6797 36.3907L27.9449 36.4323L28.094 36.4557L27.9754 36.5786L27.8027 36.7577L27.8464 37.0061Z" fill="#1DB310" stroke="#1DB210"/>
<rect x="0.5" y="16.5" width="54" height="12" rx="1.5" fill="white" stroke="#1DB210"/>
<path d="M4.46875 25H6.08301C7.35156 25 8.09863 24.2119 8.09863 22.8701L8.09863 22.8643C8.09863 21.5254 7.34863 20.7725 6.08301 20.7725H4.46875L4.46875 22.6006H4.11719L4.11719 23.1719H4.46875L4.46875 25ZM5.35352 24.2676L5.35352 23.1719H5.99219L5.99219 22.6006H5.35352L5.35352 21.502H5.97754C6.75098 21.502 7.19629 21.9854 7.19629 22.8672L7.19629 22.873C7.19629 23.7871 6.76563 24.2676 5.97754 24.2676H5.35352ZM10.6533 20.4385C10.9961 20.4385 11.1982 20.1572 11.1982 19.5947L11.1982 19.5508H10.7354L10.7354 19.5654C10.7354 19.7852 10.6768 19.8848 10.5596 19.8848C10.4775 19.8848 10.3984 19.8379 10.3105 19.7764L10.1846 19.6943C10.0791 19.6182 9.9502 19.5537 9.7832 19.5537C9.45801 19.5537 9.23828 19.8262 9.23828 20.4004L9.23828 20.4414H9.70117L9.70117 20.4268C9.70117 20.207 9.75977 20.1074 9.87695 20.1074C9.95898 20.1074 10.0352 20.1543 10.123 20.2158L10.2461 20.3008C10.3545 20.374 10.4863 20.4385 10.6533 20.4385ZM8.22461 25H9.15332L9.47266 23.9746H10.9668L11.2861 25H12.2148L10.7412 20.7725H9.70117L8.22461 25ZM10.2109 21.5928H10.2285L10.7617 23.3125H9.67773L10.2109 21.5928ZM14.8486 25H15.7334L15.7334 21.502H16.958L16.958 20.7725H13.627L13.627 21.502H14.8486L14.8486 25ZM17.4473 25H18.332L18.332 23.2188H20.2363L20.2363 25H21.1211L21.1211 20.7725H20.2363L20.2363 22.4893H18.332L18.332 20.7725H17.4473L17.4473 25ZM21.5547 25H22.4834L22.8027 23.9746H24.2969L24.6162 25H25.5449L24.0713 20.7725H23.0313L21.5547 25ZM23.541 21.5928H23.5586L24.0918 23.3125H23.0078L23.541 21.5928ZM25.9785 25H26.8604L26.8604 22.2314H26.8779L28.7939 25H29.5615L29.5615 20.7725H28.6797L28.6797 23.5205H28.6621L26.752 20.7725H25.9785L25.9785 25ZM30.2676 25H31.1523L31.1523 23.2188H33.0566L33.0566 25H33.9414L33.9414 20.7725H33.0566L33.0566 22.4893H31.1523L31.1523 20.7725H30.2676L30.2676 25ZM36.8447 25H37.7295L37.7295 21.502H38.9541L38.9541 20.7725H35.623L35.623 21.502H36.8447L36.8447 25ZM41.1162 25.0732C42.373 25.0732 43.1553 24.2324 43.1553 22.8877L43.1553 22.8818C43.1553 21.54 42.3701 20.6992 41.1162 20.6992C39.8652 20.6992 39.0771 21.5371 39.0771 22.8818L39.0771 22.8877C39.0771 24.2324 39.8594 25.0732 41.1162 25.0732ZM41.1162 24.3232C40.4219 24.3232 39.9795 23.7725 39.9795 22.8877L39.9795 22.8818C39.9795 21.9971 40.4248 21.4492 41.1162 21.4492C41.8105 21.4492 42.2529 22 42.2529 22.8818L42.2529 22.8877C42.2529 23.7637 41.8193 24.3232 41.1162 24.3232ZM45.4961 20.4238L46.1875 19.457H45.4375L44.9277 20.4238H45.4961ZM43.2813 25H44.21L44.5293 23.9746H46.0234L46.3428 25H47.2715L45.7979 20.7725H44.7578L43.2813 25ZM45.2676 21.5928H45.2852L45.8184 23.3125H44.7344L45.2676 21.5928ZM47.7051 25H48.5869L48.5869 22.2314H48.6045L50.5205 25H51.2881L51.2881 20.7725H50.4063L50.4063 23.5205H50.3887L48.4785 20.7725H47.7051L47.7051 25Z" fill="#1DB210"/>
</svg>
