<svg width="25" height="25" viewBox="0 0 25 25" fill="none" xmlns="http://www.w3.org/2000/svg">
<path fill-rule="evenodd" clip-rule="evenodd" d="M10.2226 5.56885C9.50687 5.56885 8.84201 5.91786 8.44236 6.50225L8.35992 6.60702L8.30477 6.53673C7.90968 5.93098 7.24366 5.56905 6.52062 5.56905C5.28687 5.56905 4.3916 6.46457 4.3916 7.69791C4.3916 9.51904 7.68863 12.2033 7.92907 12.3965C8.04256 12.5051 8.19113 12.5648 8.34878 12.5648C8.50642 12.5648 8.655 12.5053 8.76848 12.3964C9.00968 12.2015 12.3514 9.47528 12.3514 7.69791C12.3514 6.46437 11.4561 5.56885 10.2226 5.56885Z" fill="white"/>
<path fill-rule="evenodd" clip-rule="evenodd" d="M19.5692 5.56885C18.8535 5.56885 18.1887 5.91786 17.789 6.50225L17.7066 6.60702L17.6515 6.53673C17.2564 5.93098 16.5903 5.56905 15.8673 5.56905C14.6335 5.56905 13.7383 6.46457 13.7383 7.69791C13.7383 9.51904 17.0353 12.2033 17.2758 12.3965C17.3892 12.5051 17.5378 12.5648 17.6955 12.5648C17.8529 12.5648 18.0015 12.5053 18.1152 12.3964C18.3562 12.2017 21.6979 9.47528 21.6979 7.69791C21.6981 6.46437 20.8028 5.56885 19.5692 5.56885Z" fill="white"/>
<path fill-rule="evenodd" clip-rule="evenodd" d="M18.3823 16.0459C15.3803 19.1007 10.5502 19.0768 7.57323 16.0004C7.14785 15.5608 6.47859 16.2314 6.90341 16.6702C10.234 20.1122 15.6968 20.1306 19.0521 16.7157C19.4806 16.2799 18.8109 15.6097 18.3823 16.0459Z" fill="white"/>
<path fill-rule="evenodd" clip-rule="evenodd" d="M12.9353 24.0034C19.5637 24.0034 24.937 18.6301 24.937 12.0017C24.937 5.37335 19.5637 0 12.9353 0C6.30695 0 0.933594 5.37335 0.933594 12.0017C0.933594 18.6301 6.30695 24.0034 12.9353 24.0034Z" fill="#D3D1D1"/>
<path fill-rule="evenodd" clip-rule="evenodd" d="M10.158 5.56982C9.44217 5.56982 8.77722 5.91889 8.37751 6.50336L8.29506 6.60815L8.2399 6.53785C7.84475 5.932 7.17864 5.57003 6.45549 5.57003C5.22157 5.57003 4.32617 6.46568 4.32617 7.6992C4.32617 9.52058 7.62367 12.2052 7.86415 12.3985C7.97765 12.5071 8.12625 12.5668 8.28391 12.5668C8.44158 12.5668 8.59018 12.5073 8.70368 12.3983C8.94491 12.2035 12.2871 9.47682 12.2871 7.6992C12.2871 6.46547 11.3917 5.56982 10.158 5.56982Z" fill="#222B45"/>
<path fill-rule="evenodd" clip-rule="evenodd" d="M19.5056 5.56982C18.7898 5.56982 18.1249 5.91889 17.7252 6.50336L17.6427 6.60815L17.5876 6.53785C17.1924 5.932 16.5263 5.57003 15.8031 5.57003C14.5692 5.57003 13.6738 6.46568 13.6738 7.6992C13.6738 9.52058 16.9713 12.2052 17.2118 12.3985C17.3253 12.5071 17.4739 12.5668 17.6316 12.5668C17.789 12.5668 17.9376 12.5073 18.0513 12.3983C18.2924 12.2037 21.6346 9.47682 21.6346 7.6992C21.6348 6.46547 20.7393 5.56982 19.5056 5.56982Z" fill="#222B45"/>
<path fill-rule="evenodd" clip-rule="evenodd" d="M18.3186 16.0483C15.3161 19.1037 10.4853 19.0797 7.50791 16.0029C7.08247 15.5632 6.41312 16.2339 6.838 16.6728C10.169 20.1152 15.6326 20.1336 18.9885 16.7183C19.417 16.2824 18.7472 15.6121 18.3186 16.0483Z" fill="#222B45"/>
</svg>
