<svg width="48" height="48" viewBox="0 0 48 48" fill="none" xmlns="http://www.w3.org/2000/svg">
<path d="M32 25C32 22.8783 31.1571 20.8434 29.6569 19.3431C28.1566 17.8429 26.1217 17 24 17C21.8783 17 19.8434 17.8429 18.3431 19.3431C16.8429 20.8434 16 22.8783 16 25" stroke="black" stroke-width="1.5" stroke-linecap="round" stroke-linejoin="round"/>
<path d="M14 29.438V27.562C14.0001 27.116 14.1492 26.6828 14.4237 26.3313C14.6982 25.9798 15.0823 25.7301 15.515 25.622L17.255 25.186C17.3434 25.164 17.4357 25.1624 17.5248 25.1813C17.6139 25.2003 17.6976 25.2393 17.7694 25.2954C17.8412 25.3515 17.8993 25.4232 17.9392 25.5051C17.9792 25.587 18 25.6769 18 25.768V31.231C18.0002 31.3223 17.9795 31.4124 17.9395 31.4946C17.8996 31.5767 17.8414 31.6486 17.7695 31.7048C17.6975 31.761 17.6137 31.8001 17.5244 31.819C17.435 31.8379 17.3426 31.8362 17.254 31.814L15.514 31.379C15.0815 31.2707 14.6976 31.0209 14.4233 30.6694C14.149 30.3179 14 29.8849 14 29.439V29.438Z" stroke="black" stroke-width="1.5"/>
<path d="M34 29.438V27.562C33.9999 27.116 33.8508 26.6828 33.5763 26.3313C33.3018 25.9798 32.9177 25.7301 32.485 25.622L30.745 25.186C30.6566 25.164 30.5643 25.1624 30.4752 25.1813C30.3861 25.2003 30.3024 25.2393 30.2306 25.2954C30.1588 25.3515 30.1007 25.4232 30.0608 25.5051C30.0208 25.587 30 25.6769 30 25.768V31.231C29.9999 31.3222 30.0206 31.4122 30.0604 31.4942C30.1003 31.5763 30.1584 31.6481 30.2302 31.7043C30.3021 31.7605 30.3857 31.7996 30.4749 31.8186C30.5641 31.8376 30.6565 31.836 30.745 31.814L32.485 31.379C32.9177 31.2708 33.3018 31.0212 33.5763 30.6697C33.8508 30.3182 33.9999 29.885 34 29.439V29.438Z" stroke="black" stroke-width="1.5"/>
<path d="M32 32V32.5C32 33.0304 31.7893 33.5391 31.4142 33.9142C31.0391 34.2893 30.5304 34.5 30 34.5H26.5" stroke="black" stroke-width="1.5"/>
<path d="M25.5 36H22.5C22.1022 36 21.7206 35.842 21.4393 35.5607C21.158 35.2794 21 34.8978 21 34.5C21 34.1022 21.158 33.7206 21.4393 33.4393C21.7206 33.158 22.1022 33 22.5 33H25.5C25.8978 33 26.2794 33.158 26.5607 33.4393C26.842 33.7206 27 34.1022 27 34.5C27 34.8978 26.842 35.2794 26.5607 35.5607C26.2794 35.842 25.8978 36 25.5 36Z" stroke="black" stroke-width="1.5"/>
</svg>
