<svg width="18" height="16" viewBox="0 0 18 16" fill="none" xmlns="http://www.w3.org/2000/svg">
<path d="M8.1281 14.3219L8.12738 14.3213C5.97148 12.3663 4.22259 10.7794 3.00665 9.29281C1.79646 7.81324 1.1665 6.49409 1.1665 5.08333C1.1665 2.79281 2.95931 1 5.24984 1C6.54844 1 7.80263 1.60697 8.61916 2.56584L8.99984 3.01287L9.38051 2.56584C10.1971 1.60697 11.4512 1 12.7498 1C15.0404 1 16.8332 2.79281 16.8332 5.08333C16.8332 6.4941 16.2032 7.81327 14.9929 9.29399C13.778 10.7804 12.0312 12.3678 9.87795 14.3245L9.87298 14.329L9.87191 14.33L9.00111 15.1167L8.1281 14.3219Z" fill="#FF424F" stroke="white"/>
</svg>
