<svg width="20" height="16" viewBox="0 0 20 16" fill="none" xmlns="http://www.w3.org/2000/svg">
<path d="M10.454 14.7397L16.9656 8.22819C18.5655 6.62825 18.8016 3.9961 17.2875 2.31469C16.9082 1.8923 16.4469 1.55162 15.9316 1.31342C15.4163 1.07522 14.8579 0.944504 14.2905 0.929245C13.723 0.913985 13.1584 1.0145 12.6311 1.22466C12.1037 1.43483 11.6248 1.75022 11.2234 2.15161L9.99948 3.37548L8.94279 2.31879C7.34285 0.718849 4.7107 0.482803 3.02929 1.99689C2.6069 2.37615 2.26622 2.83748 2.02802 3.35275C1.78982 3.86803 1.6591 4.42643 1.64384 4.99389C1.62858 5.56134 1.7291 6.12596 1.93926 6.65329C2.14942 7.18062 2.46482 7.6596 2.86621 8.06101L9.54491 14.7397C9.66547 14.8603 9.82898 14.928 9.99948 14.928C10.17 14.928 10.3335 14.8603 10.454 14.7397V14.7397Z" stroke="white" stroke-width="1.5" stroke-linecap="round" stroke-linejoin="round"/>
</svg>
