<svg width="20" height="18" viewBox="0 0 20 18" fill="none" xmlns="http://www.w3.org/2000/svg">
<path d="M10.091 16.5067L17.1257 9.3309C18.8542 7.56773 19.1092 4.66705 17.4735 2.81409C17.0638 2.34862 16.5654 1.97318 16.0087 1.71068C15.452 1.44818 14.8487 1.30413 14.2357 1.28731C13.6226 1.27049 13.0127 1.38126 12.443 1.61287C11.8733 1.84447 11.3558 2.19204 10.9221 2.63439L9.59992 3.98312L8.45833 2.81862C6.72984 1.05545 3.8862 0.795321 2.06968 2.46388C1.61336 2.88182 1.2453 3.39023 0.987963 3.95807C0.730626 4.5259 0.589406 5.14127 0.572921 5.76663C0.556435 6.39198 0.665028 7.0142 0.892076 7.59532C1.11912 8.17645 1.45986 8.70429 1.89351 9.14665L9.10883 16.5067C9.23907 16.6396 9.41573 16.7142 9.59992 16.7142C9.78412 16.7142 9.96077 16.6396 10.091 16.5067V16.5067Z" stroke="#333333" stroke-linecap="round" stroke-linejoin="round"/>
</svg>
