<svg width="48" height="48" viewBox="0 0 48 48" fill="none" xmlns="http://www.w3.org/2000/svg">
<path d="M24 34C29.5228 34 34 29.5228 34 24C34 18.4772 29.5228 14 24 14C18.4772 14 14 18.4772 14 24C14 29.5228 18.4772 34 24 34Z" stroke="black" stroke-width="1.5" stroke-linecap="round" stroke-linejoin="round"/>
<path d="M21.0898 21C21.3249 20.3317 21.789 19.7681 22.3998 19.4091C23.0106 19.0502 23.7287 18.9189 24.427 19.0387C25.1253 19.1585 25.7587 19.5215 26.2149 20.0635C26.6712 20.6055 26.9209 21.2915 26.9198 22C26.9198 24 23.9198 25 23.9198 25" stroke="black" stroke-width="1.5" stroke-linecap="round" stroke-linejoin="round"/>
<path d="M24 29H24.01" stroke="black" stroke-width="1.5" stroke-linecap="round" stroke-linejoin="round"/>
</svg>
