<svg width="21" height="21" viewBox="0 0 21 21" fill="none" xmlns="http://www.w3.org/2000/svg">
<path d="M4.04912 14.3276C3.1173 12.7567 2.79097 10.8998 3.1314 9.10534C3.47184 7.31093 4.45563 5.70252 5.89803 4.58212C7.34044 3.46173 9.14224 2.90643 10.9651 3.0205C12.7879 3.13457 14.5065 3.91016 15.7979 5.20163C17.0894 6.49311 17.865 8.21162 17.9791 10.0345C18.0932 11.8573 17.5379 13.6591 16.4175 15.1015C15.2971 16.544 13.6887 17.5277 11.8943 17.8682C10.0999 18.2086 8.24291 17.8823 6.67207 16.9505L6.67209 16.9504L4.08173 17.6905C3.97456 17.7211 3.86115 17.7225 3.75325 17.6946C3.64536 17.6666 3.5469 17.6103 3.46809 17.5315C3.38927 17.4527 3.33297 17.3542 3.30501 17.2463C3.27705 17.1384 3.27846 17.025 3.30908 16.9179L4.04918 14.3275L4.04912 14.3276Z" stroke="#333333" stroke-width="1.25" stroke-linecap="round" stroke-linejoin="round"/>
<path d="M8 9.25H13" stroke="#333333" stroke-width="1.25" stroke-linecap="round" stroke-linejoin="round"/>
<path d="M8 11.75H13" stroke="#333333" stroke-width="1.25" stroke-linecap="round" stroke-linejoin="round"/>
</svg>
