<svg width="20" height="20" viewBox="0 0 20 20" fill="none" xmlns="http://www.w3.org/2000/svg">
<path d="M10 1.25C8.1773 1.25216 6.42987 1.97719 5.14103 3.26603C3.85219 4.55487 3.12716 6.3023 3.125 8.125C3.125 14.0076 9.375 18.4509 9.64111 18.6371C9.74636 18.7106 9.87163 18.75 10 18.75C10.1284 18.75 10.2536 18.7106 10.3589 18.6371C10.625 18.4509 16.875 14.0076 16.875 8.125C16.8728 6.3023 16.1478 4.55487 14.859 3.26603C13.5701 1.97719 11.8227 1.25216 10 1.25ZM10.0005 5.62523C10.4949 5.62523 10.9783 5.77185 11.3894 6.04655C11.8005 6.32126 12.1209 6.7117 12.3102 7.16852C12.4994 7.62533 12.5489 8.128 12.4524 8.61295C12.356 9.0979 12.1179 9.54336 11.7682 9.89299C11.4186 10.2426 10.9731 10.4807 10.4882 10.5772C10.0032 10.6737 9.50056 10.6241 9.04375 10.4349C8.58693 10.2457 8.19649 9.92527 7.92178 9.51415C7.64708 9.10303 7.50046 8.61968 7.50046 8.12523C7.50045 7.79692 7.56511 7.47183 7.69074 7.16851C7.81637 6.86519 8.00052 6.58959 8.23267 6.35744C8.46482 6.12529 8.74042 5.94114 9.04374 5.81551C9.34706 5.68988 9.67215 5.62522 10.0005 5.62523Z" fill="#F05A94"/>
</svg>
