<svg width="24" height="25" viewBox="0 0 24 25" fill="none" xmlns="http://www.w3.org/2000/svg">
<path fill-rule="evenodd" clip-rule="evenodd" d="M7.31106 18.8774L4.23261 21.4653C4.12328 21.5572 3.98999 21.616 3.8484 21.6347C3.70681 21.6535 3.56281 21.6314 3.43334 21.5711C3.30387 21.5108 3.19431 21.4148 3.11755 21.2943C3.04078 21.1739 3 21.034 3 20.8912V6.00147C3 5.80255 3.07902 5.61179 3.21967 5.47114C3.36032 5.33048 3.55109 5.25146 3.75 5.25146H20.25C20.4489 5.25146 20.6397 5.33048 20.7803 5.47114C20.921 5.61179 21 5.80255 21 6.00147V18.0015C21 18.2004 20.921 18.3912 20.7803 18.5318C20.6397 18.6725 20.4489 18.7515 20.25 18.7515H7.65665L7.31106 18.8774ZM8.25 10.1265C8.25 9.71226 8.58579 9.37647 9 9.37647H15C15.4142 9.37647 15.75 9.71226 15.75 10.1265C15.75 10.5407 15.4142 10.8765 15 10.8765H9C8.58579 10.8765 8.25 10.5407 8.25 10.1265ZM9 13.1265C8.58579 13.1265 8.25 13.4623 8.25 13.8765C8.25 14.2907 8.58579 14.6265 9 14.6265H15C15.4142 14.6265 15.75 14.2907 15.75 13.8765C15.75 13.4623 15.4142 13.1265 15 13.1265H9Z" fill="#0E0E10" fill-opacity="0.1"/>
<path fill-rule="evenodd" clip-rule="evenodd" d="M8.25 10.1265C8.25 9.71225 8.58579 9.37646 9 9.37646H15C15.4142 9.37646 15.75 9.71225 15.75 10.1265C15.75 10.5407 15.4142 10.8765 15 10.8765H9C8.58579 10.8765 8.25 10.5407 8.25 10.1265Z" fill="white"/>
<path fill-rule="evenodd" clip-rule="evenodd" d="M8.25 13.8765C8.25 13.4623 8.58579 13.1265 9 13.1265H15C15.4142 13.1265 15.75 13.4623 15.75 13.8765C15.75 14.2907 15.4142 14.6265 15 14.6265H9C8.58579 14.6265 8.25 14.2907 8.25 13.8765Z" fill="white"/>
<path d="M7.31106 18.8774L4.23261 21.4653C4.12328 21.5572 3.98999 21.616 3.8484 21.6347C3.70681 21.6535 3.56281 21.6314 3.43334 21.5711C3.30387 21.5108 3.19431 21.4148 3.11755 21.2943C3.04078 21.1739 3 21.034 3 20.8912V6.00147C3 5.80255 3.07902 5.61179 3.21967 5.47114C3.36032 5.33048 3.55109 5.25146 3.75 5.25146H20.25C20.4489 5.25146 20.6397 5.33048 20.7803 5.47114C20.921 5.61179 21 5.80255 21 6.00147V18.0015C21 18.2004 20.921 18.3912 20.7803 18.5318C20.6397 18.6725 20.4489 18.7515 20.25 18.7515H7.65665L7.31106 18.8774Z" stroke="white" stroke-linecap="round" stroke-linejoin="round"/>
</svg>
