<svg width="20" height="20" viewBox="0 0 20 20" fill="none" xmlns="http://www.w3.org/2000/svg">
<path d="M2.49951 3.75H6.24951V11.875H2.49951C2.33375 11.875 2.17478 11.8092 2.05757 11.6919C1.94036 11.5747 1.87451 11.4158 1.87451 11.25V4.375C1.87451 4.20924 1.94036 4.05027 2.05757 3.93306C2.17478 3.81585 2.33375 3.75 2.49951 3.75V3.75Z" stroke="#333333" stroke-width="1.25" stroke-linecap="round" stroke-linejoin="round"/>
<path d="M6.24951 11.875L9.37451 18.125C9.70282 18.125 10.0279 18.0603 10.3312 17.9347C10.6345 17.8091 10.9101 17.6249 11.1423 17.3928C11.3744 17.1606 11.5586 16.885 11.6842 16.5817C11.8098 16.2784 11.8745 15.9533 11.8745 15.625V13.75H16.7085C16.8858 13.75 17.061 13.7123 17.2226 13.6394C17.3841 13.5665 17.5283 13.4601 17.6456 13.3273C17.7629 13.1944 17.8506 13.0381 17.9029 12.8687C17.9552 12.6994 17.9709 12.5208 17.9489 12.345L17.0114 4.84496C16.9736 4.54264 16.8267 4.26453 16.5983 4.0629C16.3699 3.86127 16.0757 3.75 15.771 3.75H6.24951" stroke="#333333" stroke-width="1.25" stroke-linecap="round" stroke-linejoin="round"/>
</svg>
