<svg width="21" height="14" viewBox="0 0 21 14" fill="none" xmlns="http://www.w3.org/2000/svg">
<path d="M7.78112 9.4932C6.81179 9.4932 6.02844 10.3168 6.02844 11.3323C6.02844 12.3448 6.81179 13.1684 7.78112 13.1684C8.75045 13.1684 9.5338 12.3448 9.5338 11.3323C9.53376 10.3168 8.75045 9.4932 7.78112 9.4932ZM7.78112 12.2504C7.29644 12.2504 6.90475 11.837 6.90475 11.3322C6.90475 10.8245 7.29644 10.4141 7.78112 10.4141C8.26577 10.4141 8.65746 10.8245 8.65746 11.3322C8.65742 11.837 8.26577 12.2504 7.78112 12.2504ZM21 8.13478V10.0954C21 10.5845 20.6216 10.981 20.1546 10.981H19.2501C19.0867 9.80606 18.1202 8.90276 16.9536 8.90276C15.7899 8.90276 14.8234 9.80609 14.6599 10.981H10.0754C9.91193 9.80606 8.94542 8.90276 7.78167 8.90276C6.61792 8.90276 5.6514 9.80609 5.488 10.981H4.35524C3.88836 10.981 3.50992 10.5845 3.50992 10.0954V8.13478H21ZM16.9559 9.4932C15.9866 9.4932 15.2004 10.3168 15.2004 11.3323C15.2004 12.3448 15.9866 13.1684 16.9559 13.1684C17.9224 13.1684 18.7085 12.3448 18.7085 11.3323C18.7085 10.3168 17.9224 9.4932 16.9559 9.4932ZM16.9559 12.2504C16.4712 12.2504 16.0795 11.837 16.0795 11.3322C16.0795 10.8245 16.4712 10.4141 16.9559 10.4141C17.4377 10.4141 17.8322 10.8245 17.8322 11.3322C17.8322 11.837 17.4377 12.2504 16.9559 12.2504ZM20.6669 6.16038L17.3448 2.71835C17.1334 2.4999 16.8488 2.37591 16.5529 2.37591H14.8764V1.7176C14.8764 1.2276 14.4988 0.832031 14.0311 0.832031H4.35465C3.8897 0.832031 3.50933 1.22764 3.50933 1.7176V1.85636L0.0789216 2.27055L6.15746 3.09979L0 3.7406L6.13577 4.6545L0 5.21183L3.50954 5.90526L3.5093 7.64524H20.9994V6.99872C20.9994 6.68285 20.8783 6.38178 20.6669 6.16038ZM19.2186 6.27549H16.0035C15.9302 6.27549 15.871 6.21351 15.871 6.13677V3.53605C15.871 3.45931 15.9302 3.3973 16.0035 3.3973H16.6149C16.6487 3.3973 16.6826 3.41207 16.7079 3.43569L19.3088 6.0364C19.3961 6.12199 19.3369 6.27549 19.2186 6.27549Z" fill="black"/>
</svg>
