<svg width="16" height="16" viewBox="0 0 16 16" fill="none" xmlns="http://www.w3.org/2000/svg">
<path d="M2.66927 3.9987H1.33594V13.332C1.33594 14.0654 1.93594 14.6654 2.66927 14.6654H12.0026V13.332H2.66927V3.9987ZM13.3359 1.33203H5.33594C4.6026 1.33203 4.0026 1.93203 4.0026 2.66536V10.6654C4.0026 11.3987 4.6026 11.9987 5.33594 11.9987H13.3359C14.0693 11.9987 14.6693 11.3987 14.6693 10.6654V2.66536C14.6693 1.93203 14.0693 1.33203 13.3359 1.33203ZM12.6693 7.33203H10.0026V9.9987H8.66927V7.33203H6.0026V5.9987H8.66927V3.33203H10.0026V5.9987H12.6693V7.33203Z" fill="black" fill-opacity="0.54"/>
</svg>
