<svg width="24" height="24" viewBox="0 0 24 24" fill="none" xmlns="http://www.w3.org/2000/svg">
<path d="M12 21C16.9706 21 21 16.9706 21 12C21 7.02944 16.9706 3 12 3C7.02944 3 3 7.02944 3 12C3 16.9706 7.02944 21 12 21Z" stroke="#333333" stroke-width="1.5" stroke-linecap="round" stroke-linejoin="round"/>
<path d="M8.625 10.875C9.24632 10.875 9.75 10.3713 9.75 9.75C9.75 9.12868 9.24632 8.625 8.625 8.625C8.00368 8.625 7.5 9.12868 7.5 9.75C7.5 10.3713 8.00368 10.875 8.625 10.875Z" fill="#333333"/>
<path d="M15.375 10.875C15.9963 10.875 16.5 10.3713 16.5 9.75C16.5 9.12868 15.9963 8.625 15.375 8.625C14.7537 8.625 14.25 9.12868 14.25 9.75C14.25 10.3713 14.7537 10.875 15.375 10.875Z" fill="#333333"/>
<path d="M15.8983 14.25C15.5031 14.9342 14.9349 15.5023 14.2507 15.8973C13.5664 16.2923 12.7903 16.5002 12.0002 16.5002C11.2101 16.5003 10.4339 16.2923 9.74968 15.8973C9.06543 15.5023 8.49719 14.9342 8.10205 14.2501" stroke="#333333" stroke-width="1.5" stroke-linecap="round" stroke-linejoin="round"/>
</svg>
