<svg width="16" height="16" viewBox="0 0 16 16" fill="none" xmlns="http://www.w3.org/2000/svg">
<g clip-path="url(#clip0_18324_86112)">
<path d="M15.1533 15.1543L1.84667 1.84766L1.33333 1.33432L0.846667 0.847656L0 1.69432L2.92667 4.62099L4.4 7.72766L3.5 9.36099C3.39333 9.54766 3.33333 9.76766 3.33333 10.001C3.33333 10.7343 3.93333 11.3343 4.66667 11.3343H9.64L10.56 12.2543C10.2267 12.4943 10.0067 12.8877 10.0067 13.3343C10.0067 14.0677 10.6 14.6677 11.3333 14.6677C11.78 14.6677 12.1733 14.4477 12.4133 14.1077L14.3067 16.001L15.1533 15.1543ZM4.94667 10.001C4.85333 10.001 4.78 9.92766 4.78 9.83432L4.8 9.75432L5.4 8.66766H6.97333L8.30667 10.001H4.94667ZM10.3667 8.66766C10.8667 8.66766 11.3067 8.39432 11.5333 7.98099L13.92 3.65432C13.9733 3.56099 14 3.44766 14 3.33432C14 2.96766 13.7 2.66766 13.3333 2.66766H4.36L10.3667 8.66766ZM4.66667 12.001C3.93333 12.001 3.34 12.601 3.34 13.3343C3.34 14.0677 3.93333 14.6677 4.66667 14.6677C5.4 14.6677 6 14.0677 6 13.3343C6 12.601 5.4 12.001 4.66667 12.001Z" fill="black" fill-opacity="0.54"/>
</g>
<defs>
<clipPath id="clip0_18324_86112">
<rect width="16" height="16" fill="white"/>
</clipPath>
</defs>
</svg>
