<svg width="33" height="33" viewBox="0 0 33 33" fill="none" xmlns="http://www.w3.org/2000/svg">
<path d="M28.5308 29.0601C23.6237 33.066 8.30394 33.066 3.49539 29.0601C-1.41171 25.0541 -0.911851 7.93204 3.49539 3.42623C7.90264 -1.07958 24.1236 -1.07958 28.5308 3.42623C32.938 7.93204 33.4379 25.0541 28.5308 29.0601Z" fill="#009ADA" fill-opacity="0.05"/>
<path d="M16.1109 22.0494C11.7107 25.5555 6.80358 27.3578 2.19217 27.4564C-1.20831 21.6481 -0.511318 7.53224 3.49463 3.42773C7.09928 -0.275484 18.4131 -0.979517 24.9254 1.32267C26.5235 7.93354 23.2216 16.3397 16.1109 22.0494Z" fill="#009ADA" fill-opacity="0.05"/>
<path fill-rule="evenodd" clip-rule="evenodd" d="M23.9925 15.1404C23.5828 11.4266 20.6349 8.47869 16.9211 8.06901V6.23438H15.1399V8.06901C11.4261 8.47869 8.4782 11.4266 8.06853 15.1404H6.23389V16.9216H8.06853C8.4782 20.6354 11.4261 23.5833 15.1399 23.993V25.8276H16.9211V23.993C20.6349 23.5833 23.5828 20.6354 23.9925 16.9216H25.8271V15.1404H23.9925ZM16.0305 12.4686C14.0623 12.4686 12.4681 14.0628 12.4681 16.031C12.4681 17.9992 14.0623 19.5934 16.0305 19.5934C17.9987 19.5934 19.5929 17.9992 19.5929 16.031C19.5929 14.0628 17.9987 12.4686 16.0305 12.4686ZM9.79629 16.031C9.79629 19.4776 12.5839 22.2652 16.0305 22.2652C19.4771 22.2652 22.2647 19.4776 22.2647 16.031C22.2647 12.5844 19.4771 9.79678 16.0305 9.79678C12.5839 9.79678 9.79629 12.5844 9.79629 16.031Z" fill="#009ADA"/>
</svg>
