<svg width="16" height="16" viewBox="0 0 16 16" fill="none" xmlns="http://www.w3.org/2000/svg">
<path fill-rule="evenodd" clip-rule="evenodd" d="M8.00002 6.94523L13.8532 0.765385C14.1292 0.474038 14.5767 0.474038 14.8527 0.765385C15.1287 1.05673 15.1287 1.5291 14.8527 1.82044L8.99814 7.9988L14.8527 14.1772C15.1287 14.4685 15.1287 14.9409 14.8527 15.2322C14.5767 15.5236 14.1292 15.5236 13.8532 15.2322L8.00002 9.05237L2.14685 15.2322C1.87083 15.5236 1.42333 15.5236 1.14732 15.2322C0.871305 14.9409 0.871305 14.4685 1.14732 14.1772L7.00191 7.9988L1.14732 1.82044C0.871304 1.5291 0.871304 1.05673 1.14732 0.765385C1.42333 0.474038 1.87083 0.474038 2.14685 0.765385L8.00002 6.94523Z" fill="white"/>
</svg>
