<svg width="178" height="177" viewBox="0 0 178 177" fill="none" xmlns="http://www.w3.org/2000/svg">
<rect x="0.5" width="177" height="177" fill="#F1F1F1"/>
<path d="M83.3749 83.75C84.8246 83.75 85.9999 82.5747 85.9999 81.125C85.9999 79.6753 84.8246 78.5 83.3749 78.5C81.9251 78.5 80.7499 79.6753 80.7499 81.125C80.7499 82.5747 81.9251 83.75 83.3749 83.75Z" fill="#999999"/>
<path d="M107 67.9999H72.0001C71.0722 68.001 70.1826 68.3701 69.5264 69.0262C68.8703 69.6824 68.5012 70.572 68.5001 71.4999V99.4942L68.4999 99.501L68.5001 106.5C68.5012 107.428 68.8703 108.317 69.5264 108.974C70.1826 109.63 71.0722 109.999 72.0001 110H107C107.928 109.999 108.818 109.63 109.474 108.974C110.13 108.317 110.499 107.428 110.5 106.5V71.4999C110.499 70.572 110.13 69.6824 109.474 69.0262C108.818 68.3701 107.928 68.001 107 67.9999ZM100.725 85.4999C100.068 84.8445 99.1779 84.4765 98.25 84.4765C97.3221 84.4765 96.432 84.8445 95.7751 85.4999L86.0001 95.2751L81.4749 90.7499C80.8179 90.0947 79.9279 89.7267 79 89.7267C78.0721 89.7267 77.1821 90.0947 76.5251 90.7499L72.0001 95.2747V71.4999H107L107.001 91.7763L100.725 85.4999Z" fill="#999999"/>
<path d="M38 88C38 59.8305 60.8305 37 89 37C117.17 37 140 59.8305 140 88C140 116.17 117.17 139 89 139C60.8305 139 38 116.17 38 88Z" fill="#DADDE1"/>
<path d="M107.707 80.2305L110.296 70.5285H100.595L97.9848 80.2305H107.707Z" fill="#F173AC"/>
<path d="M112.866 60.8662L110.256 70.5682H119.978L122.587 60.8662H112.866Z" fill="#F6F6F6"/>
<path d="M86.1516 70.5283H76.4297L73.8398 80.2303H83.5418L86.1516 70.5283Z" fill="#F6F6F6"/>
<path d="M73.8602 80.2109H64.1582L61.5684 89.9129H71.2504L73.8602 80.2109Z" fill="#F6F6F6"/>
<path d="M95.6141 80.2303L98.2238 70.5283H88.502L85.9121 80.2303H95.6141Z" fill="#F6F6F6"/>
<path d="M95.1555 82.5215H85.4336L82.8438 92.2234H92.5457L95.1555 82.5215Z" fill="#F6F6F6"/>
<path d="M107.686 80.2303L110.296 70.5283H100.594L97.9844 80.2303H107.686Z" fill="#F6F6F6"/>
<path d="M67.7031 104.237H77.4051L79.9949 94.5146H70.293L67.7031 104.237Z" fill="#F6F6F6"/>
<path d="M104.161 94.5146H94.4594L91.8496 104.237H101.552L104.161 94.5146Z" fill="#F6F6F6"/>
<path d="M55.4121 113.898H65.1141L67.7039 104.196H58.0219L55.4121 113.898Z" fill="#F6F6F6"/>
<path d="M98.9414 113.898H108.643L111.233 104.196H101.531L98.9414 113.898Z" fill="#F6F6F6"/>
<path d="M103.323 60.2888C103.323 64.7313 99.7172 68.3173 95.2746 68.3173C90.832 68.3173 87.2461 64.7114 87.2461 60.2688C87.2461 55.8263 90.852 52.2403 95.2746 52.2403C99.7172 52.2204 103.323 55.8263 103.323 60.2888C103.323 60.2688 103.323 60.2688 103.323 60.2888Z" fill="#F6F6F6"/>
<path d="M133.187 77.302C133.386 75.509 132.091 73.8953 130.298 73.6961C130.159 73.6762 130.019 73.6762 129.9 73.6762H129.043C129.202 74.3934 129.262 75.1305 129.182 75.8477H128.127C128.186 75.1105 128.127 74.3734 127.907 73.6762H116.373C116.054 74.3535 115.855 75.0906 115.775 75.8477H114.719C114.779 75.0906 114.958 74.3734 115.237 73.6762H114.38C112.348 73.716 110.655 75.2699 110.436 77.302L106.471 92.7813C106.272 94.5742 107.567 96.1879 109.36 96.3871C109.5 96.407 109.639 96.407 109.779 96.407H130.557C132.589 96.3672 134.282 94.8133 134.502 92.7813L133.187 77.302Z" fill="#F6F6F6"/>
<path d="M122.489 69.6918C124.979 69.652 127.21 71.2855 127.907 73.6762H129.023C128.346 70.6879 125.656 68.5762 122.588 68.616C119.361 68.616 116.452 70.7477 115.257 73.6762H116.393C117.488 71.2855 119.859 69.7516 122.489 69.6918Z" fill="#F6F6F6"/>
<path d="M110.715 80.4894H113.145L113.584 82.7805L114.121 85.6691L115.616 83.5773L116.811 81.9238C116.95 81.7047 117.13 81.4656 117.309 81.2066L117.807 80.5094H120.277L112.807 90.6098L111.253 82.9797L110.715 80.4894Z" fill="#DADDE1"/>
<path d="M129.939 89.9723H127.788L130.298 80.6289H132.43L129.939 89.9723Z" fill="#DADDE1"/>
<path d="M122.529 82.3621L122.628 82.0234C122.788 81.4656 122.449 80.8879 121.891 80.7484C121.811 80.7285 121.712 80.7086 121.612 80.7086C121.134 80.7086 120.716 81.0273 120.596 81.4855L120.516 81.8242C120.357 82.382 120.696 82.9598 121.254 83.0992C121.333 83.1191 121.433 83.1391 121.532 83.1391C121.991 83.1391 122.409 82.8203 122.529 82.3621Z" fill="#DADDE1"/>
<path d="M128.286 82.382L128.386 82.0234C128.525 81.4656 128.206 80.9078 127.648 80.7684C127.569 80.7484 127.469 80.7285 127.389 80.7285C126.931 80.7285 126.513 81.0473 126.393 81.4855L126.294 81.8441C126.154 82.402 126.473 82.9598 127.011 83.0992C127.091 83.1191 127.19 83.1391 127.29 83.1391C127.748 83.1391 128.166 82.8203 128.286 82.382Z" fill="#DADDE1"/>
<path d="M125.377 85.2707L125.019 86.6055C124.959 86.8445 124.839 87.0637 124.7 87.2629C124.541 87.4621 124.361 87.6613 124.162 87.8008C123.963 87.9602 123.724 88.0797 123.485 88.1793C123.246 88.259 123.007 88.3187 122.748 88.3187C122.509 88.3187 122.289 88.2789 122.07 88.1793C121.891 88.0996 121.712 87.9801 121.592 87.8008C121.473 87.6414 121.393 87.4621 121.353 87.2629C121.313 87.0437 121.333 86.8246 121.393 86.6055L121.752 85.2707H119.58L119.241 86.5656C119.102 87.0437 119.082 87.5418 119.162 88.0398C119.321 88.9363 119.919 89.6934 120.736 90.0519C121.194 90.2512 121.692 90.3508 122.21 90.3508C122.768 90.3508 123.305 90.2512 123.823 90.0519C124.361 89.8527 124.859 89.5937 125.298 89.2352C125.736 88.8965 126.134 88.498 126.473 88.0398C126.792 87.6016 127.031 87.1035 127.17 86.5656L127.529 85.2707H125.377Z" fill="#DADDE1"/>
</svg>
