<svg width="30" height="30" viewBox="0 0 30 30" fill="none" xmlns="http://www.w3.org/2000/svg">
<g clip-path="url(#clip0_183_8113)">
<path d="M0.0170898 10.0625C0.0170898 6.50318 0.0170898 4.72352 0.720756 3.36891C1.31373 2.22739 2.24448 1.29664 3.386 0.703666C4.74061 0 6.52027 0 10.0796 0H19.9546C23.5139 0 25.2936 0 26.6482 0.703666C27.7897 1.29664 28.7204 2.22739 29.3134 3.36891C30.0171 4.72352 30.0171 6.50318 30.0171 10.0625V19.9375C30.0171 23.4968 30.0171 25.2765 29.3134 26.6311C28.7204 27.7726 27.7897 28.7034 26.6482 29.2963C25.2936 30 23.5139 30 19.9546 30H10.0796C6.52027 30 4.74061 30 3.386 29.2963C2.24448 28.7034 1.31373 27.7726 0.720756 26.6311C0.0170898 25.2765 0.0170898 23.4968 0.0170898 19.9375V10.0625Z" fill="url(#paint0_radial_183_8113)"/>
<path d="M0.0170898 10.0625C0.0170898 6.50318 0.0170898 4.72352 0.720756 3.36891C1.31373 2.22739 2.24448 1.29664 3.386 0.703666C4.74061 0 6.52027 0 10.0796 0H19.9546C23.5139 0 25.2936 0 26.6482 0.703666C27.7897 1.29664 28.7204 2.22739 29.3134 3.36891C30.0171 4.72352 30.0171 6.50318 30.0171 10.0625V19.9375C30.0171 23.4968 30.0171 25.2765 29.3134 26.6311C28.7204 27.7726 27.7897 28.7034 26.6482 29.2963C25.2936 30 23.5139 30 19.9546 30H10.0796C6.52027 30 4.74061 30 3.386 29.2963C2.24448 28.7034 1.31373 27.7726 0.720756 26.6311C0.0170898 25.2765 0.0170898 23.4968 0.0170898 19.9375V10.0625Z" fill="url(#paint1_radial_183_8113)"/>
<path d="M15.0005 4.09094C12.0379 4.09094 11.666 4.1039 10.5024 4.15685C9.34112 4.21003 8.54841 4.3939 7.8548 4.66367C7.13732 4.94231 6.5287 5.31503 5.92236 5.92162C5.31556 6.52799 4.94284 7.13662 4.6633 7.8539C4.39286 8.54776 4.20877 9.34071 4.1565 10.5016C4.10446 11.6653 4.09082 12.0373 4.09082 15C4.09082 17.9628 4.104 18.3334 4.15673 19.4971C4.21014 20.6584 4.39399 21.4512 4.66353 22.1448C4.94239 22.8623 5.3151 23.4709 5.92167 24.0773C6.52779 24.6841 7.13641 25.0578 7.85343 25.3364C8.5475 25.6062 9.34043 25.79 10.5015 25.8432C11.6651 25.8962 12.0367 25.9091 14.9991 25.9091C17.962 25.9091 18.3327 25.8962 19.4963 25.8432C20.6576 25.79 21.4512 25.6062 22.1453 25.3364C22.8625 25.0578 23.4702 24.6841 24.0763 24.0773C24.6831 23.4709 25.0559 22.8623 25.3354 22.145C25.6036 21.4512 25.7877 20.6582 25.8422 19.4973C25.8945 18.3337 25.9081 17.9628 25.9081 15C25.9081 12.0373 25.8945 11.6655 25.8422 10.5019C25.7877 9.34049 25.6036 8.54776 25.3354 7.85412C25.0559 7.13662 24.6831 6.52799 24.0763 5.92162C23.4696 5.31481 22.8628 4.94208 22.1446 4.66367C21.4492 4.3939 20.656 4.21003 19.4947 4.15685C18.3311 4.1039 17.9606 4.09094 14.9971 4.09094H15.0005ZM14.0219 6.05685C14.3123 6.0564 14.6364 6.05685 15.0005 6.05685C17.9131 6.05685 18.2583 6.06731 19.4085 6.11958C20.4721 6.16822 21.0494 6.34594 21.4339 6.49526C21.943 6.69299 22.3059 6.92935 22.6875 7.31117C23.0693 7.69299 23.3057 8.05662 23.5039 8.56571C23.6532 8.94981 23.8311 9.52708 23.8795 10.5907C23.9318 11.7407 23.9432 12.0862 23.9432 14.9975C23.9432 17.9089 23.9318 18.2543 23.8795 19.4043C23.8309 20.468 23.6532 21.0453 23.5039 21.4293C23.3061 21.9384 23.0693 22.3009 22.6875 22.6825C22.3057 23.0644 21.9432 23.3007 21.4339 23.4984C21.0498 23.6484 20.4721 23.8257 19.4085 23.8743C18.2586 23.9266 17.9131 23.938 15.0005 23.938C12.0876 23.938 11.7424 23.9266 10.5924 23.8743C9.52884 23.8253 8.95158 23.6475 8.56682 23.4982C8.05775 23.3005 7.69412 23.0641 7.31231 22.6823C6.93051 22.3005 6.69415 21.9378 6.49597 21.4284C6.34666 21.0443 6.16871 20.4671 6.1203 19.4034C6.06803 18.2534 6.05758 17.908 6.05758 14.9948C6.05758 12.0816 6.06803 11.738 6.1203 10.588C6.16894 9.52435 6.34666 8.94708 6.49597 8.56253C6.6937 8.05344 6.93051 7.68981 7.31231 7.30799C7.69412 6.92617 8.05775 6.68981 8.56682 6.49162C8.95135 6.34162 9.52884 6.16435 10.5924 6.11549C11.5988 6.07003 11.9888 6.0564 14.0219 6.05412V6.05685ZM20.8235 7.86821C20.1008 7.86821 19.5144 8.4539 19.5144 9.17685C19.5144 9.89958 20.1008 10.4859 20.8235 10.4859C21.5462 10.4859 22.1325 9.89958 22.1325 9.17685C22.1325 8.45412 21.5462 7.86776 20.8235 7.86776V7.86821ZM15.0005 9.39776C11.9067 9.39776 9.39839 11.9062 9.39839 15C9.39839 18.0939 11.9067 20.6012 15.0005 20.6012C18.0943 20.6012 20.6017 18.0939 20.6017 15C20.6017 11.9062 18.094 9.39776 15.0003 9.39776H15.0005ZM15.0005 11.3637C17.0086 11.3637 18.6367 12.9916 18.6367 15C18.6367 17.0082 17.0086 18.6364 15.0005 18.6364C12.9921 18.6364 11.3642 17.0082 11.3642 15C11.3642 12.9916 12.9921 11.3637 15.0005 11.3637Z" fill="white"/>
</g>
<defs>
<radialGradient id="paint0_radial_183_8113" cx="0" cy="0" r="1" gradientUnits="userSpaceOnUse" gradientTransform="translate(7.98588 32.3106) rotate(-90) scale(29.7322 27.6533)">
<stop stop-color="#FFDD55"/>
<stop offset="0.1" stop-color="#FFDD55"/>
<stop offset="0.5" stop-color="#FF543E"/>
<stop offset="1" stop-color="#C837AB"/>
</radialGradient>
<radialGradient id="paint1_radial_183_8113" cx="0" cy="0" r="1" gradientUnits="userSpaceOnUse" gradientTransform="translate(-5.00807 2.16115) rotate(78.6806) scale(13.2904 54.7837)">
<stop stop-color="#3771C8"/>
<stop offset="0.128" stop-color="#3771C8"/>
<stop offset="1" stop-color="#6600FF" stop-opacity="0"/>
</radialGradient>
<clipPath id="clip0_183_8113">
<rect width="30" height="30" fill="white"/>
</clipPath>
</defs>
</svg>
