<svg width="43" height="30" viewBox="0 0 43 30" fill="none" xmlns="http://www.w3.org/2000/svg">
<rect x="0.5" y="0.5" width="42" height="29" rx="3.5" fill="white" stroke="#DADADA"/>
<path d="M27.8005 14.9428C28.4724 14.9572 29.1481 14.9135 29.8173 14.9655C30.495 15.0905 30.6584 16.1045 30.0563 16.4366C29.6455 16.6554 29.1574 16.5181 28.7121 16.5567H27.8005V14.9428V14.9428ZM30.2058 13.1161C30.3551 13.6368 29.8472 14.1044 29.3397 14.0327H27.8005C27.8113 13.5416 27.7794 13.0085 27.8162 12.5433C28.4328 12.5604 29.055 12.5083 29.6681 12.5706C29.9315 12.636 30.1519 12.85 30.2058 13.1161V13.1161ZM33.91 5.3931C33.9387 6.38765 33.9142 7.43477 33.9224 8.44949C33.9205 12.575 33.9264 16.7004 33.9191 20.8261C33.8921 22.3722 32.5058 23.7157 30.9523 23.7466C29.3973 23.7528 27.842 23.7475 26.2868 23.7492V17.5123C27.9813 17.5037 29.6766 17.5299 31.3704 17.4993C32.1562 17.4505 33.0168 16.9381 33.0534 16.0834C33.1459 15.2251 32.3272 14.6314 31.5498 14.5377C31.251 14.53 31.2597 14.4516 31.5498 14.4174C32.2912 14.259 32.8734 13.5005 32.6553 12.741C32.4694 11.9421 31.576 11.6329 30.8329 11.6344C29.3178 11.6243 27.8024 11.633 26.2872 11.6301C26.2969 10.4657 26.2667 9.3001 26.3034 8.1366C26.4235 6.61837 27.8447 5.36634 29.3764 5.3935C30.8878 5.39327 32.399 5.39327 33.91 5.39322V5.3931Z" fill="url(#paint0_linear_183_7827)"/>
<path d="M9.16469 8.29388C9.20339 6.7502 10.5957 5.41775 12.1472 5.39519C13.6964 5.39047 15.2459 5.39451 16.7951 5.39314C16.7909 10.558 16.8035 15.7234 16.7888 20.8879C16.7291 22.4128 15.352 23.7199 13.8174 23.7469C12.2652 23.7525 10.7128 23.7477 9.16061 23.7492V17.3021C10.6683 17.6541 12.2494 17.804 13.7876 17.5705C14.707 17.4242 15.713 16.978 16.0243 16.0352C16.2534 15.2287 16.1244 14.38 16.1585 13.5523V11.6301H13.4966C13.4846 12.9014 13.521 14.1749 13.4773 15.4447C13.4055 16.2252 12.6235 16.721 11.8788 16.6946C10.9551 16.7042 9.12485 16.033 9.12485 16.033C9.12025 13.6511 9.15164 10.6681 9.16469 8.29411V8.29388Z" fill="url(#paint1_linear_183_7827)"/>
<path d="M17.7879 12.4055C17.6478 12.4348 17.7597 11.9337 17.7239 11.7436C17.7334 10.5417 17.7039 9.3385 17.7402 8.13744C17.8599 6.6128 19.292 5.35763 20.8299 5.39332H25.3588C25.3545 10.5581 25.3671 15.7235 25.3524 20.8881C25.2926 22.413 23.9154 23.72 22.3808 23.7471C20.8286 23.7529 19.2762 23.748 17.7238 23.7494V16.6857C18.784 17.5455 20.2249 17.6793 21.5457 17.6816C22.5414 17.6813 23.5314 17.5295 24.4983 17.3026V16.0085C23.4086 16.5453 22.1276 16.8862 20.9196 16.5778C20.0769 16.3705 19.4652 15.5656 19.4788 14.7061C19.3812 13.8122 19.9113 12.8686 20.8001 12.6028C21.9035 12.2614 23.1061 12.5225 24.1404 12.9664C24.362 13.0811 24.5869 13.2233 24.4983 12.8572V11.8401C22.7684 11.4333 20.9275 11.2836 19.1896 11.7261C18.6866 11.8664 18.1965 12.0791 17.7879 12.4056V12.4055Z" fill="url(#paint2_linear_183_7827)"/>
<defs>
<linearGradient id="paint0_linear_183_7827" x1="26.2347" y1="14.1787" x2="33.8743" y2="14.1787" gradientUnits="userSpaceOnUse">
<stop stop-color="#58B03A"/>
<stop offset="1" stop-color="#55B330"/>
</linearGradient>
<linearGradient id="paint1_linear_183_7827" x1="8.99817" y1="14.747" x2="16.67" y2="14.747" gradientUnits="userSpaceOnUse">
<stop stop-color="#0F6EB6"/>
<stop offset="1" stop-color="#006DBA"/>
</linearGradient>
<linearGradient id="paint2_linear_183_7827" x1="17.7126" y1="14.3567" x2="25.3573" y2="14.3567" gradientUnits="userSpaceOnUse">
<stop stop-color="#DE0D3D"/>
<stop offset="1" stop-color="#E30138"/>
</linearGradient>
</defs>
</svg>
