<svg width="16" height="14" viewBox="0 0 16 14" fill="none" xmlns="http://www.w3.org/2000/svg">
<path d="M5.99996 14H12C12.5533 14 13.0266 13.6666 13.2266 13.1866L15.24 8.48663C15.3 8.33329 15.3333 8.17329 15.3333 7.99996V6.66663C15.3333 5.93329 14.7333 5.33329 14 5.33329H9.79329L10.4266 2.28663L10.4466 2.07329C10.4466 1.79996 10.3333 1.54663 10.1533 1.36663L9.44663 0.666626L5.05329 5.05996C4.81329 5.29996 4.66663 5.63329 4.66663 5.99996V12.6666C4.66663 13.4 5.26663 14 5.99996 14ZM5.99996 5.99996L8.89329 3.10663L7.99996 6.66663H14V7.99996L12 12.6666H5.99996V5.99996ZM0.666626 5.99996H3.33329V14H0.666626V5.99996Z" fill="black" fill-opacity="0.54"/>
</svg>
