<svg width="14" height="13" viewBox="0 0 14 13" fill="none" xmlns="http://www.w3.org/2000/svg">
<path d="M13.4917 4.00726C13.3509 3.84786 13.1778 3.7202 12.984 3.63274C12.7901 3.54529 12.5799 3.50004 12.3672 3.5H9V2.5C8.99925 1.83719 8.73561 1.20174 8.26693 0.733065C7.79826 0.264387 7.16281 0.000752995 6.5 1.54018e-09C6.40714 -7.2861e-06 6.31612 0.0258476 6.23713 0.0746666C6.15814 0.123486 6.09431 0.193339 6.05279 0.276397L3.69098 5H1C0.734877 5.0003 0.480699 5.10576 0.293228 5.29323C0.105757 5.4807 0.000303211 5.73488 0 6V11.5C0.000303211 11.7651 0.105757 12.0193 0.293228 12.2068C0.480699 12.3942 0.734877 12.4997 1 12.5H11.6172C11.9827 12.4995 12.3354 12.3658 12.6094 12.1239C12.8834 11.882 13.0598 11.5486 13.1056 11.186L13.8556 5.18604C13.882 4.97498 13.8631 4.76075 13.8004 4.55753C13.7376 4.35431 13.6324 4.16674 13.4917 4.00726ZM1 6H3.5V11.5H1V6Z" fill="#F05A94"/>
</svg>
