<svg width="16" height="14" viewBox="0 0 16 14" fill="none" xmlns="http://www.w3.org/2000/svg">
<path d="M6.00033 14.0003H12.0003C12.5537 14.0003 13.027 13.667 13.227 13.187L15.2403 8.48699C15.3003 8.33366 15.3337 8.17366 15.3337 8.00033V6.66699C15.3337 5.93366 14.7337 5.33366 14.0003 5.33366H9.79366L10.427 2.28699L10.447 2.07366C10.447 1.80033 10.3337 1.54699 10.1537 1.36699L9.44699 0.666992L5.05366 5.06033C4.81366 5.30033 4.66699 5.63366 4.66699 6.00033V12.667C4.66699 13.4003 5.26699 14.0003 6.00033 14.0003ZM6.00033 6.00033L8.89366 3.10699L8.00033 6.66699H14.0003V8.00033L12.0003 12.667H6.00033V6.00033ZM0.666992 6.00033H3.33366V14.0003H0.666992V6.00033Z" fill="#4834D6"/>
</svg>
