<svg width="16" height="16" viewBox="0 0 16 16" fill="none" xmlns="http://www.w3.org/2000/svg">
<path d="M13.333 4.6665H2.66634C1.92996 4.6665 1.33301 5.26346 1.33301 5.99984V13.3332C1.33301 14.0696 1.92996 14.6665 2.66634 14.6665H13.333C14.0694 14.6665 14.6663 14.0696 14.6663 13.3332V5.99984C14.6663 5.26346 14.0694 4.6665 13.333 4.6665Z" stroke="white" stroke-linecap="round" stroke-linejoin="round"/>
<path d="M11.3337 1.3335L8.00033 4.66683L4.66699 1.3335" stroke="white" stroke-linecap="round" stroke-linejoin="round"/>
<path d="M6.40039 10.234C6.40039 11.0113 7.24836 11.4914 7.91489 11.0915L8.97124 10.4577C9.61858 10.0693 9.61857 9.13111 8.97124 8.7427L7.91489 8.10889C7.24836 7.70898 6.40039 8.18909 6.40039 8.96639V10.234Z" stroke="white" stroke-linecap="round" stroke-linejoin="round"/>
</svg>
