<svg width="18" height="18" viewBox="0 0 18 18" fill="none" xmlns="http://www.w3.org/2000/svg">
<path d="M2.125 15L15.875 15C16.6344 15 17.25 14.3284 17.25 13.5V3C17.25 2.17157 16.6344 1.5 15.875 1.5L2.125 1.5C1.36561 1.5 0.75 2.17157 0.75 3V13.5C0.75 14.3284 1.36561 15 2.125 15Z" stroke="#666666" stroke-width="1.25" stroke-linecap="round" stroke-linejoin="round"/>
<path d="M11.25 17.25H6.75" stroke="#666666" stroke-width="1.25" stroke-linecap="round" stroke-linejoin="round"/>
<path d="M11.8744 8.03666L7.14944 5.28669C7.10964 5.26352 7.06409 5.25088 7.01745 5.25004C6.97082 5.24921 6.9248 5.26023 6.88412 5.28195C6.84344 5.30368 6.80957 5.33534 6.786 5.37367C6.76243 5.41199 6.75 5.45561 6.75 5.50003V11C6.75 11.0444 6.76243 11.088 6.786 11.1263C6.80957 11.1647 6.84344 11.1963 6.88412 11.218C6.9248 11.2398 6.97082 11.2508 7.01745 11.25C7.06409 11.2491 7.10964 11.2365 7.14944 11.2133L11.8744 8.46334C11.9127 8.44101 11.9444 8.40966 11.9664 8.3723C11.9884 8.33494 12 8.29283 12 8.25C12 8.20717 11.9884 8.16506 11.9664 8.1277C11.9444 8.09034 11.9127 8.05899 11.8744 8.03666Z" stroke="#666666" stroke-width="1.25" stroke-linecap="round" stroke-linejoin="round"/>
</svg>
