<svg width="20" height="20" viewBox="0 0 20 20" fill="none" xmlns="http://www.w3.org/2000/svg">
<path d="M0 10C0 4.46667 4.46667 0 10 0C15.5333 0 20 4.46667 20 10C20 15.5333 15.5333 20 10 20C4.46667 20 0 15.5333 0 10Z" fill="#009ADA"/>
<path d="M14.825 5.02148L14.3149 6.94605H16.2532L16.7632 5.02148H14.825Z" fill="white"/>
<path d="M9.48618 6.94922H7.54797L7.00391 8.87378H8.97612L9.48618 6.94922Z" fill="white"/>
<path d="M7.03843 8.87305H5.10021L4.55615 10.7976H6.49437L7.03843 8.87305Z" fill="white"/>
<path d="M11.3904 8.87378L11.9004 6.94922H9.9622L9.45215 8.87378H11.3904Z" fill="white"/>
<path d="M11.2894 9.34473H9.35119L8.80713 11.2693H10.7793L11.2894 9.34473Z" fill="white"/>
<path d="M13.8044 8.87378L14.3145 6.94922H12.3763L11.8662 8.87378H13.8044Z" fill="white"/>
<path d="M5.78027 13.6345H7.71849L8.26255 11.71H6.32433L5.78027 13.6345Z" fill="white"/>
<path d="M13.0913 11.71H11.1531L10.6431 13.6345H12.5813L13.0913 11.71Z" fill="white"/>
<path d="M3.33203 15.5564H5.27025L5.7803 13.6318H3.87609L3.33203 15.5564Z" fill="white"/>
<path d="M12.0366 15.5564H13.9748L14.4849 13.6318H12.5467L12.0366 15.5564Z" fill="white"/>
<path d="M12.9215 4.92188C12.9215 5.79976 12.2074 6.50881 11.3233 6.50881C10.4392 6.50881 9.7251 5.79976 9.7251 4.92188C9.7251 4.04401 10.4392 3.33496 11.3233 3.33496C12.2074 3.33496 12.9215 4.04401 12.9215 4.92188Z" fill="white"/>
</svg>
