<svg width="344" height="344" viewBox="0 0 344 344" fill="none" xmlns="http://www.w3.org/2000/svg">
<path d="M0 172C0 76.9969 76.9969 0 172 0C267.003 0 344 76.9969 344 172C344 267.003 267.003 344 172 344C76.9969 344 0 267.003 0 172Z" fill="#FFDD00"/>
<path d="M252.491 80.4902L243.689 113.211H276.477L285.279 80.4902H252.491Z" fill="#F173AC"/>
<path d="M162.393 113.076H129.605L120.871 145.796H153.591L162.393 113.076Z" fill="#F173AC"/>
<path d="M235.088 145.796L243.823 113.076H211.102L202.301 145.796H235.088Z" fill="#F173AC"/>
<path d="M120.937 145.73H88.2168L79.4824 178.451H112.136L120.937 145.73Z" fill="#F173AC"/>
<path d="M194.306 145.796L203.108 113.076H170.32L161.586 145.796H194.306Z" fill="#F173AC"/>
<path d="M192.76 153.523H159.973L151.238 186.244H183.959L192.76 153.523Z" fill="#F173AC"/>
<path d="M235.021 145.796L243.823 113.076H211.102L202.301 145.796H235.021Z" fill="#F173AC"/>
<path d="M100.176 226.758H132.896L141.63 193.971H108.91L100.176 226.758Z" fill="#F173AC"/>
<path d="M223.129 193.971H190.409L181.607 226.758H214.328L223.129 193.971Z" fill="#F173AC"/>
<path d="M58.7227 259.343H91.443L100.177 226.623H67.5242L58.7227 259.343Z" fill="#F173AC"/>
<path d="M205.527 259.343H238.248L246.982 226.623H214.262L205.527 259.343Z" fill="#F173AC"/>
<path d="M220.308 78.5425C220.308 93.5253 208.147 105.619 193.164 105.619C178.182 105.619 166.088 93.4581 166.088 78.4753C166.088 63.4925 178.249 51.3987 193.164 51.3987C208.147 51.3315 220.308 63.4925 220.308 78.5425C220.308 78.4753 220.308 78.4753 220.308 78.5425Z" fill="#F173AC"/>
<path d="M321.022 135.92C321.694 129.873 317.327 124.43 311.28 123.759C310.81 123.691 310.339 123.691 309.936 123.691H307.047C307.585 126.11 307.786 128.596 307.517 131.015H303.956C304.158 128.529 303.956 126.043 303.217 123.691H264.316C263.241 125.976 262.569 128.462 262.3 131.015H258.739C258.941 128.462 259.546 126.043 260.486 123.691H257.597C250.744 123.826 245.033 129.066 244.294 135.92L230.924 188.124C230.252 194.171 234.619 199.613 240.666 200.285C241.136 200.352 241.606 200.352 242.077 200.352H312.153C319.006 200.218 324.717 194.977 325.456 188.124L321.022 135.92Z" fill="#F173AC"/>
<path d="M284.942 110.255C293.34 110.121 300.865 115.63 303.217 123.692H306.979C304.695 113.614 295.625 106.492 285.278 106.627C274.393 106.627 264.584 113.816 260.553 123.692H264.382C268.078 115.63 276.073 110.457 284.942 110.255Z" fill="#F173AC"/>
<path d="M245.234 146.67H253.431L254.909 154.396L256.723 164.139L261.763 157.084L265.794 151.507C266.264 150.768 266.869 149.962 267.473 149.089L269.153 146.737H277.484L252.289 180.801L247.048 155.068L245.234 146.67Z" fill="white"/>
<path d="M310.071 178.652H302.814L311.28 147.141H318.469L310.071 178.652Z" fill="white"/>
<path d="M285.077 152.987L285.413 151.845C285.951 149.963 284.809 148.015 282.927 147.545C282.659 147.477 282.323 147.41 281.987 147.41C280.374 147.41 278.963 148.485 278.56 150.03L278.291 151.173C277.754 153.054 278.896 155.002 280.777 155.473C281.046 155.54 281.382 155.607 281.718 155.607C283.263 155.607 284.674 154.532 285.077 152.987Z" fill="white"/>
<path d="M304.493 153.053L304.829 151.844C305.299 149.963 304.224 148.081 302.343 147.611C302.074 147.544 301.739 147.477 301.47 147.477C299.924 147.477 298.514 148.552 298.11 150.03L297.774 151.239C297.304 153.12 298.379 155.002 300.193 155.472C300.462 155.539 300.798 155.606 301.134 155.606C302.679 155.606 304.09 154.531 304.493 153.053Z" fill="white"/>
<path d="M294.684 162.795L293.475 167.296C293.273 168.103 292.87 168.842 292.4 169.514C291.862 170.186 291.258 170.857 290.586 171.328C289.914 171.865 289.108 172.268 288.301 172.604C287.495 172.873 286.689 173.075 285.815 173.075C285.009 173.075 284.27 172.94 283.531 172.604C282.926 172.336 282.322 171.932 281.919 171.328C281.515 170.79 281.247 170.186 281.112 169.514C280.978 168.775 281.045 168.036 281.247 167.296L282.456 162.795H275.133L273.99 167.162C273.52 168.775 273.453 170.454 273.722 172.134C274.259 175.157 276.275 177.711 279.029 178.92C280.575 179.592 282.254 179.928 284.001 179.928C285.883 179.928 287.697 179.592 289.444 178.92C291.258 178.248 292.937 177.375 294.415 176.165C295.894 175.023 297.237 173.679 298.379 172.134C299.454 170.656 300.261 168.976 300.731 167.162L301.94 162.795H294.684Z" fill="white"/>
</svg>
