<svg width="42" height="30" viewBox="0 0 42 30" fill="none" xmlns="http://www.w3.org/2000/svg">
<rect x="0.5" y="0.5" width="41" height="29" rx="3.5" fill="white" stroke="#DADADA"/>
<path fill-rule="evenodd" clip-rule="evenodd" d="M21.2211 21.0368C19.7584 22.2844 17.8611 23.0375 15.7879 23.0375C11.1619 23.0375 7.41174 19.2879 7.41174 14.6625C7.41174 10.0371 11.1619 6.28748 15.7879 6.28748C17.8611 6.28748 19.7584 7.0406 21.2211 8.28815C22.6837 7.0406 24.581 6.28748 26.6542 6.28748C31.2803 6.28748 35.0304 10.0371 35.0304 14.6625C35.0304 19.2879 31.2803 23.0375 26.6542 23.0375C24.581 23.0375 22.6837 22.2844 21.2211 21.0368Z" fill="#ED0006"/>
<path fill-rule="evenodd" clip-rule="evenodd" d="M21.2211 21.0368C23.0221 19.5007 24.164 17.2149 24.164 14.6625C24.164 12.11 23.0221 9.82428 21.2211 8.28815C22.6837 7.0406 24.581 6.28748 26.6542 6.28748C31.2803 6.28748 35.0304 10.0371 35.0304 14.6625C35.0304 19.2879 31.2803 23.0375 26.6542 23.0375C24.581 23.0375 22.6837 22.2844 21.2211 21.0368Z" fill="#F9A000"/>
<path fill-rule="evenodd" clip-rule="evenodd" d="M21.2211 21.0368C23.0221 19.5007 24.1641 17.2149 24.1641 14.6625C24.1641 12.1101 23.0221 9.82434 21.2211 8.28821C19.4202 9.82434 18.2782 12.1101 18.2782 14.6625C18.2782 17.2149 19.4202 19.5007 21.2211 21.0368Z" fill="#FF5E00"/>
</svg>
