<svg width="20" height="20" viewBox="0 0 20 20" fill="none" xmlns="http://www.w3.org/2000/svg">
<path d="M10 0.833496C9.33696 0.833496 8.70107 1.09689 8.23223 1.56573C7.76339 2.03457 7.5 2.67045 7.5 3.3335V10.0002C7.5 10.6632 7.76339 11.2991 8.23223 11.7679C8.70107 12.2368 9.33696 12.5002 10 12.5002C10.663 12.5002 11.2989 12.2368 11.7678 11.7679C12.2366 11.2991 12.5 10.6632 12.5 10.0002V3.3335C12.5 2.67045 12.2366 2.03457 11.7678 1.56573C11.2989 1.09689 10.663 0.833496 10 0.833496V0.833496Z" stroke="#6E6E70" stroke-width="1.25" stroke-linecap="round" stroke-linejoin="round"/>
<path d="M15.8327 8.3335V10.0002C15.8327 11.5473 15.2181 13.031 14.1241 14.125C13.0302 15.2189 11.5464 15.8335 9.99935 15.8335C8.45225 15.8335 6.96852 15.2189 5.87456 14.125C4.7806 13.031 4.16602 11.5473 4.16602 10.0002V8.3335" stroke="#6E6E70" stroke-width="1.25" stroke-linecap="round" stroke-linejoin="round"/>
<path d="M10 15.8335V19.1668" stroke="#6E6E70" stroke-width="1.25" stroke-linecap="round" stroke-linejoin="round"/>
<path d="M6.66602 19.1665H13.3327" stroke="#6E6E70" stroke-width="1.25" stroke-linecap="round" stroke-linejoin="round"/>
</svg>
