<svg width="150" height="169" viewBox="0 0 150 169" fill="none" xmlns="http://www.w3.org/2000/svg">
<path d="M102.454 168.15C128.365 168.15 149.369 147.146 149.369 121.235C149.369 95.3249 128.365 74.3203 102.454 74.3203C76.5436 74.3203 55.5391 95.3249 55.5391 121.235C55.5391 147.146 76.5436 168.15 102.454 168.15Z" fill="#EAF4FC"/>
<mask id="path-2-inside-1_6634_38957" fill="white">
<path d="M141.611 154.728H18.294C17.8307 154.728 17.4551 155.103 17.4551 155.566C17.4551 156.03 17.8307 156.405 18.294 156.405H141.611C142.074 156.405 142.45 156.03 142.45 155.566C142.45 155.103 142.074 154.728 141.611 154.728Z"/>
</mask>
<path d="M141.611 154.728H18.294C17.8307 154.728 17.4551 155.103 17.4551 155.566C17.4551 156.03 17.8307 156.405 18.294 156.405H141.611C142.074 156.405 142.45 156.03 142.45 155.566C142.45 155.103 142.074 154.728 141.611 154.728Z" fill="#8294C3"/>
<path d="M18.294 156.728H141.611V152.728H18.294V156.728ZM141.611 154.405H18.294V158.405H141.611V154.405ZM18.294 154.405C18.9352 154.405 19.4551 154.925 19.4551 155.566H15.4551C15.4551 157.134 16.7261 158.405 18.294 158.405V154.405ZM140.45 155.566C140.45 154.925 140.969 154.405 141.611 154.405V158.405C143.179 158.405 144.45 157.134 144.45 155.566H140.45ZM141.611 156.728C140.969 156.728 140.45 156.208 140.45 155.566H144.45C144.45 153.999 143.178 152.728 141.611 152.728V156.728ZM18.294 152.728C16.7261 152.728 15.4551 153.999 15.4551 155.566H19.4551C19.4551 156.208 18.9352 156.728 18.294 156.728V152.728Z" fill="#2E4369" fill-opacity="0.15" mask="url(#path-2-inside-1_6634_38957)"/>
<path fill-rule="evenodd" clip-rule="evenodd" d="M118.121 135.433C118.121 134.97 118.497 134.594 118.96 134.594H133.221C133.684 134.594 134.06 134.97 134.06 135.433C134.06 135.896 133.684 136.272 133.221 136.272H118.96C118.497 136.272 118.121 135.896 118.121 135.433Z" fill="#99AED3"/>
<path fill-rule="evenodd" clip-rule="evenodd" d="M123.994 141.306C123.994 140.842 124.37 140.467 124.833 140.467H149.161C149.624 140.467 150 140.842 150 141.306C150 141.769 149.624 142.145 149.161 142.145H124.833C124.37 142.145 123.994 141.769 123.994 141.306Z" fill="#99AED3"/>
<path fill-rule="evenodd" clip-rule="evenodd" d="M0 56.8389C0 56.3756 0.375584 56 0.838889 56H15.1C15.5633 56 15.9389 56.3756 15.9389 56.8389C15.9389 57.3022 15.5633 57.6778 15.1 57.6778H0.838889C0.375584 57.6778 0 57.3022 0 56.8389Z" fill="#99AED3"/>
<path fill-rule="evenodd" clip-rule="evenodd" d="M5.87109 63.5498C5.87109 63.0865 6.24668 62.7109 6.70998 62.7109H31.0378C31.5011 62.7109 31.8766 63.0865 31.8766 63.5498C31.8766 64.0131 31.5011 64.3887 31.0378 64.3887H6.70998C6.24668 64.3887 5.87109 64.0131 5.87109 63.5498Z" fill="#99AED3"/>
<path fill-rule="evenodd" clip-rule="evenodd" d="M76.8719 111.329C77.362 111.329 77.7593 111.726 77.7593 112.217V143.589C77.7593 144.079 77.362 144.476 76.8719 144.476C76.3817 144.476 75.9844 144.079 75.9844 143.589V112.217C75.9844 111.726 76.3817 111.329 76.8719 111.329Z" fill="#2E4369"/>
<path d="M82.1958 146.518C79.0009 146.518 76.3828 144.787 76.3828 142.613C76.3828 140.439 79.0009 138.708 82.1958 138.708C85.3907 138.708 88.0087 140.439 88.0087 142.613C88.0087 144.743 85.3907 146.518 82.1958 146.518Z" fill="#D5E2F2"/>
<path fill-rule="evenodd" clip-rule="evenodd" d="M78.5851 140.582C77.6917 141.179 77.271 141.911 77.271 142.612C77.271 143.313 77.6917 144.045 78.5851 144.642C79.4738 145.236 80.75 145.629 82.1965 145.629C83.6383 145.629 84.9144 145.227 85.8053 144.627C86.7048 144.021 87.122 143.287 87.122 142.612C87.122 141.911 86.7013 141.179 85.8079 140.582C84.9193 139.988 83.6431 139.595 82.1965 139.595C80.75 139.595 79.4738 139.988 78.5851 140.582ZM77.5988 139.106C78.8179 138.292 80.4482 137.82 82.1965 137.82C83.9449 137.82 85.5752 138.292 86.7943 139.106C88.0086 139.918 88.897 141.138 88.897 142.612C88.897 144.067 88.0052 145.285 86.797 146.099C85.58 146.919 83.9496 147.404 82.1965 147.404C80.4482 147.404 78.8179 146.933 77.5988 146.118C76.3844 145.306 75.4961 144.086 75.4961 142.612C75.4961 141.138 76.3844 139.918 77.5988 139.106Z" fill="#2E4369"/>
<path fill-rule="evenodd" clip-rule="evenodd" d="M71.0594 111.33C71.5495 111.33 71.9468 111.727 71.9468 112.217V143.59C71.9468 144.08 71.5495 144.477 71.0594 144.477C70.5692 144.477 70.1719 144.08 70.1719 143.59V112.217C70.1719 111.727 70.5692 111.33 71.0594 111.33Z" fill="#2E4369"/>
<path d="M65.7778 146.519C69.0171 146.519 71.5908 144.788 71.5908 142.614C71.5908 140.439 68.9727 138.709 65.7778 138.709C62.5829 138.709 59.9648 140.439 59.9648 142.614C59.9648 144.744 62.5385 146.519 65.7778 146.519Z" fill="#D5E2F2"/>
<path fill-rule="evenodd" clip-rule="evenodd" d="M61.1808 139.107C62.3999 138.292 64.0302 137.82 65.7786 137.82C67.5269 137.82 69.1572 138.292 70.3763 139.107C71.5907 139.919 72.479 141.139 72.479 142.613C72.479 144.081 71.6079 145.302 70.3948 146.117C69.1789 146.934 67.5472 147.405 65.7786 147.405C64.0052 147.405 62.3734 146.921 61.1597 146.099C59.9527 145.281 59.0781 144.062 59.0781 142.613C59.0781 141.139 59.9665 139.919 61.1808 139.107ZM62.1672 140.583C61.2738 141.18 60.8531 141.912 60.8531 142.613C60.8531 143.294 61.2654 144.027 62.155 144.629C63.038 145.227 64.3127 145.63 65.7786 145.63C67.2492 145.63 68.524 145.236 69.4048 144.644C70.2884 144.05 70.704 143.319 70.704 142.613C70.704 141.912 70.2833 141.18 69.39 140.583C68.5013 139.989 67.2251 139.595 65.7786 139.595C64.332 139.595 63.0558 139.989 62.1672 140.583Z" fill="#2E4369"/>
<path fill-rule="evenodd" clip-rule="evenodd" d="M99.5488 76.8506C99.5488 76.3604 99.9462 75.9631 100.436 75.9631C105.604 75.9631 110.195 78.8347 113.462 83.3227C116.729 87.8112 118.718 93.9671 118.718 100.724C118.718 101.214 118.321 101.611 117.831 101.611C117.341 101.611 116.943 101.214 116.943 100.724C116.943 94.3012 115.05 88.5205 112.027 84.3673C109.004 80.2135 104.898 77.7381 100.436 77.7381C99.9462 77.7381 99.5488 77.3407 99.5488 76.8506Z" fill="#2E4369"/>
<path d="M122.091 105.516C122.091 108.711 120.36 111.329 118.186 111.329C116.012 111.329 114.281 108.711 114.281 105.516C114.281 102.321 116.012 99.7031 118.186 99.7031C120.36 99.7031 122.091 102.321 122.091 105.516Z" fill="#D5E2F2"/>
<path fill-rule="evenodd" clip-rule="evenodd" d="M116.155 101.904C115.561 102.793 115.168 104.069 115.168 105.516C115.168 106.962 115.561 108.238 116.155 109.127C116.752 110.021 117.484 110.441 118.185 110.441C118.886 110.441 119.618 110.021 120.215 109.127C120.809 108.238 121.202 106.962 121.202 105.516C121.202 104.069 120.809 102.793 120.215 101.904C119.618 101.011 118.886 100.59 118.185 100.59C117.484 100.59 116.752 101.011 116.155 101.904ZM114.679 100.918C115.491 99.7036 116.711 98.8153 118.185 98.8153C119.659 98.8153 120.879 99.7036 121.691 100.918C122.505 102.137 122.977 103.767 122.977 105.516C122.977 107.264 122.505 108.894 121.691 110.113C120.879 111.328 119.659 112.216 118.185 112.216C116.711 112.216 115.491 111.328 114.679 110.113C113.864 108.894 113.393 107.264 113.393 105.516C113.393 103.767 113.864 102.137 114.679 100.918Z" fill="#2E4369"/>
<path fill-rule="evenodd" clip-rule="evenodd" d="M35.9511 84.3673C32.9281 88.5205 31.0347 94.3012 31.0347 100.724C31.0347 101.214 30.6374 101.611 30.1472 101.611C29.6571 101.611 29.2598 101.214 29.2598 100.724C29.2598 93.9671 31.2491 87.8112 34.516 83.3227C37.7827 78.8347 42.3742 75.9631 47.5418 75.9631C48.0319 75.9631 48.4292 76.3604 48.4292 76.8506C48.4292 77.3407 48.0319 77.7381 47.5418 77.7381C43.0802 77.7381 38.9744 80.2135 35.9511 84.3673Z" fill="#2E4369"/>
<path d="M25.8867 105.516C25.8867 108.711 27.6173 111.329 29.7916 111.329C31.9659 111.329 33.6965 108.711 33.6965 105.516C33.6965 102.321 31.9659 99.7031 29.7916 99.7031C27.6173 99.7031 25.8867 102.321 25.8867 105.516Z" fill="#D5E2F2"/>
<path fill-rule="evenodd" clip-rule="evenodd" d="M26.2867 100.918C27.0984 99.7037 28.3186 98.8153 29.7924 98.8153C31.2661 98.8153 32.4863 99.7037 33.298 100.918C34.1129 102.137 34.5847 103.767 34.5847 105.516C34.5847 107.264 34.1129 108.894 33.298 110.114C32.4863 111.328 31.2661 112.216 29.7924 112.216C28.3186 112.216 27.0984 111.328 26.2867 110.114C25.4719 108.894 25 107.264 25 105.516C25 103.767 25.4719 102.137 26.2867 100.918ZM27.7624 101.904C27.1684 102.793 26.775 104.069 26.775 105.516C26.775 106.962 27.1684 108.239 27.7624 109.127C28.3595 110.021 29.0918 110.441 29.7924 110.441C30.4929 110.441 31.2252 110.021 31.8224 109.127C32.4164 108.239 32.8098 106.962 32.8098 105.516C32.8098 104.069 32.4164 102.793 31.8224 101.904C31.2252 101.011 30.4929 100.59 29.7924 100.59C29.0918 100.59 28.3595 101.011 27.7624 101.904Z" fill="#2E4369"/>
<path d="M48.3415 116.61C44.2148 116.61 40.8867 113.237 40.8867 109.155V39.7989C40.8867 35.6721 44.2591 32.3441 48.3415 32.3441H99.5932C103.72 32.3441 107.092 35.7165 107.092 39.7989V109.155C107.092 113.282 103.72 116.61 99.5932 116.61H48.3415Z" fill="#F2F2F2"/>
<path d="M99.592 33.2321C103.231 33.2321 106.204 36.1607 106.204 39.7994V109.156C106.204 112.794 103.231 115.723 99.592 115.723H48.3403C44.7017 115.723 41.773 112.794 41.773 109.156V39.7994C41.773 36.1607 44.7017 33.2321 48.3403 33.2321H99.592ZM99.592 31.4571H48.3403C43.7254 31.4571 39.998 35.1845 39.998 39.7994V109.156C39.998 113.77 43.7698 117.498 48.3403 117.498H99.592C104.207 117.498 107.979 113.726 107.979 109.156V39.7994C107.979 35.1845 104.207 31.4571 99.592 31.4571Z" fill="#2E4369"/>
<path d="M99.5919 33.2327H85.9248C94.4002 40.3768 99.8138 51.0265 99.8138 62.7412C99.8138 83.8187 82.1974 101.435 61.1199 101.435C54.1088 101.435 47.4527 99.4827 41.7285 96.1103V109.201C41.7285 112.839 44.6572 115.768 48.2958 115.768H99.5475C103.186 115.768 106.159 112.839 106.159 109.201V39.8C106.204 36.1613 103.231 33.2327 99.5919 33.2327Z" fill="#DBDBDB"/>
<path d="M63.9602 85.7706C63.9602 88.6993 61.5641 91.0955 58.6354 91.0955C55.7067 91.0955 53.3105 88.6993 53.3105 85.7706C53.3105 82.842 55.7067 80.4458 58.6354 80.4458C61.5641 80.4458 63.9602 82.7976 63.9602 85.7706Z" fill="#2E4369"/>
<path d="M59.522 84.1736C59.522 85.5491 58.4127 86.7029 56.9927 86.7029C55.6172 86.7029 54.5078 85.5935 54.5078 84.1736C54.5078 82.798 55.6172 81.6443 56.9927 81.6443C58.3683 81.6886 59.522 82.798 59.522 84.1736Z" fill="white"/>
<path d="M60.6304 86.9238C60.6304 87.4119 60.2311 87.8113 59.7429 87.8113C59.2548 87.8113 58.8555 87.4119 58.8555 86.9238C58.8555 86.4357 59.2548 86.0363 59.7429 86.0363C60.2311 86.0363 60.6304 86.4357 60.6304 86.9238Z" fill="white"/>
<path d="M94.6673 85.7706C94.6673 88.6992 92.2711 91.0954 89.3424 91.0954C86.4138 91.0954 84.0176 88.6992 84.0176 85.7706C84.0176 82.8419 86.4138 80.4457 89.3424 80.4457C92.2711 80.4457 94.6673 82.7975 94.6673 85.7706Z" fill="#2E4369"/>
<path d="M90.1856 84.1735C90.1856 85.5491 89.0762 86.7028 87.6563 86.7028C86.2807 86.7028 85.127 85.5935 85.127 84.1735C85.127 82.7979 86.2363 81.6442 87.6563 81.6442C89.0762 81.6886 90.1856 82.7979 90.1856 84.1735Z" fill="white"/>
<path d="M91.3394 86.9237C91.3394 87.4118 90.94 87.8112 90.4519 87.8112C89.9638 87.8112 89.5645 87.4118 89.5645 86.9237C89.5645 86.4356 89.9638 86.0363 90.4519 86.0363C90.94 86.0363 91.3394 86.4356 91.3394 86.9237Z" fill="white"/>
<path d="M85.9259 103.697C85.9259 103.697 81.311 98.3279 72.8356 98.3279C65.3808 98.3279 60.6328 103.697 60.6328 103.697" stroke="#2E4369" stroke-width="2" stroke-miterlimit="10" stroke-linecap="round" stroke-linejoin="round"/>
<path d="M85.8695 64.6037C84.5826 64.6037 83.7839 64.4262 83.7395 64.4262C83.3846 64.3375 83.0739 64.0269 83.0296 63.6719C82.9852 63.3169 83.1627 62.9175 83.5177 62.74C88.1769 60.4326 89.8631 56.9271 90.44 54.1315C80.0122 50.0047 73.0898 39.7988 73.0898 28.5278C73.0898 13.352 85.4701 0.971741 100.646 0.971741C115.822 0.971741 128.202 13.352 128.202 28.5278C128.202 43.5262 116.132 55.7733 101.178 56.084C95.9423 63.4944 89.3306 64.6037 85.8695 64.6037Z" fill="#78D1F4"/>
<path d="M100.602 1.85991C115.334 1.85991 127.27 13.7965 127.27 28.5285C127.27 43.2163 115.378 55.1528 100.691 55.1972C95.6319 62.6963 89.0646 63.7169 85.8697 63.7169C84.6272 63.7169 83.9172 63.5838 83.9172 63.5838C89.2865 60.9658 90.9727 56.7503 91.4608 53.5997C81.2548 49.8723 73.9775 40.0657 73.9775 28.5729C73.9332 13.7965 85.8697 1.85991 100.602 1.85991ZM100.602 0.0849609C84.9378 0.0849609 72.1582 12.8646 72.1582 28.5285C72.1582 39.8882 79.0361 50.2273 89.3752 54.6647C88.5321 57.8596 86.4022 60.3002 83.0742 61.942C82.4085 62.297 82.0092 63.007 82.0979 63.7613C82.1867 64.5157 82.7635 65.1369 83.5179 65.27C83.6066 65.27 84.4497 65.4475 85.8253 65.4475C89.4196 65.4475 96.2088 64.3382 101.578 56.9277C116.798 56.3953 129.001 43.8375 129.001 28.4842C129.045 12.8646 116.31 0.0849609 100.602 0.0849609Z" fill="#2E4369"/>
<path d="M105.628 2.39243C111.529 6.8298 115.39 13.8409 115.39 21.6063C115.39 34.6965 104.474 45.6125 91.3836 45.6125C85.7925 45.6125 80.5564 43.6156 76.4297 40.2876C79.4471 46.4112 84.7276 51.2036 91.2061 53.5997C90.718 56.7503 89.0318 60.9658 83.6626 63.5838C83.6626 63.5838 93.4692 65.5363 100.436 55.1972C115.124 55.1528 127.016 43.2163 127.016 28.5286C127.016 15.6158 117.83 4.83298 105.628 2.39243Z" fill="#66B2DF"/>
<path d="M82.1973 32.9149L88.4096 18.2716H92.137V32.9149H93.7344V36.0211H92.137V39.9704H88.7202V36.0211H82.1973V32.9149ZM88.7202 32.9149V24.9277L85.3478 32.9593H88.7202V32.9149Z" fill="#2E4369"/>
<path d="M94.9766 23.4631C94.9766 20.002 96.7959 18.0052 100.168 18.0052C103.496 18.0052 105.36 20.002 105.36 23.4631V34.7784C105.36 38.2396 103.541 40.2364 100.168 40.2364C96.8403 40.2364 94.9766 38.2396 94.9766 34.7784V23.4631ZM98.3933 34.9559C98.3933 36.509 99.059 37.0859 100.168 37.0859C101.233 37.0859 101.943 36.509 101.943 34.9559V23.2856C101.943 21.7326 101.278 21.1557 100.168 21.1557C99.1033 21.1557 98.3933 21.7326 98.3933 23.2856V34.9559Z" fill="#2E4369"/>
<path d="M106.736 32.9149L112.949 18.2716H116.676V32.9149H118.274V36.0211H116.676V39.9704H113.259V36.0211H106.736V32.9149ZM113.259 32.9149V24.9277L109.887 32.9593H113.259V32.9149Z" fill="#2E4369"/>
</svg>
