<svg width="74" height="76" viewBox="0 0 74 76" fill="none" xmlns="http://www.w3.org/2000/svg">
<ellipse cx="37" cy="72.5" rx="37" ry="3.5" fill="#FFE6E8"/>
<path d="M37 61.25C51.4975 61.25 63.25 49.4975 63.25 35C63.25 20.5025 51.4975 8.75 37 8.75C22.5025 8.75 10.75 20.5025 10.75 35C10.75 49.4975 22.5025 61.25 37 61.25Z" stroke="#EA001B" stroke-width="4" stroke-linecap="round" stroke-linejoin="round"/>
<path d="M37 21.875V36.0938" stroke="#EA001B" stroke-width="4" stroke-linecap="round" stroke-linejoin="round"/>
<path d="M39.9375 46C39.9375 47.6223 38.6223 48.9375 37 48.9375C35.3777 48.9375 34.0625 47.6223 34.0625 46C34.0625 44.3777 35.3777 43.0625 37 43.0625C38.6223 43.0625 39.9375 44.3777 39.9375 46Z" fill="#EA001B" stroke="#F05A94" stroke-width="0.125"/>
</svg>
