<svg width="24" height="24" viewBox="0 0 24 24" fill="none" xmlns="http://www.w3.org/2000/svg">
<g clip-path="url(#clip0_617_8560)">
<path d="M21.357 21.7532C17.6837 24.7519 6.21598 24.7519 2.6165 21.7532C-1.05675 18.7545 -0.682574 5.93766 2.6165 2.5648C5.91558 -0.808059 18.0579 -0.808059 21.357 2.5648C24.656 5.93766 25.0302 18.7545 21.357 21.7532Z" fill="#3399E3"/>
<path d="M12.06 16.5052C8.76615 19.1298 5.0929 20.4789 1.64099 20.5527C-0.904467 16.2049 -0.382728 5.63832 2.61595 2.56585C5.31424 -0.206216 13.7833 -0.733225 18.6581 0.990095C19.8544 5.93871 17.3828 12.2312 12.06 16.5052Z" fill="#3DA4EE"/>
<path d="M17.8164 14.9957C17.4445 14.3573 17.0011 13.1459 17.0011 11V10.5565C17.0011 7.7887 14.7751 5.52039 12.039 5.50012C12.0261 5.50006 12.0135 5.5 12.0008 5.5C10.6747 5.50009 9.40305 6.02691 8.46544 6.96458C7.52784 7.90226 7.00111 9.17398 7.00112 10.5V11C7.00112 13.1457 6.55758 14.3571 6.18551 14.9954C6.0967 15.1473 6.04955 15.32 6.04884 15.496C6.04812 15.672 6.09385 15.845 6.18142 15.9977C6.26899 16.1503 6.39529 16.2771 6.54757 16.3653C6.69984 16.4535 6.87269 16.5 7.04867 16.5H16.9531C17.129 16.5 17.3019 16.4535 17.4541 16.3654C17.6064 16.2772 17.7327 16.1504 17.8203 15.9978C17.9078 15.8452 17.9536 15.6721 17.9529 15.4962C17.9522 15.3202 17.9051 15.1476 17.8164 14.9957H17.8164Z" fill="white"/>
<path d="M13.9961 17.5H9.99609C9.86349 17.5 9.73631 17.5527 9.64254 17.6464C9.54877 17.7402 9.49609 17.8674 9.49609 18C9.49609 18.1326 9.54877 18.2598 9.64254 18.3536C9.73631 18.4473 9.86349 18.5 9.99609 18.5H13.9961C14.1287 18.5 14.2559 18.4473 14.3496 18.3536C14.4434 18.2598 14.4961 18.1326 14.4961 18C14.4961 17.8674 14.4434 17.7402 14.3496 17.6464C14.2559 17.5527 14.1287 17.5 13.9961 17.5Z" fill="white"/>
</g>
<defs>
<clipPath id="clip0_617_8560">
<rect width="24" height="24" fill="white"/>
</clipPath>
</defs>
</svg>
