<svg width="72" height="72" viewBox="0 0 72 72" fill="none" xmlns="http://www.w3.org/2000/svg">
<path d="M36 72C55.8823 72 72 55.8823 72 36C72 16.1178 55.8823 0 36 0C16.1178 0 0 16.1178 0 36C0 55.8823 16.1178 72 36 72Z" fill="#6DB569"/>
<path d="M66.1502 16.3691L34.3125 49.3319L34.3688 52.8756H35.8313L70.3128 25.0879C69.3002 21.9942 67.8939 19.0129 66.1502 16.3691Z" fill="#52A04F"/>
<path d="M71.3258 14.7943L64.9695 8.49418C64.1257 7.65038 62.7195 7.65038 61.8195 8.49418L34.6506 36.5631L22.8942 24.9755C22.0504 24.1317 20.6442 24.1317 19.7443 24.9755L14.1192 30.5444C13.2754 31.3882 13.2754 32.7944 14.1192 33.6382L32.9068 52.2569C33.4132 52.7632 34.0881 52.9319 34.7631 52.8756C35.4381 52.9319 36.1131 52.7631 36.6194 52.2569L71.3258 17.9442C72.1696 17.0441 72.1696 15.6379 71.3258 14.7943Z" fill="#F2F1EF"/>
<path d="M36.6188 52.2573L71.3252 17.9446C72.169 17.1008 72.169 15.6945 71.3252 14.8507L70.3128 13.8945L34.7062 48.8822L15.0186 29.7009L14.1748 30.5447C13.331 31.3885 13.331 32.7947 14.1748 33.6385L32.9625 52.2574C33.4688 52.7637 34.1438 52.9324 34.8188 52.8761C35.4375 52.9322 36.1125 52.7636 36.6188 52.2573Z" fill="#E6E5E3"/>
</svg>
