<svg width="25" height="24" viewBox="0 0 25 24" fill="none" xmlns="http://www.w3.org/2000/svg">
<path d="M18.2527 21H4.75195C4.55304 21 4.36228 20.921 4.22162 20.7803C4.08097 20.6397 4.00195 20.4489 4.00195 20.25V3.75C4.00195 3.55109 4.08097 3.36032 4.22162 3.21967C4.36228 3.07902 4.55304 3 4.75195 3H13.7527L19.0027 8.25V20.25C19.0027 20.3485 18.9833 20.446 18.9456 20.537C18.9079 20.628 18.8527 20.7107 18.783 20.7803C18.7134 20.85 18.6307 20.9052 18.5397 20.9429C18.4487 20.9806 18.3512 21 18.2527 21Z" stroke="#F05A94" stroke-width="1.5" stroke-linecap="round" stroke-linejoin="round"/>
<path d="M13.752 3V8.25H19.0027" stroke="#F05A94" stroke-width="1.5" stroke-linecap="round" stroke-linejoin="round"/>
<path d="M8.50195 12.75H14.502" stroke="#F05A94" stroke-width="1.5" stroke-linecap="round" stroke-linejoin="round"/>
<path d="M8.50195 15.75H14.502" stroke="#F05A94" stroke-width="1.5" stroke-linecap="round" stroke-linejoin="round"/>
</svg>
