<svg width="42" height="30" viewBox="0 0 42 30" fill="none" xmlns="http://www.w3.org/2000/svg">
<rect x="0.5" y="0.5" width="41" height="29" rx="3.5" fill="white" stroke="#DADADA"/>
<path fill-rule="evenodd" clip-rule="evenodd" d="M18.0529 23.0602L18.3255 21.2488L17.7181 21.234H14.8177L16.8334 7.867C16.8397 7.82652 16.86 7.78895 16.8896 7.76222C16.9194 7.73549 16.9574 7.72083 16.9971 7.72083H21.8876C23.5113 7.72083 24.6318 8.07412 25.2167 8.77155C25.4909 9.09872 25.6656 9.44072 25.7501 9.81692C25.8388 10.2118 25.8403 10.6834 25.7538 11.2588L25.7475 11.3007V11.6694L26.0218 11.8319C26.2527 11.9601 26.4363 12.1067 26.577 12.2746C26.8116 12.5544 26.9633 12.91 27.0274 13.3314C27.0937 13.7649 27.0718 14.2808 26.9633 14.8649C26.8382 15.5367 26.6359 16.1219 26.3626 16.6006C26.1115 17.0417 25.7913 17.4077 25.4112 17.6911C25.0483 17.9606 24.6172 18.1651 24.1297 18.296C23.6572 18.4246 23.1186 18.4895 22.5279 18.4895H22.1473C21.8752 18.4895 21.6109 18.592 21.4034 18.7758C21.1952 18.9633 21.0577 19.2196 21.0155 19.4999L20.9867 19.6631L20.5049 22.8559L20.4831 22.973C20.4773 23.0101 20.4674 23.0286 20.4528 23.0411C20.4398 23.0526 20.4211 23.0602 20.4028 23.0602H18.0529Z" fill="#28356A"/>
<path fill-rule="evenodd" clip-rule="evenodd" d="M26.2817 11.3434C26.2672 11.441 26.2505 11.5407 26.2318 11.6432C25.5868 15.1065 23.3803 16.303 20.5623 16.303H19.1274C18.7827 16.303 18.4923 16.5646 18.4387 16.9202L17.496 23.1743C17.4611 23.4078 17.6331 23.6181 17.8583 23.6181H20.4032C20.7045 23.6181 20.9605 23.3892 21.008 23.0783L21.033 22.9432L21.5121 19.7629L21.5429 19.5885C21.5898 19.2766 21.8464 19.0475 22.1477 19.0475H22.5283C24.9939 19.0475 26.9241 18.0005 27.4883 14.9707C27.7239 13.7051 27.6019 12.6483 26.9783 11.905C26.7896 11.6809 26.5555 11.4949 26.2817 11.3434Z" fill="#298FC2"/>
<path fill-rule="evenodd" clip-rule="evenodd" d="M25.6067 11.0619C25.5081 11.0318 25.4065 11.0046 25.3022 10.9801C25.1973 10.9561 25.09 10.9348 24.9794 10.9162C24.5926 10.8508 24.1686 10.8198 23.7146 10.8198H19.8814C19.7869 10.8198 19.6973 10.8421 19.6171 10.8824C19.4402 10.9713 19.3089 11.1464 19.2771 11.3607L18.4616 16.7626L18.4382 16.9201C18.4918 16.5645 18.7823 16.3028 19.127 16.3028H20.5618C23.3799 16.3028 25.5864 15.1058 26.2313 11.6431C26.2506 11.5406 26.2668 11.4409 26.2813 11.3433C26.1181 11.2527 25.9414 11.1753 25.7511 11.1093C25.7041 11.0929 25.6556 11.0772 25.6067 11.0619Z" fill="#22284F"/>
<path fill-rule="evenodd" clip-rule="evenodd" d="M19.2773 11.3608C19.3092 11.1465 19.4405 10.9714 19.6173 10.8831C19.6981 10.8427 19.7872 10.8204 19.8816 10.8204H23.7148C24.1688 10.8204 24.5928 10.8515 24.9797 10.9169C25.0902 10.9354 25.1976 10.9568 25.3024 10.9808C25.4067 11.0052 25.5083 11.0325 25.6069 11.0625C25.6558 11.0777 25.7043 11.0936 25.7518 11.1094C25.9421 11.1753 26.1189 11.2534 26.2821 11.3434C26.474 10.0635 26.2805 9.19213 25.6189 8.40306C24.8894 7.53425 23.573 7.16248 21.8884 7.16248H16.9978C16.6537 7.16248 16.3601 7.42412 16.307 7.78032L14.27 21.2848C14.2298 21.552 14.4268 21.793 14.6845 21.793H17.7037L19.2773 11.3608Z" fill="#28356A"/>
</svg>
