<svg width="20" height="19" viewBox="0 0 20 19" fill="none" xmlns="http://www.w3.org/2000/svg">
<path d="M6.41965 9.7014C7.19762 11.2919 8.48687 12.5753 10.0809 13.346C10.1975 13.4013 10.3265 13.4252 10.4552 13.4155C10.5839 13.4058 10.7079 13.3627 10.8148 13.2905L13.1619 11.7254C13.2657 11.6562 13.3852 11.6139 13.5094 11.6025C13.6337 11.5911 13.7588 11.6109 13.8735 11.66L18.2644 13.5419C18.4136 13.6052 18.5381 13.7154 18.6193 13.8556C18.7004 13.9959 18.7338 14.1588 18.7143 14.3197C18.5755 15.4057 18.0456 16.4039 17.2239 17.1273C16.4021 17.8508 15.3448 18.2499 14.25 18.25C10.8685 18.25 7.62548 16.9067 5.23439 14.5156C2.8433 12.1245 1.5 8.88148 1.5 5.49997C1.50006 4.40513 1.89918 3.34786 2.62264 2.5261C3.3461 1.70435 4.34428 1.17448 5.43028 1.03569C5.59117 1.01622 5.75403 1.04956 5.89432 1.1307C6.03461 1.21183 6.14473 1.33636 6.2081 1.48552L8.09158 5.88032C8.1403 5.994 8.16015 6.11796 8.14936 6.24116C8.13858 6.36436 8.0975 6.48299 8.02977 6.58647L6.47011 8.96957C6.39912 9.07677 6.35716 9.20056 6.34831 9.32883C6.33947 9.4571 6.36405 9.58547 6.41965 9.7014V9.7014Z" stroke="black" stroke-width="1.5" stroke-linecap="round" stroke-linejoin="round"/>
</svg>
