<svg width="20" height="19" viewBox="0 0 20 19" fill="none" xmlns="http://www.w3.org/2000/svg">
<path fill-rule="evenodd" clip-rule="evenodd" d="M10.5999 8.99997H18.8209C19.2337 8.99997 19.5683 9.30284 19.5683 9.67644C19.5683 10.05 19.2337 10.3529 18.8209 10.3529H10.5999V17.7941C10.5999 18.1677 10.2653 18.4706 9.85251 18.4706C9.43975 18.4706 9.10514 18.1677 9.10514 17.7941V10.3529H0.884087C0.471327 10.3529 0.136719 10.05 0.136719 9.67644C0.136719 9.30284 0.471327 8.99997 0.884087 8.99997H9.10514V1.55879C9.10514 1.18519 9.43975 0.882324 9.85251 0.882324C10.2653 0.882324 10.5999 1.18519 10.5999 1.55879V8.99997Z" fill="#222B45"/>
</svg>
