<svg width="18" height="17" viewBox="0 0 18 17" fill="none" xmlns="http://www.w3.org/2000/svg">
<path d="M9.83317 4.33268H8.1665V7.66602H4.83317V9.33268H8.1665V12.666H9.83317V9.33268H13.1665V7.66602H9.83317V4.33268ZM8.99984 0.166016C4.39984 0.166016 0.666504 3.89935 0.666504 8.49935C0.666504 13.0993 4.39984 16.8327 8.99984 16.8327C13.5998 16.8327 17.3332 13.0993 17.3332 8.49935C17.3332 3.89935 13.5998 0.166016 8.99984 0.166016ZM8.99984 15.166C5.32484 15.166 2.33317 12.1743 2.33317 8.49935C2.33317 4.82435 5.32484 1.83268 8.99984 1.83268C12.6748 1.83268 15.6665 4.82435 15.6665 8.49935C15.6665 12.1743 12.6748 15.166 8.99984 15.166Z" fill="#4834D6"/>
</svg>
