<svg width="16" height="16" viewBox="0 0 16 16" fill="none" xmlns="http://www.w3.org/2000/svg">
<path d="M15.3337 7.99984C15.3337 8.68356 14.8419 9.19638 14.408 9.64883C14.161 9.90638 13.9056 10.1726 13.8091 10.406C13.7204 10.6203 13.715 10.9754 13.7099 11.3187C13.7002 11.9576 13.6893 12.6818 13.1858 13.1853C12.6823 13.6888 11.9581 13.6997 11.3191 13.7094C10.9758 13.7146 10.6207 13.7199 10.4064 13.8086C10.1731 13.9051 9.90681 14.1605 9.64931 14.4075C9.19686 14.8414 8.68405 15.3332 8.00029 15.3332C7.31657 15.3332 6.80379 14.8414 6.35134 14.4075C6.09381 14.1605 5.82753 13.9051 5.5942 13.8086C5.3799 13.7199 5.02487 13.7146 4.6815 13.7094C4.04253 13.6997 3.31833 13.6888 2.81485 13.1853C2.31138 12.6818 2.30044 11.9576 2.29079 11.3187C2.28561 10.9754 2.28024 10.6203 2.19155 10.406C2.09506 10.1726 1.83968 9.90638 1.59267 9.64883C1.15877 9.19638 0.666992 8.68356 0.666992 7.99984C0.666992 7.31611 1.15877 6.8033 1.59267 6.35085C1.83968 6.09329 2.09506 5.82704 2.19155 5.59371C2.28024 5.37938 2.28561 5.02431 2.29079 4.68101C2.30044 4.04204 2.31138 3.31784 2.81489 2.81437C3.31836 2.31089 4.04256 2.29996 4.6815 2.2903C5.02487 2.28512 5.37994 2.27975 5.59427 2.19106C5.82753 2.09458 6.09384 1.83919 6.35134 1.59219C6.80379 1.15828 7.3166 0.666504 8.00036 0.666504C8.68408 0.666504 9.19686 1.15828 9.64931 1.59219C9.90684 1.83919 10.1731 2.09458 10.4064 2.19106C10.6207 2.27975 10.9758 2.28512 11.3191 2.2903C11.9581 2.29996 12.6823 2.31089 13.1858 2.81437C13.6893 3.31784 13.7002 4.04204 13.7099 4.68101C13.715 5.02431 13.7204 5.37938 13.8091 5.59371C13.9056 5.82704 14.161 6.09329 14.408 6.35085C14.8419 6.8033 15.3337 7.31611 15.3337 7.99984Z" fill="#E0E0E0"/>
<path fill-rule="evenodd" clip-rule="evenodd" d="M10.5243 5.4755C10.7137 5.66485 10.7137 5.97184 10.5243 6.16118L6.1607 10.5248C5.97135 10.7142 5.66436 10.7142 5.47502 10.5248C5.28567 10.3355 5.28567 10.0285 5.47502 9.83914L9.83865 5.4755C10.028 5.28616 10.335 5.28616 10.5243 5.4755Z" fill="white"/>
<path fill-rule="evenodd" clip-rule="evenodd" d="M6.66634 5.6362C6.46551 5.6362 6.3027 5.79901 6.3027 5.99984C6.3027 6.20067 6.46551 6.36347 6.66634 6.36347C6.86717 6.36347 7.02998 6.20067 7.02998 5.99984C7.02998 5.79901 6.86717 5.6362 6.66634 5.6362ZM5.33301 5.99984C5.33301 5.26346 5.92996 4.6665 6.66634 4.6665C7.40272 4.6665 7.99967 5.26346 7.99967 5.99984C7.99967 6.73622 7.40272 7.33317 6.66634 7.33317C5.92996 7.33317 5.33301 6.73622 5.33301 5.99984Z" fill="white"/>
<path fill-rule="evenodd" clip-rule="evenodd" d="M9.33333 9.6362C9.1325 9.6362 8.9697 9.79901 8.9697 9.99984C8.9697 10.2007 9.1325 10.3635 9.33333 10.3635C9.53416 10.3635 9.69697 10.2007 9.69697 9.99984C9.69697 9.79901 9.53416 9.6362 9.33333 9.6362ZM8 9.99984C8 9.26346 8.59695 8.6665 9.33333 8.6665C10.0697 8.6665 10.6667 9.26346 10.6667 9.99984C10.6667 10.7362 10.0697 11.3332 9.33333 11.3332C8.59695 11.3332 8 10.7362 8 9.99984Z" fill="white"/>
</svg>
