<svg width="16" height="16" viewBox="0 0 16 16" fill="none" xmlns="http://www.w3.org/2000/svg">
<g clip-path="url(#clip0_2667_16559)">
<path d="M8 16C12.4183 16 16 12.4183 16 8C16 3.58172 12.4183 0 8 0C3.58172 0 0 3.58172 0 8C0 12.4183 3.58172 16 8 16Z" fill="#EAB14D"/>
<path d="M7.25 5.87207L7 7.12207H3.5L4.25 5.87207H7.25Z" fill="#F6BB42"/>
<path d="M8.74805 5.87207L8.99805 7.12207H6.99805L7.24805 5.87207H8.74805Z" fill="#DA4453"/>
<path d="M11.752 5.87207L12.502 7.12207H9.00195L8.75195 5.87207H11.752Z" fill="#F6BB42"/>
<path d="M8.99805 7.12207V8.62207L7.99805 8.37207L6.99805 8.62207V7.12207H8.99805Z" fill="#ED5565"/>
<path d="M12.4999 7.12207V13.487C11.2824 14.507 9.71235 15.1244 7.99996 15.1244C6.28745 15.1244 4.7174 14.5095 3.5 13.487V7.12207H6.99997V8.62206L7.99996 8.37206L8.99996 8.62206V7.12207H12.4999Z" fill="#FFCE54"/>
<path d="M11.75 7.12207V14.0352C12.0126 13.8685 12.2635 13.6857 12.5008 13.487V7.12207H11.75Z" fill="#F6BB42"/>
<path d="M7.99824 15.375C4.68845 15.375 1.80127 13.1394 0.976692 9.93822C0.942268 9.80467 1.02296 9.6682 1.15674 9.63366C1.28919 9.60021 1.42676 9.67992 1.46118 9.81371C2.22851 12.7937 4.91672 14.875 7.99824 14.875C11.7201 14.875 14.7482 11.8469 14.7482 8.125C14.7482 7.98669 14.8599 7.875 14.9982 7.875C15.1364 7.875 15.2482 7.98669 15.2482 8.125C15.2482 12.1224 11.9956 15.375 7.99824 15.375Z" fill="black"/>
<path d="M0.999998 8.12593C0.861693 8.12593 0.75 8.01411 0.75 7.87593C0.75 3.8784 4.00242 0.625977 7.99994 0.625977C11.3096 0.625977 14.1968 2.86144 15.0214 6.06259C15.0558 6.19613 14.9751 6.3326 14.8413 6.36715C14.7096 6.40194 14.5715 6.32089 14.5369 6.1871C13.7696 3.20714 11.0813 1.12597 7.99994 1.12597C4.27793 1.12597 1.25 4.15391 1.25 7.87593C1.25 8.01411 1.13818 8.12593 0.999998 8.12593Z" fill="black"/>
<path d="M1.00009 8.12607C0.936005 8.12607 0.87204 8.10153 0.823334 8.0527L0.0733337 7.3027C-0.0244446 7.20505 -0.0244446 7.04697 0.0733337 6.94931C0.17099 6.85153 0.329071 6.85153 0.426727 6.94931L1.17673 7.69931C1.27451 7.79697 1.27451 7.95505 1.17673 8.0527C1.12802 8.10153 1.06406 8.12607 1.00009 8.12607Z" fill="black"/>
<path d="M1.00009 8.12607C0.936005 8.12607 0.87204 8.10153 0.823334 8.0527C0.725555 7.95505 0.725555 7.79697 0.823334 7.69931L1.57333 6.94931C1.67099 6.85153 1.82907 6.85153 1.92673 6.94931C2.02451 7.04697 2.02451 7.20505 1.92673 7.3027L1.17673 8.0527C1.12802 8.10153 1.06406 8.12607 1.00009 8.12607Z" fill="black"/>
<path d="M15.752 8.87607C15.688 8.87607 15.624 8.85153 15.5753 8.8027L14.8253 8.0527C14.7275 7.95505 14.7275 7.79697 14.8253 7.69931C14.9229 7.60153 15.081 7.60153 15.1787 7.69931L15.9287 8.44931C16.0265 8.54697 16.0265 8.70505 15.9287 8.8027C15.88 8.85153 15.816 8.87607 15.752 8.87607Z" fill="black"/>
<path d="M14.252 8.87607C14.188 8.87607 14.124 8.85153 14.0753 8.8027C13.9775 8.70505 13.9775 8.54697 14.0753 8.44931L14.8253 7.69931C14.9229 7.60153 15.081 7.60153 15.1787 7.69931C15.2765 7.79697 15.2765 7.95505 15.1787 8.0527L14.4287 8.8027C14.38 8.85153 14.316 8.87607 14.252 8.87607Z" fill="black"/>
<path d="M3.49804 13.7368C3.35986 13.7368 3.24805 13.6249 3.24805 13.4868V7.12304C3.24805 6.98474 3.35986 6.87305 3.49804 6.87305C3.63635 6.87305 3.74804 6.98474 3.74804 7.12304V13.4868C3.74804 13.6249 3.63635 13.7368 3.49804 13.7368Z" fill="black"/>
<path d="M12.502 13.7373C12.3636 13.7373 12.252 13.6256 12.252 13.4873V7.12304C12.252 6.98474 12.3636 6.87305 12.502 6.87305C12.6401 6.87305 12.7519 6.98474 12.7519 7.12304V13.4873C12.7519 13.6256 12.6401 13.7373 12.502 13.7373Z" fill="black"/>
<path d="M12.4991 7.37304H3.49804C3.35986 7.37304 3.24805 7.26135 3.24805 7.12304C3.24805 6.98474 3.35986 6.87305 3.49804 6.87305H12.4991C12.6373 6.87305 12.7491 6.98474 12.7491 7.12304C12.7491 7.26135 12.6373 7.37304 12.4991 7.37304Z" fill="black"/>
<path d="M3.49791 7.37364C3.45421 7.37364 3.40965 7.36217 3.36949 7.33788C3.25096 7.26695 3.21275 7.11339 3.28367 6.99486L4.03367 5.74437C4.10447 5.62621 4.25791 5.58763 4.37669 5.65868C4.49522 5.7296 4.53343 5.88316 4.4625 6.00169L3.71251 7.25218C3.66575 7.33043 3.58299 7.37364 3.49791 7.37364Z" fill="black"/>
<path d="M12.5022 7.3734C12.4171 7.3734 12.3343 7.33019 12.2876 7.25218L11.5376 6.00169C11.4667 5.88316 11.5049 5.7296 11.6234 5.65868C11.7419 5.58763 11.8954 5.62621 11.9664 5.74437L12.7164 6.99486C12.7873 7.11339 12.7491 7.26695 12.6306 7.33788C12.5902 7.36192 12.5459 7.3734 12.5022 7.3734Z" fill="black"/>
<path d="M11.7491 6.12206H4.24804C4.10986 6.12206 3.99805 6.01025 3.99805 5.87207C3.99805 5.73376 4.10986 5.62207 4.24804 5.62207H11.7491C11.8873 5.62207 11.9991 5.73376 11.9991 5.87207C11.9991 6.01025 11.8873 6.12206 11.7491 6.12206Z" fill="black"/>
<path d="M7.00018 7.37208C6.98419 7.37208 6.96747 7.37062 6.95099 7.36708C6.81573 7.3401 6.72772 7.20838 6.75494 7.07289L7.00494 5.82227C7.0318 5.68714 7.16229 5.59803 7.29925 5.62635C7.43451 5.65333 7.52252 5.78504 7.4953 5.92054L7.2453 7.17103C7.22149 7.29005 7.117 7.37208 7.00018 7.37208Z" fill="black"/>
<path d="M8.99767 7.372C8.88097 7.372 8.77648 7.28997 8.75292 7.17095L8.50292 5.92047C8.47594 5.78497 8.56371 5.6535 8.69896 5.62628C8.83617 5.5982 8.96617 5.68707 8.99327 5.8222L9.24327 7.07281C9.27025 7.20831 9.18248 7.33978 9.04723 7.367C9.03051 7.37054 9.01378 7.372 8.99767 7.372Z" fill="black"/>
<path d="M6.99805 8.87305C6.85986 8.87305 6.74805 8.76135 6.74805 8.62305V7.12305C6.74805 6.98474 6.85986 6.87305 6.99805 6.87305C7.13635 6.87305 7.24805 6.98474 7.24805 7.12305V8.62305C7.24805 8.76135 7.13635 8.87305 6.99805 8.87305Z" fill="black"/>
<path d="M9.00195 8.87305C8.86365 8.87305 8.75195 8.76135 8.75195 8.62305V7.12305C8.75195 6.98474 8.86365 6.87305 9.00195 6.87305C9.14014 6.87305 9.25195 6.98474 9.25195 7.12305V8.62305C9.25195 8.76135 9.14014 8.87305 9.00195 8.87305Z" fill="black"/>
<path d="M9.00031 8.87329C8.98029 8.87329 8.95978 8.87084 8.93952 8.86584L7.93952 8.61584C7.80548 8.58227 7.72406 8.44652 7.75751 8.31273C7.79071 8.17858 7.92621 8.09679 8.06049 8.13072L9.06049 8.38073C9.19452 8.4143 9.27607 8.55004 9.2425 8.68383C9.21405 8.79785 9.11225 8.87329 9.00031 8.87329Z" fill="black"/>
<path d="M6.99788 8.87433C6.88594 8.87433 6.78413 8.79852 6.75569 8.68488C6.72188 8.55109 6.80342 8.41535 6.9377 8.38178L7.93818 8.13178C8.07172 8.0976 8.20771 8.17963 8.24116 8.31379C8.27497 8.44757 8.19343 8.58332 8.05915 8.61688L7.05867 8.86688C7.0384 8.87189 7.0179 8.87433 6.99788 8.87433Z" fill="black"/>
<path d="M10.2501 11.8721H5.74804C5.60986 11.8721 5.49805 11.7604 5.49805 11.6221C5.49805 11.4839 5.60986 11.3721 5.74804 11.3721H10.2501C10.3883 11.3721 10.5001 11.4839 10.5001 11.6221C10.5001 11.7604 10.3883 11.8721 10.2501 11.8721Z" fill="black"/>
<path d="M10.2501 10.875H5.74804C5.60986 10.875 5.49805 10.7632 5.49805 10.625C5.49805 10.4867 5.60986 10.375 5.74804 10.375H10.2501C10.3883 10.375 10.5001 10.4867 10.5001 10.625C10.5001 10.7632 10.3883 10.875 10.2501 10.875Z" fill="black"/>
<path d="M8.99915 12.873H6.99805C6.85986 12.873 6.74805 12.7614 6.74805 12.623C6.74805 12.4849 6.85986 12.373 6.99805 12.373H8.99915C9.13733 12.373 9.24915 12.4849 9.24915 12.623C9.24915 12.7614 9.13733 12.873 8.99915 12.873Z" fill="black"/>
</g>
<defs>
<clipPath id="clip0_2667_16559">
<rect width="16" height="16" fill="white"/>
</clipPath>
</defs>
</svg>
