<svg width="360" height="785" viewBox="0 0 360 785" fill="none" xmlns="http://www.w3.org/2000/svg">
<path d="M360 0H0V784.792H360V0Z" fill="url(#paint0_radial_8866_48160)"/>
<path d="M360 0H0V784.997H360V0Z" fill="url(#paint1_linear_8866_48160)"/>
<g style="mix-blend-mode:overlay" opacity="0.3">
<path opacity="0.3" d="M166.348 0.0226229L167.305 19.5231L166.731 0.0226229H166.348ZM115.242 0.0226229H113.558L126.837 75.0158L115.242 0.0226229ZM134.089 0.0226229H130.779L151.405 155.913L134.089 0.0226229ZM142.775 0.0226229H140.652L151.826 102.027L142.775 0.0226229ZM226.562 0.0226229L207.581 190.91L230.561 0.0226229H226.562ZM171.132 0.0226229L178.498 226.812L175.628 0.0226229H171.132ZM219.788 0.0226229L217.799 25.2692L220.305 0.0226229H219.788ZM194.417 0.0226229L192.504 97.4572L196.35 0.0226229H194.417ZM0 629.694V638.426L70.852 548.412L0 629.694ZM0 496.878V505.474L87.1539 459.642L0 496.878ZM0 386.707V388.2L15.8427 389.671L0 386.707ZM89.4882 0.0226229H86.6181L114.592 115.374L89.4882 0.0226229ZM0 372.817V378.608L60.8642 388.11L0 372.817ZM0 462.13V464.867L28.7005 455.75L0 462.13ZM79.7874 37.1233L124.943 197.018L92.1669 68.8851L74.7744 0.0226229H71.8852L81.586 34.8158L79.7874 37.1233ZM243.495 0.0226229L232.455 80.2416L245.255 0.0226229H243.495ZM0 544.114V551.194L67.6184 498.077L0 544.114ZM360 576.102V573.161L333.347 550.357L360 576.102ZM360 564.157V557.438L297.701 508.936L360 564.157ZM354.93 0.0226229L250.249 255.814L360 9.9086V0H354.93V0.0226229ZM340.235 194.847L277.668 284.544L329.29 217.311L290.181 271.763L360 183.558V174.532L341.727 199.982L340.235 194.847ZM360 281.4V279.861L345.401 291.58L360 281.4ZM271.028 0.0226229L260.639 51.2397L272.272 0.0226229H271.028ZM17.1246 287.938L26.6915 294.679L0 273.052V283.617L85.6423 341.078L17.1246 287.938ZM360 392.634V387.182L302.312 397.453L360 392.634ZM360 409.171V402.95L293.989 408.764L360 409.171ZM360 484.458V482.038L335.184 473.554L360 484.458ZM360 303.434V295.652L283.982 348.385L360 303.434ZM288.191 0.0226229H284.919L254.631 127.047L288.191 0.0226229ZM347.104 0.0226229H342.454L291.54 135.847L347.104 0.0226229ZM309.124 0.0226229H305.66L270.665 121.708L309.124 0.0226229ZM227.231 227.672L276.099 34.0241L272.215 29.6127L227.231 227.672ZM360 139.49V133.54L318.365 201.792L360 139.49ZM360 223.69V219.528L324.545 260.135L360 223.69ZM360 61.827V52.8233L308.454 161.139L360 61.827ZM360 334.924V333.273L343.258 341.553L360 334.924ZM0 508.393V512.714L43.376 487.625L0 508.393ZM236.301 784.974H237.277L230.331 740.385L236.301 784.974ZM216.517 784.974H217.167L213.934 752.941L216.517 784.974ZM203.888 784.974H207.332L195.297 613.949L203.888 784.974ZM274.989 784.974H281.035L218.258 552.235L274.989 784.974ZM287.598 784.974H291.253L251.416 652.791L287.598 784.974ZM162.598 784.974L164.052 752.488L161.947 784.974H162.598ZM149.51 784.974L164.951 601.28L145.703 784.974H149.51ZM181.808 169.939L182.746 0.0226229H179.378L181.808 169.939ZM196.024 784.974H196.407L195.546 765.835L196.024 784.974ZM360 677.676V669.057L297.031 580.717L360 677.676ZM360 463.691V462.266L345.133 458.872L360 463.691ZM322.154 784.974H324.641L295.022 710.094L322.154 784.974ZM360 399.715V396.48L325.712 401.027L360 399.715ZM360 623.269V618.609L321.675 575.898L360 623.269ZM360 527.35V525.111L338.149 512.352L360 527.35ZM344.196 784.974H351.218L266.398 601.823L344.196 784.974ZM358.431 736.811L358.469 736.72L360 739.639V721.948L247.284 528.549L358.431 736.811ZM123.527 784.974L136.94 696.43L121.556 784.974H123.527ZM87.5748 784.974L99.1124 738.1L86.3503 784.974H87.5748ZM0 109.583V119.016L64.0404 219.279L0 109.583ZM0 203.782V207.402L30.1738 240.001L0 203.782ZM0 440.955V443.014L21.8124 438.648L0 440.955ZM6.54371 0.0226229H0.994952L67.7332 147.521L6.54371 0.0226229ZM0 336.825V339.946L32.1254 351.484L0 336.825ZM43.9118 0.0226229H38.6691L99.4568 169.509L43.9118 0.0226229ZM0 33.2775V47.4618L80.304 204.348L0 33.2775ZM27.7821 119.537L103.341 259.66L30.633 112.569L27.7821 119.537ZM63.7725 784.974L74.5257 750.09L62.7393 784.974H63.7725ZM115.07 784.974L121.384 748.394L114.228 784.974H115.07ZM34.8233 784.974H39.3197L88.608 653.923L34.8233 784.974ZM77.9697 784.974H82.6957L128.789 610.013L77.9697 784.974ZM0 167.473V177.495L77.7592 275.246L0 167.473ZM0 591.372V596.439L44.5815 549.837L0 591.372ZM15.0773 784.974H18.9806L62.2227 683.829L15.0773 784.974ZM14.3885 673.378L99.6481 538.661L16.5315 658.402L0 681.974V690.842L13.317 670.007L14.3885 673.378ZM0 738.44V748.416L62.7584 630.056L0 738.44Z" fill="black"/>
<path opacity="0.5" d="M0 217.721V221.16L31.7428 245.886L0 217.721ZM0 105.243V109.7L32.5846 155.419L0 105.243ZM0 159.582V159.763L1.54982 161.505L0 159.582ZM0 42.6469V57.6908L95.2665 221.137L0 42.6469ZM0 602.687V610.175L56.9801 528.485L0 602.687ZM0 719.011V722.178L18.2153 683.924L0 719.011ZM16.455 0.0263062H11.5185L71.1773 128.838L16.455 0.0263062ZM0 641.258V642.072L5.72096 632.706L0 641.258ZM0 388.43V390.873L25.9261 386.258L0 388.43ZM0 477.064V482.087L49.0205 448.085L0 477.064ZM0 371.78V375.219L36.4114 372.006L0 371.78ZM0 596.646V601.963L41.2331 544.547L0 596.646ZM318.863 0.0263062L295.099 63.2106L321.025 0.0263062H318.863ZM360 728.648V714.577L276.539 559.817L360 728.648ZM339.24 0.0263062L328.334 25.5444L340.235 0.0263062H339.24ZM72.3444 0.0263062H70.565L90.0431 64.6584L72.3444 0.0263062ZM78.5246 784.978L120.504 600.13L73.856 784.978H78.5246ZM0 769.708V785H1.33936L91.5163 564.681L0 769.708ZM85.1831 0.0263062H80.2084L131.793 191.299L85.1831 0.0263062ZM360 94.9046V83.9327L281.208 208.424L360 94.9046ZM152.744 0.0263062L160.742 113.545L155.04 0.0263062H152.744ZM275.716 0.0263062L244.49 118.522L278.911 0.0263062H275.716ZM198.952 129.517L212.518 0.0263062H209.839L198.952 129.517ZM234.234 9.66344L235.899 0.0263062H235.689L234.234 9.66344ZM360 611.193V604.587L308.779 540.204L360 611.193ZM360 280.996V274.775L296.955 307.94L360 280.996ZM360 405.578V402.727L330.056 398.067L360 405.578ZM360 504.686V498.284L298.849 457.247L360 504.686ZM360 745.434V735.819L305.565 629.471L360 745.434ZM13.5658 784.978L39.511 715.776L11.1932 784.978H13.5658ZM360 268.893V268.102L352.079 272.671L360 268.893ZM360 147.343V142.117L317.485 196.14L360 147.343ZM327.683 93.2984L360 37.489V32.3537L327.683 93.2984ZM356.231 784.978H359.388L321.427 701.071L356.231 784.978ZM360 233.331V229.304L321.56 259.505L360 233.331ZM360 185.552V184.489L350.567 194.353L360 185.552ZM360 668.812V663.812L326.057 610.672L360 668.812ZM177.101 784.978H179.321L177.714 672.839L177.101 784.978ZM318.021 784.978H321.465L281.437 673.382L318.021 784.978ZM131.487 784.978L145.263 646.438L128.578 784.978H131.487ZM51.0104 784.978L65.7816 733.602L49.5371 784.978H51.0104ZM70.6415 784.978H72.1339L85.9867 726.883L70.6415 784.978ZM163.842 784.978L164.243 764.143L163.421 784.978H163.842ZM271.851 784.978H272.923L262.399 741.565L271.851 784.978ZM286.756 784.978H290.64L249.331 638.724L286.756 784.978ZM184.2 784.978H187.854L181.885 601.193L184.2 784.978ZM226.504 784.978H228.513L216.019 690.507L226.504 784.978ZM217.856 784.978H218.411L215.503 758.396L217.856 784.978Z" fill="black"/>
</g>
<defs>
<radialGradient id="paint0_radial_8866_48160" cx="0" cy="0" r="1" gradientUnits="userSpaceOnUse" gradientTransform="translate(180 392.391) scale(180 392.396)">
<stop stop-color="#8F00FF"/>
<stop offset="1" stop-color="#9000FF"/>
</radialGradient>
<linearGradient id="paint1_linear_8866_48160" x1="409.323" y1="715.512" x2="-200.575" y2="282.5" gradientUnits="userSpaceOnUse">
<stop stop-color="#7925E4"/>
<stop offset="0.0421" stop-color="#802FE9"/>
<stop offset="0.1048" stop-color="#693AEF"/>
<stop offset="0.1742" stop-color="#8F43F3"/>
<stop offset="0.2529" stop-color="#CA49F7"/>
<stop offset="0.3489" stop-color="#974DF8" stop-opacity="0.87"/>
<stop offset="0.5108" stop-color="#984EF9" stop-opacity="0.51"/>
<stop offset="1" stop-color="#3F22F0"/>
</linearGradient>
</defs>
</svg>
