<svg width="18" height="17" viewBox="0 0 18 17" fill="none" xmlns="http://www.w3.org/2000/svg">
<path d="M9 0.375C7.39303 0.375 5.82214 0.851523 4.486 1.74431C3.14985 2.6371 2.10844 3.90605 1.49348 5.3907C0.87852 6.87535 0.717618 8.50901 1.03112 10.0851C1.34463 11.6612 2.11846 13.1089 3.25476 14.2452C4.39106 15.3815 5.8388 16.1554 7.4149 16.4689C8.99099 16.7824 10.6247 16.6215 12.1093 16.0065C13.594 15.3916 14.8629 14.3502 15.7557 13.014C16.6485 11.6779 17.125 10.107 17.125 8.5C17.1226 6.34586 16.2658 4.28065 14.7426 2.75745C13.2193 1.23425 11.1541 0.377438 9 0.375ZM9.00005 13.5C8.81463 13.5 8.63337 13.445 8.4792 13.342C8.32503 13.239 8.20487 13.0926 8.13391 12.9213C8.06295 12.75 8.04439 12.5615 8.08056 12.3796C8.11673 12.1978 8.20602 12.0307 8.33713 11.8996C8.46825 11.7685 8.63529 11.6792 8.81715 11.643C8.99901 11.6069 9.18751 11.6254 9.35881 11.6964C9.53012 11.7673 9.67653 11.8875 9.77955 12.0417C9.88256 12.1959 9.93755 12.3771 9.93755 12.5625C9.93755 12.8112 9.83877 13.0496 9.66296 13.2254C9.48714 13.4013 9.24869 13.5 9.00005 13.5ZM9.62501 9.68042V9.75038C9.62501 9.91614 9.55916 10.0751 9.44195 10.1923C9.32474 10.3095 9.16577 10.3754 9.00001 10.3754C8.83425 10.3754 8.67528 10.3095 8.55807 10.1923C8.44086 10.0751 8.37501 9.91614 8.37501 9.75038V9.12538C8.37502 8.95962 8.44087 8.80066 8.55807 8.68345C8.67528 8.56624 8.83425 8.50039 9.00001 8.50038C9.30904 8.50038 9.61113 8.40874 9.86809 8.23705C10.125 8.06536 10.3253 7.82133 10.4436 7.53582C10.5618 7.25031 10.5928 6.93615 10.5325 6.63305C10.4722 6.32996 10.3234 6.05155 10.1049 5.83303C9.88634 5.61451 9.60793 5.46569 9.30484 5.4054C9.00174 5.34511 8.68757 5.37606 8.40206 5.49432C8.11656 5.61258 7.87253 5.81285 7.70084 6.0698C7.52915 6.32675 7.43751 6.62885 7.43751 6.93788C7.43751 7.10364 7.37166 7.26261 7.25445 7.37982C7.13724 7.49703 6.97827 7.56288 6.81251 7.56288C6.64675 7.56288 6.48778 7.49703 6.37057 7.37982C6.25336 7.26261 6.18751 7.10364 6.18751 6.93788C6.18758 6.40845 6.33708 5.88978 6.61882 5.44154C6.90057 4.9933 7.30311 4.63369 7.78015 4.40406C8.25719 4.17443 8.78936 4.08411 9.31545 4.14349C9.84155 4.20287 10.3402 4.40954 10.7541 4.73972C11.1679 5.06991 11.4802 5.5102 11.6549 6.00997C11.8296 6.50973 11.8598 7.04867 11.7418 7.5648C11.6239 8.08093 11.3627 8.55328 10.9882 8.92754C10.6137 9.3018 10.1412 9.56277 9.62501 9.68042Z" fill="#126BFB"/>
</svg>
