<svg width="74" height="77" viewBox="0 0 74 77" fill="none" xmlns="http://www.w3.org/2000/svg">
<ellipse cx="37" cy="73.5" rx="37" ry="3.5" fill="#1185E0" fill-opacity="0.1"/>
<path d="M37 61.25C51.4975 61.25 63.25 49.4975 63.25 35C63.25 20.5025 51.4975 8.75 37 8.75C22.5025 8.75 10.75 20.5025 10.75 35C10.75 49.4975 22.5025 61.25 37 61.25Z" stroke="#126BFB" stroke-width="4" stroke-linecap="round" stroke-linejoin="round"/>
<path d="M37 51.9531C38.5102 51.9531 39.7344 50.7289 39.7344 49.2188C39.7344 47.7086 38.5102 46.4844 37 46.4844C35.4898 46.4844 34.2656 47.7086 34.2656 49.2188C34.2656 50.7289 35.4898 51.9531 37 51.9531Z" fill="#F05A94"/>
<path d="M37 39.375V37.1875C38.5143 37.1875 39.9945 36.7385 41.2536 35.8972C42.5126 35.0559 43.494 33.8602 44.0735 32.4612C44.6529 31.0622 44.8046 29.5228 44.5091 28.0376C44.2137 26.5524 43.4845 25.1882 42.4138 24.1175C41.343 23.0467 39.9788 22.3175 38.4937 22.0221C37.0085 21.7267 35.4691 21.8783 34.0701 22.4578C32.6711 23.0373 31.4753 24.0186 30.6341 25.2777C29.7928 26.5367 29.3438 28.017 29.3438 29.5313" stroke="#F05A94" stroke-width="4" stroke-linecap="round" stroke-linejoin="round"/>
</svg>
