<svg width="24" height="24" viewBox="0 0 24 24" fill="none" xmlns="http://www.w3.org/2000/svg">
<path d="M12.0003 21.5998C17.1129 21.5998 21.2575 17.3785 21.2575 12.1712C21.2575 6.96399 17.1129 2.74268 12.0003 2.74268C6.88773 2.74268 2.74316 6.96399 2.74316 12.1712C2.74316 17.3785 6.88773 21.5998 12.0003 21.5998Z" fill="white"/>
<path d="M12.1504 2.3999C10.222 2.3999 8.33697 2.97173 6.73359 4.04307C5.13021 5.11442 3.88052 6.63716 3.14257 8.41874C2.40462 10.2003 2.21153 12.1607 2.58774 14.052C2.96394 15.9433 3.89254 17.6806 5.2561 19.0442C6.61967 20.4078 8.35695 21.3364 10.2483 21.7126C12.1396 22.0888 14.1 21.8957 15.8816 21.1577C17.6631 20.4198 19.1859 19.1701 20.2572 17.5667C21.3286 15.9633 21.9004 14.0783 21.9004 12.1499C21.8974 9.56496 20.8692 7.08674 19.0414 5.25891C17.2136 3.43108 14.7353 2.40289 12.1504 2.3999ZM16.794 10.4426L11.2935 15.6926C11.1536 15.8257 10.968 15.8999 10.7749 15.8999C10.5819 15.8999 10.3962 15.8257 10.2564 15.6926L7.50684 13.0676C7.36319 12.93 7.28004 12.741 7.27564 12.5422C7.27123 12.3433 7.34594 12.1508 7.48336 12.007C7.62077 11.8632 7.80966 11.7798 8.00852 11.7751C8.20738 11.7705 8.39996 11.8449 8.54395 11.9822L10.7749 14.1128L15.7568 9.35718C15.9008 9.21995 16.0934 9.14548 16.2923 9.15013C16.4911 9.15479 16.68 9.23819 16.8174 9.38201C16.9548 9.52583 17.0296 9.71831 17.0252 9.91718C17.0208 10.116 16.9376 10.305 16.794 10.4426Z" fill="#F05A94"/>
</svg>
