<svg width="24" height="24" viewBox="0 0 24 24" fill="none" xmlns="http://www.w3.org/2000/svg">
<g clip-path="url(#clip0_763_5570)">
<path d="M21.357 21.7532C17.6837 24.7519 6.21598 24.7519 2.6165 21.7532C-1.05675 18.7545 -0.682574 5.93766 2.6165 2.5648C5.91558 -0.808059 18.0579 -0.808059 21.357 2.5648C24.656 5.93766 25.0302 18.7545 21.357 21.7532Z" fill="#8841CE"/>
<path d="M12.06 16.5052C8.76615 19.1298 5.0929 20.4789 1.64099 20.5527C-0.904467 16.2049 -0.382728 5.63832 2.61595 2.56585C5.31424 -0.206216 13.7833 -0.733225 18.6581 0.990095C19.8544 5.93871 17.3828 12.2312 12.06 16.5052Z" fill="#924CD9"/>
<path d="M18.6753 13.4022L17.7454 12.1626C17.7468 12.053 17.7457 11.9362 17.7441 11.8429L18.6749 10.6019C18.7204 10.5412 18.7515 10.4709 18.7659 10.3963C18.7802 10.3218 18.7774 10.245 18.7576 10.1716C18.6015 9.59324 18.3715 9.03739 18.0732 8.51784C18.0354 8.45198 17.983 8.39561 17.9201 8.353C17.8573 8.31039 17.7855 8.28266 17.7103 8.27193L16.1799 8.05336C16.1049 7.97408 16.0278 7.89692 15.9484 7.82189L15.7299 6.2921C15.7192 6.21694 15.6915 6.14522 15.6489 6.08236C15.6063 6.01951 15.5499 5.96718 15.4841 5.92934C14.9648 5.63071 14.4091 5.40032 13.8308 5.24388C13.7575 5.22407 13.6806 5.22121 13.606 5.23554C13.5314 5.24986 13.4611 5.28099 13.4003 5.32656L12.1636 6.25423C12.0546 6.25121 11.9452 6.25121 11.8362 6.25423L10.6 5.32702C10.5393 5.28147 10.469 5.25035 10.3944 5.23602C10.3198 5.22168 10.243 5.22451 10.1697 5.24429C9.5913 5.40035 9.03544 5.63038 8.51589 5.92867C8.45003 5.96651 8.39365 6.01886 8.35104 6.08173C8.30843 6.14461 8.2807 6.21637 8.26995 6.29156L8.05141 7.82198C7.97216 7.8969 7.895 7.97407 7.81994 8.05349L6.29015 8.27197C6.215 8.2827 6.14327 8.31041 6.08042 8.35299C6.01756 8.39557 5.96523 8.45191 5.92739 8.51772C5.62876 9.03708 5.39837 9.59279 5.24194 10.1711C5.22211 10.2444 5.21926 10.3213 5.23359 10.3959C5.24792 10.4705 5.27906 10.5408 5.32464 10.6016L6.25451 11.8413C6.25311 11.9508 6.25423 12.0677 6.25585 12.1609L5.32507 13.4019C5.27951 13.4626 5.24838 13.5329 5.23404 13.6075C5.2197 13.682 5.22253 13.7589 5.2423 13.8322C5.39838 14.4106 5.62842 14.9664 5.92672 15.486C5.96456 15.5519 6.0169 15.6082 6.07978 15.6508C6.14265 15.6934 6.21441 15.7212 6.2896 15.7319L7.82006 15.9505C7.89498 16.0297 7.97213 16.1069 8.05151 16.1819L8.27001 17.7117C8.28075 17.7869 8.30847 17.8586 8.35105 17.9215C8.39364 17.9843 8.44998 18.0366 8.5158 18.0745C9.03514 18.3731 9.59083 18.6035 10.1691 18.7599C10.2424 18.7798 10.3193 18.7826 10.3939 18.7683C10.4685 18.754 10.5389 18.7228 10.5996 18.6773L11.8364 17.7496C11.9454 17.7527 12.0547 17.7527 12.1637 17.7496L13.3999 18.6768C13.4606 18.7224 13.531 18.7535 13.6055 18.7678C13.6801 18.7822 13.7569 18.7793 13.8302 18.7595C14.4086 18.6035 14.9645 18.3735 15.484 18.0752C15.5499 18.0373 15.6063 17.985 15.6489 17.9221C15.6915 17.8592 15.7192 17.7875 15.73 17.7123L15.949 16.1782C16.0275 16.1017 16.1092 16.0183 16.1741 15.9512L17.7098 15.7319C17.7849 15.7211 17.8567 15.6934 17.9195 15.6508C17.9824 15.6083 18.0347 15.5519 18.0725 15.4861C18.3712 14.9667 18.6016 14.411 18.758 13.8327C18.7778 13.7594 18.7807 13.6825 18.7663 13.6079C18.752 13.5333 18.7209 13.463 18.6753 13.4022ZM11.9999 14.7519C11.456 14.7519 10.9243 14.5906 10.4721 14.2884C10.0199 13.9863 9.6674 13.5568 9.45926 13.0543C9.25112 12.5518 9.19666 11.9988 9.30277 11.4654C9.40888 10.9319 9.67079 10.4419 10.0554 10.0573C10.44 9.67275 10.93 9.41083 11.4634 9.30473C11.9969 9.19862 12.5498 9.25308 13.0523 9.46122C13.5548 9.66936 13.9843 10.0218 14.2865 10.4741C14.5886 10.9263 14.7499 11.458 14.7499 12.0019C14.7491 12.731 14.4591 13.43 13.9436 13.9455C13.428 14.4611 12.729 14.7511 11.9999 14.7519Z" fill="white"/>
</g>
<defs>
<clipPath id="clip0_763_5570">
<rect width="24" height="24" fill="white"/>
</clipPath>
</defs>
</svg>
