<svg width="24" height="24" viewBox="0 0 24 24" fill="none" xmlns="http://www.w3.org/2000/svg">
<path d="M19.0266 8.66671H4.97331C4.7965 8.66671 4.62693 8.59647 4.5019 8.47144C4.37688 8.34642 4.30664 8.17685 4.30664 8.00004C4.30664 7.82323 4.37688 7.65366 4.5019 7.52864C4.62693 7.40361 4.7965 7.33337 4.97331 7.33337H19.0266C19.2035 7.33337 19.373 7.40361 19.498 7.52864C19.6231 7.65366 19.6933 7.82323 19.6933 8.00004C19.6933 8.17685 19.6231 8.34642 19.498 8.47144C19.373 8.59647 19.2035 8.66671 19.0266 8.66671Z" fill="black"/>
<path d="M14.1133 12.6667H4.97331C4.7965 12.6667 4.62693 12.5965 4.5019 12.4714C4.37688 12.3464 4.30664 12.1769 4.30664 12C4.30664 11.8232 4.37688 11.6537 4.5019 11.5286C4.62693 11.4036 4.7965 11.3334 4.97331 11.3334H14.1133C14.2901 11.3334 14.4597 11.4036 14.5847 11.5286C14.7097 11.6537 14.78 11.8232 14.78 12C14.78 12.1769 14.7097 12.3464 14.5847 12.4714C14.4597 12.5965 14.2901 12.6667 14.1133 12.6667Z" fill="black"/>
<path d="M9.15997 16.6667H4.97331C4.7965 16.6667 4.62693 16.5965 4.5019 16.4714C4.37688 16.3464 4.30664 16.1769 4.30664 16C4.30664 15.8232 4.37688 15.6537 4.5019 15.5286C4.62693 15.4036 4.7965 15.3334 4.97331 15.3334H9.15997C9.33678 15.3334 9.50635 15.4036 9.63138 15.5286C9.7564 15.6537 9.82664 15.8232 9.82664 16C9.82664 16.1769 9.7564 16.3464 9.63138 16.4714C9.50635 16.5965 9.33678 16.6667 9.15997 16.6667Z" fill="black"/>
</svg>
