<svg width="22" height="21" viewBox="0 0 22 21" fill="none" xmlns="http://www.w3.org/2000/svg">
<path d="M11.3998 16.5782L15.9722 19.4541C16.5567 19.8217 17.2823 19.2749 17.1089 18.5976L15.7878 13.4386C15.7506 13.2949 15.755 13.1437 15.8005 13.0024C15.8461 12.8611 15.9308 12.7354 16.0451 12.6398L20.1454 9.25187C20.6841 8.80671 20.406 7.91908 19.7139 7.87448L14.3592 7.52949C14.2149 7.51926 14.0766 7.46857 13.9603 7.38331C13.8439 7.29806 13.7544 7.18175 13.7021 7.04794L11.705 2.05537C11.6507 1.91333 11.5542 1.79105 11.4282 1.70476C11.3023 1.61848 11.1529 1.57227 10.9999 1.57227C10.8468 1.57227 10.6974 1.61848 10.5715 1.70476C10.4455 1.79105 10.349 1.91333 10.2947 2.05537L8.29765 7.04794C8.24533 7.18175 8.15579 7.29806 8.03946 7.38331C7.92313 7.46857 7.78479 7.51926 7.64056 7.52949L2.28587 7.87448C1.59368 7.91908 1.3156 8.80671 1.85436 9.25187L5.95464 12.6398C6.06891 12.7354 6.15367 12.8611 6.19918 13.0024C6.24468 13.1437 6.24909 13.2949 6.21189 13.4386L4.98674 18.223C4.77861 19.0358 5.64941 19.6919 6.35078 19.2507L10.6 16.5782C10.7195 16.5027 10.8582 16.4626 10.9999 16.4626C11.1415 16.4626 11.2803 16.5027 11.3998 16.5782V16.5782Z" stroke="#333333" stroke-width="1.5" stroke-linecap="round" stroke-linejoin="round"/>
</svg>
