<svg width="20" height="20" viewBox="0 0 20 20" fill="none" xmlns="http://www.w3.org/2000/svg">
<path d="M10.3998 15.5772L14.9722 18.4531C15.5567 18.8207 16.2823 18.2739 16.1089 17.5967L14.7878 12.4376C14.7506 12.2939 14.755 12.1427 14.8005 12.0014C14.8461 11.8601 14.9308 11.7344 15.0451 11.6388L19.1454 8.25089C19.6841 7.80574 19.406 6.9181 18.7139 6.87351L13.3592 6.52851C13.2149 6.51829 13.0766 6.46759 12.9603 6.38234C12.8439 6.29708 12.7544 6.18078 12.7021 6.04696L10.705 1.05439C10.6507 0.912355 10.5542 0.790076 10.4282 0.703788C10.3023 0.617501 10.1529 0.571289 9.99986 0.571289C9.84684 0.571289 9.69743 0.617501 9.57148 0.703788C9.44554 0.790076 9.34901 0.912355 9.29473 1.05439L7.29765 6.04696C7.24533 6.18078 7.15579 6.29708 7.03946 6.38234C6.92313 6.46759 6.78479 6.51829 6.64056 6.52851L1.28587 6.87351C0.593678 6.9181 0.315603 7.80574 0.854362 8.25089L4.95464 11.6388C5.06891 11.7344 5.15367 11.8601 5.19918 12.0014C5.24468 12.1427 5.24909 12.2939 5.21189 12.4376L3.98674 17.222C3.77861 18.0348 4.64941 18.6909 5.35078 18.2498L9.59996 15.5772C9.71947 15.5017 9.85819 15.4616 9.99986 15.4616C10.1415 15.4616 10.2803 15.5017 10.3998 15.5772V15.5772Z" stroke="#333333" stroke-linecap="round" stroke-linejoin="round"/>
</svg>
