<svg width="24" height="24" viewBox="0 0 24 24" fill="none" xmlns="http://www.w3.org/2000/svg">
<g clip-path="url(#clip0_763_5369)">
<path d="M21.357 21.7532C17.6837 24.7519 6.21598 24.7519 2.6165 21.7532C-1.05675 18.7545 -0.682574 5.93766 2.6165 2.5648C5.91558 -0.808059 18.0579 -0.808059 21.357 2.5648C24.656 5.93766 25.0302 18.7545 21.357 21.7532Z" fill="#D24EBE"/>
<path d="M12.06 16.5052C8.76615 19.1298 5.0929 20.4789 1.64099 20.5527C-0.904467 16.2049 -0.382728 5.63832 2.61595 2.56585C5.31424 -0.206216 13.7833 -0.733225 18.6581 0.990095C19.8544 5.93871 17.3828 12.2312 12.06 16.5052Z" fill="#E059CB"/>
<path d="M19.9992 9.31923C19.999 9.31049 19.9985 9.30179 19.9978 9.29305C19.9968 9.27958 19.9954 9.2663 19.9935 9.2531C19.9924 9.24553 19.9913 9.238 19.9899 9.23046C19.9869 9.21495 19.9833 9.19973 19.9791 9.18468C19.978 9.18074 19.9775 9.17672 19.9763 9.17279L18.8731 5.49158C18.7989 5.24685 18.6434 5.03165 18.43 4.87823C18.2167 4.72482 17.9569 4.64145 17.6897 4.64062H6.31032C6.04308 4.64145 5.78331 4.72482 5.56995 4.87825C5.35659 5.03167 5.20114 5.24688 5.12688 5.49162L4.02366 9.17279C4.02248 9.17672 4.02197 9.18074 4.02088 9.18468C4.01671 9.19973 4.01305 9.21495 4.01014 9.23046C4.00873 9.238 4.00762 9.24553 4.00652 9.2531C4.0046 9.2663 4.00316 9.27958 4.00218 9.29305C4.00152 9.30179 4.00101 9.31049 4.00079 9.31923C4.00066 9.32417 4 9.32898 4 9.33396V10.5073C4.00004 10.9624 4.11128 11.4113 4.32491 11.8184C4.53854 12.2254 4.84869 12.5794 5.23077 12.8523V18.8131C5.23114 19.1242 5.36093 19.4224 5.59167 19.6424C5.8224 19.8623 6.13523 19.9861 6.46154 19.9864H17.5385C17.8648 19.9861 18.1776 19.8623 18.4083 19.6424C18.6391 19.4224 18.7689 19.1242 18.7692 18.8131V12.8523C19.1513 12.5794 19.4615 12.2254 19.6751 11.8184C19.8887 11.4113 20 10.9624 20 10.5073V9.33396C20 9.32898 19.9993 9.32417 19.9992 9.31923ZM5.23077 9.92062H8.92308V10.5073C8.92329 10.8101 8.84149 11.1078 8.68562 11.3716C8.52974 11.6354 8.30507 11.8564 8.03333 12.0132C7.7616 12.17 7.45202 12.2572 7.13455 12.2665C6.81709 12.2757 6.50249 12.2067 6.22121 12.0661C6.17851 12.0345 6.13161 12.0084 6.08175 11.9885C5.821 11.8294 5.6064 11.6104 5.45769 11.3516C5.30899 11.0927 5.23095 10.8024 5.23077 10.5073V9.92062ZM13.8462 10.5073C13.8462 10.9741 13.6517 11.4217 13.3054 11.7518C12.9592 12.0819 12.4896 12.2673 12 12.2673C11.5104 12.2673 11.0408 12.0819 10.6946 11.7518C10.3484 11.4217 10.1538 10.9741 10.1538 10.5073V9.92062H13.8462V10.5073ZM17.9179 11.9887C17.8683 12.0085 17.8217 12.0345 17.7793 12.0658C17.498 12.2066 17.1834 12.2757 16.8658 12.2665C16.5483 12.2573 16.2387 12.1701 15.9669 12.0133C15.6951 11.8566 15.4704 11.6356 15.3144 11.3717C15.1585 11.1079 15.0767 10.8101 15.0769 10.5073V9.92062H18.7692V10.5073C18.769 10.8025 18.691 11.0929 18.5422 11.3518C18.3934 11.6107 18.1787 11.8297 17.9179 11.9887Z" fill="white"/>
</g>
<defs>
<clipPath id="clip0_763_5369">
<rect width="24" height="24" fill="white"/>
</clipPath>
</defs>
</svg>
