<svg width="16" height="18" viewBox="0 0 16 18" fill="none" xmlns="http://www.w3.org/2000/svg">
<path d="M13.1425 12.4963C12.4911 12.4963 11.9083 12.7535 11.4625 13.1563L5.35111 9.59916C5.39397 9.40202 5.42826 9.20488 5.42826 8.99916C5.42826 8.79345 5.39397 8.59631 5.35111 8.39916L11.394 4.87631C11.8568 5.30488 12.4654 5.57059 13.1425 5.57059C14.5654 5.57059 15.714 4.42202 15.714 2.99916C15.714 1.57631 14.5654 0.427734 13.1425 0.427734C11.7197 0.427734 10.5711 1.57631 10.5711 2.99916C10.5711 3.20488 10.6054 3.40202 10.6483 3.59916L4.6054 7.12202C4.14254 6.69345 3.53397 6.42773 2.85683 6.42773C1.43397 6.42773 0.2854 7.57631 0.2854 8.99916C0.2854 10.422 1.43397 11.5706 2.85683 11.5706C3.53397 11.5706 4.14254 11.3049 4.6054 10.8763L10.7083 14.442C10.6654 14.622 10.6397 14.8106 10.6397 14.9992C10.6397 16.3792 11.7625 17.502 13.1425 17.502C14.5225 17.502 15.6454 16.3792 15.6454 14.9992C15.6454 13.6192 14.5225 12.4963 13.1425 12.4963Z" fill="white"/>
</svg>
