<svg width="16" height="4" viewBox="0 0 16 4" fill="none" xmlns="http://www.w3.org/2000/svg">
<path d="M3.34082 1.9873C3.34082 1.24902 2.75293 0.661133 2.01465 0.661133H1.99414C1.25586 0.661133 0.667969 1.24902 0.667969 1.9873V2.00781C0.667969 2.74609 1.25586 3.33398 1.99414 3.33398H2.01465C2.75293 3.33398 3.34082 2.74609 3.34082 2.00781V1.9873ZM9.37777 1.9873C9.37777 1.24902 8.78988 0.661133 8.0516 0.661133H8.03109C7.29281 0.661133 6.70492 1.24902 6.70492 1.9873V2.00781C6.70492 2.74609 7.29281 3.33398 8.03109 3.33398H8.0516C8.78988 3.33398 9.37777 2.74609 9.37777 2.00781V1.9873ZM15.4147 1.9873C15.4147 1.24902 14.8268 0.661133 14.0886 0.661133H14.068C13.3298 0.661133 12.7419 1.24902 12.7419 1.9873V2.00781C12.7419 2.74609 13.3298 3.33398 14.068 3.33398H14.0886C14.8268 3.33398 15.4147 2.74609 15.4147 2.00781V1.9873Z" fill="#3E3E40"/>
</svg>
