<svg width="14" height="14" viewBox="0 0 14 14" fill="none" xmlns="http://www.w3.org/2000/svg">
<path d="M13.6668 2.4535L6.06016 10.0668L3.2335 7.24016L4.1735 6.30016L6.06016 8.18683L12.7268 1.52016L13.6668 2.4535ZM12.1935 5.8135C12.2802 6.1935 12.3335 6.5935 12.3335 7.00016C12.3335 9.94683 9.94683 12.3335 7.00016 12.3335C4.0535 12.3335 1.66683 9.94683 1.66683 7.00016C1.66683 4.0535 4.0535 1.66683 7.00016 1.66683C8.0535 1.66683 9.02683 1.9735 9.8535 2.50016L10.8135 1.54016C9.73349 0.780163 8.42016 0.333496 7.00016 0.333496C3.32016 0.333496 0.333496 3.32016 0.333496 7.00016C0.333496 10.6802 3.32016 13.6668 7.00016 13.6668C10.6802 13.6668 13.6668 10.6802 13.6668 7.00016C13.6668 6.20683 13.5202 5.44683 13.2668 4.74016L12.1935 5.8135Z" fill="#00AC27"/>
</svg>
