<svg width="16" height="16" viewBox="0 0 16 16" fill="none" xmlns="http://www.w3.org/2000/svg">
<path d="M14.1337 12.1374H15.7337V9.20405L13.3337 5.4707H10.4004V12.1374H11.467" fill="#FDB62F"/>
<path d="M2.40092 12.1378H0.267578V3.60449H10.4009V12.1378H5.06757" fill="#FDB62F"/>
<path d="M1.86758 10.8047H0.267578V11.338H1.86758V10.8047Z" fill="#F46B27"/>
<path d="M10.4016 10.8047H5.60156V11.338H10.4016V10.8047Z" fill="#F46B27"/>
<path d="M15.7327 10.8047H14.666V11.338H15.7327V10.8047Z" fill="#DBDBDB"/>
<path d="M10.3998 4.4043H1.06641V4.93764H10.3998V4.4043Z" fill="#F46B27"/>
<path d="M3.73374 13.4714C4.47012 13.4714 5.06708 12.8744 5.06708 12.138C5.06708 11.4016 4.47012 10.8047 3.73374 10.8047C2.99735 10.8047 2.40039 11.4016 2.40039 12.138C2.40039 12.8744 2.99735 13.4714 3.73374 13.4714Z" fill="#126099"/>
<path d="M12.8001 13.4714C13.5365 13.4714 14.1335 12.8744 14.1335 12.138C14.1335 11.4016 13.5365 10.8047 12.8001 10.8047C12.0638 10.8047 11.4668 11.4016 11.4668 12.138C11.4668 12.8744 12.0638 13.4714 12.8001 13.4714Z" fill="#126099"/>
<path d="M4.00014 11.8711H3.4668V12.4044H4.00014V11.8711Z" fill="#DBDBDB"/>
<path d="M13.0665 11.8711H12.5332V12.4044H13.0665V11.8711Z" fill="#DBDBDB"/>
<path d="M4.79975 2.27148H1.06641V2.80483H4.79975V2.27148Z" fill="#DBDBDB"/>
<path d="M0.533344 2.27148H0V2.80483H0.533344V2.27148Z" fill="#DBDBDB"/>
<path d="M14.0188 6.53809H11.4668V8.93808H15.5628L14.0188 6.53809Z" fill="#87CED9"/>
<path d="M10.9337 5.47168H10.4004V12.1383H10.9337V5.47168Z" fill="#FFA83D"/>
<path d="M15.5628 8.93791L14.1148 6.68457C13.4031 7.5291 12.4935 8.18403 11.4668 8.59122V8.93787H15.5628V8.93791Z" fill="#6CBBC7"/>
<path d="M13.5573 5.3272C13.5083 5.25092 13.424 5.2048 13.3333 5.20455H10.6667V3.60455C10.6667 3.45736 10.5472 3.33789 10.4 3.33789H0.266656C0.119469 3.33789 0 3.45736 0 3.60455V12.1379C0 12.2851 0.119469 12.4045 0.266656 12.4045H2.15731C2.30984 13.275 3.13891 13.8568 4.00931 13.7045C4.67303 13.5883 5.19303 13.0685 5.30931 12.4045H11.224C11.3765 13.275 12.2056 13.8568 13.076 13.7045C13.7397 13.5883 14.2597 13.0685 14.376 12.4045H15.7333C15.8805 12.4045 16 12.2851 16 12.1379V9.20455C16 9.15336 15.985 9.10348 15.9573 9.06055L13.5573 5.3272ZM13.8667 6.80455L15.0747 8.6712H11.7333V6.80455H13.8667ZM3.73334 13.2045C3.14428 13.2045 2.66669 12.727 2.66669 12.1379C2.66669 11.5488 3.14428 11.0712 3.73334 11.0712C4.32241 11.0712 4.8 11.5488 4.8 12.1379C4.8 12.727 4.32241 13.2045 3.73334 13.2045ZM3.73334 10.5379C2.95306 10.5387 2.28747 11.1019 2.15734 11.8712H0.533344V11.3379H1.86669V10.8045H0.533344V3.8712H10.1333V4.40455H1.06666V4.93789H10.1333V10.8045H5.6V11.3379H10.1333V11.8712H5.30934C5.17919 11.1021 4.51359 10.5387 3.73334 10.5379ZM12.8 13.2045C12.2109 13.2045 11.7333 12.727 11.7333 12.1379C11.7333 11.5488 12.2109 11.0712 12.8 11.0712C13.3891 11.0712 13.8667 11.5488 13.8667 12.1379C13.8667 12.727 13.3891 13.2045 12.8 13.2045ZM14.376 11.8712C14.2235 11.0008 13.3944 10.4189 12.524 10.5712C11.8603 10.6875 11.3403 11.2072 11.224 11.8712H10.6667V5.73789H13.1867L13.5307 6.27123H11.4667C11.3195 6.27123 11.2 6.3907 11.2 6.53789V8.93789C11.2 9.08508 11.3195 9.20455 11.4667 9.20455H15.416L15.4667 9.28189V10.8045H14.6667V11.3379H15.4667V11.8712H14.376V11.8712Z" fill="black"/>
<path d="M4.00014 11.8711H3.4668V12.4044H4.00014V11.8711Z" fill="black"/>
<path d="M13.0665 11.8711H12.5332V12.4044H13.0665V11.8711Z" fill="black"/>
<path d="M4.79975 2.27148H1.06641V2.80483H4.79975V2.27148Z" fill="black"/>
<path d="M0.533344 2.27148H0V2.80483H0.533344V2.27148Z" fill="black"/>
</svg>
