<svg width="20" height="20" viewBox="0 0 20 20" fill="none" xmlns="http://www.w3.org/2000/svg">
<path d="M10 0.249878C8.07164 0.249878 6.18657 0.821705 4.58319 1.89305C2.97982 2.96439 1.73013 4.48714 0.992179 6.26871C0.254225 8.05029 0.061142 10.0107 0.437348 11.902C0.813554 13.7933 1.74215 15.5306 3.10571 16.8942C4.46928 18.2577 6.20656 19.1863 8.09787 19.5625C9.98919 19.9387 11.9496 19.7457 13.7312 19.0077C15.5127 18.2698 17.0355 17.0201 18.1068 15.4167C19.1782 13.8133 19.75 11.9282 19.75 9.99988C19.747 7.41493 18.7188 4.93672 16.891 3.10889C15.0632 1.28105 12.5849 0.252866 10 0.249878ZM13.75 10.7499H10.75V13.7499C10.75 13.9488 10.671 14.1396 10.5303 14.2802C10.3897 14.4209 10.1989 14.4999 10 14.4999C9.80109 14.4999 9.61033 14.4209 9.46967 14.2802C9.32902 14.1396 9.25 13.9488 9.25 13.7499V10.7499H6.25C6.05109 10.7499 5.86033 10.6709 5.71967 10.5302C5.57902 10.3896 5.5 10.1988 5.5 9.99988C5.5 9.80097 5.57902 9.6102 5.71967 9.46955C5.86033 9.32889 6.05109 9.24988 6.25 9.24988H9.25V6.24988C9.25 6.05097 9.32902 5.8602 9.46967 5.71955C9.61033 5.5789 9.80109 5.49988 10 5.49988C10.1989 5.49988 10.3897 5.5789 10.5303 5.71955C10.671 5.8602 10.75 6.05097 10.75 6.24988V9.24988H13.75C13.9489 9.24988 14.1397 9.32889 14.2803 9.46955C14.421 9.6102 14.5 9.80097 14.5 9.99988C14.5 10.1988 14.421 10.3896 14.2803 10.5302C14.1397 10.6709 13.9489 10.7499 13.75 10.7499Z" fill="#F05A94"/>
</svg>
