<svg width="18" height="18" viewBox="0 0 18 18" fill="none" xmlns="http://www.w3.org/2000/svg">
<path d="M9 0.875C7.39303 0.875 5.82214 1.35152 4.486 2.24431C3.14985 3.1371 2.10844 4.40605 1.49348 5.8907C0.87852 7.37535 0.717618 9.00901 1.03112 10.5851C1.34463 12.1612 2.11846 13.6089 3.25476 14.7452C4.39106 15.8815 5.8388 16.6554 7.4149 16.9689C8.99099 17.2824 10.6247 17.1215 12.1093 16.5065C13.594 15.8916 14.8629 14.8502 15.7557 13.514C16.6485 12.1779 17.125 10.607 17.125 9C17.1225 6.84588 16.2657 4.7807 14.7425 3.25751C13.2193 1.73431 11.1541 0.87749 9 0.875ZM12.125 9.625H9.625V12.125C9.625 12.2908 9.55916 12.4497 9.44195 12.5669C9.32474 12.6842 9.16576 12.75 9 12.75C8.83424 12.75 8.67527 12.6842 8.55806 12.5669C8.44085 12.4497 8.375 12.2908 8.375 12.125V9.625H5.875C5.70924 9.625 5.55027 9.55915 5.43306 9.44194C5.31585 9.32473 5.25 9.16576 5.25 9C5.25 8.83424 5.31585 8.67527 5.43306 8.55806C5.55027 8.44085 5.70924 8.375 5.875 8.375H8.375V5.875C8.375 5.70924 8.44085 5.55027 8.55806 5.43306C8.67527 5.31585 8.83424 5.25 9 5.25C9.16576 5.25 9.32474 5.31585 9.44195 5.43306C9.55916 5.55027 9.625 5.70924 9.625 5.875V8.375H12.125C12.2908 8.375 12.4497 8.44085 12.5669 8.55806C12.6842 8.67527 12.75 8.83424 12.75 9C12.75 9.16576 12.6842 9.32473 12.5669 9.44194C12.4497 9.55915 12.2908 9.625 12.125 9.625Z" fill="#126BFB"/>
</svg>
