<svg width="16" height="17" viewBox="0 0 16 17" fill="none" xmlns="http://www.w3.org/2000/svg">
<path d="M14.1164 6.92596C13.8806 6.68011 13.6368 6.42596 13.5447 6.20325C13.4601 5.99866 13.455 5.65979 13.45 5.33203C13.4408 4.72211 13.4304 4.03082 12.9498 3.55023C12.4692 3.06964 11.7779 3.0592 11.168 3.04999C10.8402 3.04504 10.5013 3.03992 10.2968 2.95526C10.0741 2.86316 9.81989 2.61939 9.57404 2.38361C9.14221 1.96942 8.65265 1.5 8 1.5C7.34735 1.5 6.85785 1.96942 6.42596 2.38361C6.18011 2.61939 5.92596 2.86316 5.70325 2.95526C5.49866 3.03992 5.15979 3.04504 4.83203 3.04999C4.22211 3.0592 3.53082 3.06964 3.05023 3.55023C2.56964 4.03082 2.5592 4.72211 2.54999 5.33203C2.54504 5.65979 2.53992 5.99866 2.45526 6.20325C2.36316 6.4259 2.11939 6.68011 1.88361 6.92596C1.46942 7.35779 1 7.84735 1 8.5C1 9.15265 1.46942 9.64215 1.88361 10.074C2.11939 10.3199 2.36316 10.574 2.45526 10.7968C2.53992 11.0013 2.54504 11.3402 2.54999 11.668C2.5592 12.2779 2.56964 12.9692 3.05023 13.4498C3.53082 13.9304 4.22211 13.9408 4.83203 13.95C5.15979 13.955 5.49866 13.9601 5.70325 14.0447C5.9259 14.1368 6.18011 14.3806 6.42596 14.6164C6.85779 15.0306 7.34735 15.5 8 15.5C8.65265 15.5 9.14215 15.0306 9.57404 14.6164C9.81989 14.3806 10.074 14.1368 10.2968 14.0447C10.5013 13.9601 10.8402 13.955 11.168 13.95C11.7779 13.9408 12.4692 13.9304 12.9498 13.4498C13.4304 12.9692 13.4408 12.2779 13.45 11.668C13.455 11.3402 13.4601 11.0013 13.5447 10.7968C13.6368 10.5741 13.8806 10.3199 14.1164 10.074C14.5306 9.64221 15 9.15265 15 8.5C15 7.84735 14.5306 7.35785 14.1164 6.92596ZM11.0952 7.36169L7.42853 10.8617C7.33552 10.9505 7.21189 11 7.08331 11C6.95474 11 6.83111 10.9505 6.7381 10.8617L4.90479 9.11169C4.85726 9.06637 4.81913 9.01212 4.79257 8.95205C4.76602 8.89199 4.75155 8.82728 4.75001 8.76162C4.74847 8.69596 4.75988 8.63064 4.78358 8.56939C4.80729 8.50815 4.84283 8.45217 4.88817 8.40466C4.93352 8.35715 4.98778 8.31904 5.04786 8.2925C5.10793 8.26597 5.17265 8.25153 5.23831 8.25001C5.30397 8.24849 5.36928 8.25992 5.43052 8.28365C5.49176 8.30738 5.54772 8.34294 5.59521 8.38831L7.08331 9.80878L10.4048 6.63831C10.4523 6.59294 10.5082 6.55738 10.5695 6.53365C10.6307 6.50992 10.696 6.49849 10.7617 6.50001C10.8274 6.50153 10.8921 6.51597 10.9521 6.5425C11.0122 6.56904 11.0665 6.60715 11.1118 6.65466C11.1572 6.70217 11.1927 6.75815 11.2164 6.81939C11.2401 6.88064 11.2515 6.94596 11.25 7.01162C11.2484 7.07728 11.234 7.14199 11.2074 7.20205C11.1809 7.26212 11.1427 7.31637 11.0952 7.36169Z" fill="#666666"/>
</svg>
