<svg width="42" height="30" viewBox="0 0 42 30" fill="none" xmlns="http://www.w3.org/2000/svg">
<rect x="0.5" y="0.5" width="41" height="29" rx="3.5" fill="white" stroke="#DADADA"/>
<path fill-rule="evenodd" clip-rule="evenodd" d="M13.2798 19.8228H10.7354L8.82739 12.2405C8.73683 11.8917 8.54454 11.5833 8.26169 11.438C7.55582 11.0728 6.77799 10.7821 5.92944 10.6355V10.3436H10.0282C10.5939 10.3436 11.0182 10.7821 11.0889 11.2914L12.0789 16.7608L14.622 10.3436H17.0957L13.2798 19.8228ZM18.51 19.8228H16.107L18.0857 10.3436H20.4887L18.51 19.8228ZM23.5975 12.9696C23.6682 12.4591 24.0925 12.1672 24.5875 12.1672C25.3653 12.0939 26.2126 12.2405 26.9197 12.6044L27.344 10.5635C26.6369 10.2716 25.859 10.125 25.1532 10.125C22.8209 10.125 21.1238 11.438 21.1238 13.2603C21.1238 14.6466 22.3259 15.3745 23.1745 15.813C24.0925 16.2503 24.446 16.5422 24.3753 16.9794C24.3753 17.6353 23.6682 17.9272 22.9623 17.9272C22.1138 17.9272 21.2652 17.7086 20.4886 17.3434L20.0644 19.3856C20.9129 19.7495 21.8309 19.8961 22.6795 19.8961C25.2946 19.9681 26.9197 18.6564 26.9197 16.6875C26.9197 14.2081 23.5975 14.0628 23.5975 12.9696ZM35.3295 19.8228L33.4215 10.3436H31.3721C30.9478 10.3436 30.5235 10.6355 30.3821 11.0728L26.849 19.8228H29.3227L29.8164 18.4378H32.8558L33.1386 19.8228H35.3295ZM31.7256 12.8964L32.4315 16.4689H30.4528L31.7256 12.8964Z" fill="#172B85"/>
</svg>
