<svg width="12" height="12" viewBox="0 0 12 12" fill="none" xmlns="http://www.w3.org/2000/svg">
<g clip-path="url(#clip0_1816_7459)">
<path d="M11.625 6.75C11.625 6.75 9.75 3.375 6 3.375C2.25 3.375 0.375 6.75 0.375 6.75" stroke="white" stroke-width="1.25" stroke-miterlimit="10" stroke-linecap="round" stroke-linejoin="round"/>
<path d="M6 8.625C7.34619 8.625 8.4375 7.53369 8.4375 6.1875C8.4375 4.84131 7.34619 3.75 6 3.75C4.65381 3.75 3.5625 4.84131 3.5625 6.1875C3.5625 7.53369 4.65381 8.625 6 8.625Z" stroke="white" stroke-width="1.25" stroke-miterlimit="10" stroke-linecap="round" stroke-linejoin="round"/>
<path d="M6.78735 6.7125C6.8729 6.56433 6.91795 6.39625 6.91798 6.22516C6.91801 6.05406 6.87301 5.88597 6.78751 5.73777C6.70201 5.58957 6.57902 5.46648 6.43088 5.38086C6.28275 5.29524 6.1147 5.25011 5.9436 5.25" stroke="white" stroke-width="1.25" stroke-miterlimit="10" stroke-linecap="round" stroke-linejoin="round"/>
</g>
<defs>
<clipPath id="clip0_1816_7459">
<rect width="12" height="12" fill="white"/>
</clipPath>
</defs>
</svg>
