<svg width="180" height="40" viewBox="0 0 180 40" fill="none" xmlns="http://www.w3.org/2000/svg">
<path d="M0 20C0 8.93333 8.99669 0 20.1418 0C31.287 0 40.2837 8.93333 40.2837 20C40.2837 31.0667 31.287 40 20.1418 40C8.99669 40 0 31.0667 0 20Z" fill="#FFDD00"/>
<path d="M29.5413 9.33301L28.5342 13.133H32.3611L33.3682 9.33301H29.5413Z" fill="#EF5191"/>
<path d="M19.0003 13.1333H15.1734L14.0991 16.9333H17.9932L19.0003 13.1333Z" fill="#EF5191"/>
<path d="M27.5267 16.9333L28.5338 13.1333H24.7068L23.6997 16.9333H27.5267Z" fill="#EF5191"/>
<path d="M14.1658 16.9336H10.3389L9.26465 20.7336H13.0916L14.1658 16.9336Z" fill="#EF5191"/>
<path d="M22.7591 16.9333L23.7662 13.1333H19.9392L18.9321 16.9333H22.7591Z" fill="#EF5191"/>
<path d="M22.5574 17.8667H18.7305L17.6562 21.6667H21.5503L22.5574 17.8667Z" fill="#EF5191"/>
<path d="M27.5267 16.9333L28.5338 13.1333H24.7068L23.6997 16.9333H27.5267Z" fill="#EF5191"/>
<path d="M11.6816 26.3337H15.5086L16.5828 22.5337H12.7559L11.6816 26.3337Z" fill="#EF5191"/>
<path d="M26.1163 22.5337H22.2893L21.2822 26.3337H25.1092L26.1163 22.5337Z" fill="#EF5191"/>
<path d="M6.84766 30.133H10.6746L11.6817 26.333H7.92189L6.84766 30.133Z" fill="#EF5191"/>
<path d="M24.0352 30.133H27.8621L28.8692 26.333H25.0422L24.0352 30.133Z" fill="#EF5191"/>
<path d="M25.7804 9.13382C25.7804 10.8672 24.3704 12.2672 22.6248 12.2672C20.8792 12.2672 19.4692 10.8672 19.4692 9.13382C19.4692 7.40049 20.8792 6.00049 22.6248 6.00049C24.3704 6.00049 25.7804 7.40049 25.7804 9.13382Z" fill="#EF5191"/>
<path d="M95.4053 9.8667H100.441L101.314 14.6L102.455 20.5334L105.61 16.2L108.095 12.8C108.43 12.3334 108.766 11.8667 109.169 11.3334C109.572 10.8 109.907 10.3334 110.176 9.8667H115.279L99.7022 30.7334L96.4795 15L95.4053 9.8667Z" fill="white"/>
<path d="M142.335 28.7996C142.267 29.1329 142.066 29.4663 141.73 29.6663C141.395 29.9329 141.059 29.9996 140.723 29.9996C140.388 29.9996 140.052 29.8663 139.918 29.6663C139.716 29.3996 139.716 29.1329 139.783 28.7996C139.85 28.4663 140.052 28.1996 140.388 27.9329C140.723 27.6663 141.059 27.5996 141.395 27.5996C141.73 27.5996 141.999 27.7329 142.2 27.9329C142.335 28.1996 142.402 28.4663 142.335 28.7996Z" fill="white"/>
<path d="M154.891 27.4667C154.152 28.2667 153.346 28.8667 152.406 29.3333C151.466 29.8 150.526 30 149.586 30C148.848 30 148.244 29.8667 147.639 29.6C147.102 29.3333 146.632 29 146.23 28.5333C145.894 28.0667 145.625 27.5333 145.558 26.9333C145.424 26.3333 145.491 25.6667 145.692 25C145.894 24.3333 146.162 23.6667 146.632 23.0667C147.102 22.4667 147.572 21.9333 148.177 21.4667C148.781 21 149.452 20.6667 150.124 20.4C150.862 20.1333 151.534 20 152.272 20C153.212 20 154.018 20.2667 154.689 20.7333C155.36 21.2 155.83 21.8 156.166 22.6L154.085 23.6667C153.883 23.2 153.615 22.8 153.212 22.5333C152.809 22.2667 152.339 22.0667 151.735 22.0667C151.332 22.0667 150.862 22.1333 150.459 22.2667C150.056 22.4 149.654 22.6 149.318 22.9333C148.982 23.2 148.647 23.5333 148.378 23.8667C148.109 24.2 147.908 24.6 147.841 25C147.707 25.4 147.707 25.8 147.774 26.1333C147.841 26.4667 147.975 26.8 148.177 27.0667C148.378 27.3333 148.647 27.5333 148.982 27.6667C149.318 27.8 149.721 27.8667 150.124 27.8667C150.661 27.8667 151.265 27.7333 151.802 27.4C152.339 27.1333 152.876 26.7333 153.279 26.2667L154.891 27.4667Z" fill="white"/>
<path d="M167.042 25.0664C166.841 25.7998 166.505 26.4664 166.102 27.0664C165.632 27.6664 165.095 28.2664 164.491 28.7331C163.887 29.1998 163.215 29.5998 162.477 29.8664C161.738 30.1331 161 30.2664 160.261 30.2664C159.523 30.2664 158.851 30.1331 158.247 29.8664C157.643 29.5998 157.173 29.1998 156.837 28.7331C156.502 28.2664 156.233 27.7331 156.099 27.0664C155.964 26.4664 156.032 25.7331 156.233 25.0664C156.434 24.3331 156.77 23.6664 157.173 23.0664C157.643 22.4664 158.18 21.8664 158.784 21.3998C159.389 20.9331 160.06 20.5998 160.798 20.3331C161.537 20.0664 162.276 19.9331 163.014 19.9331C163.753 19.9331 164.424 20.0664 165.028 20.3331C165.632 20.5998 166.102 20.9331 166.438 21.3998C166.774 21.8664 167.042 22.3998 167.177 23.0664C167.311 23.6664 167.244 24.3331 167.042 25.0664ZM164.827 25.0664C164.961 24.6664 164.961 24.2664 164.894 23.8664C164.827 23.5331 164.693 23.1998 164.491 22.9331C164.29 22.6664 164.021 22.4664 163.685 22.2664C163.35 22.1331 162.947 22.0664 162.477 22.0664C162.007 22.0664 161.604 22.1331 161.134 22.2664C160.731 22.3998 160.328 22.5998 159.926 22.9331C159.59 23.1998 159.254 23.5331 158.986 23.8664C158.717 24.1998 158.516 24.5998 158.449 25.0664C158.314 25.4664 158.314 25.8664 158.381 26.2664C158.449 26.5998 158.583 26.9331 158.784 27.1998C158.986 27.4664 159.254 27.6664 159.657 27.8664C159.993 27.9998 160.396 28.1331 160.866 28.1331C161.336 28.1331 161.738 28.0664 162.208 27.8664C162.611 27.7331 163.014 27.4664 163.417 27.1998C163.753 26.9331 164.088 26.5998 164.357 26.2664C164.558 25.8664 164.693 25.4664 164.827 25.0664Z" fill="white"/>
<path d="M177.247 30.0667H175.032L176.442 24.8001L172.883 27.4667L170.735 24.8001L169.325 30.0667H167.109L169.862 19.7334L173.689 24.4001C174.159 24.0667 174.696 23.6667 175.233 23.2667C175.77 22.8667 176.307 22.4667 176.845 22.0667C177.382 21.6667 177.919 21.2667 178.456 20.8667C178.993 20.4667 179.53 20.1334 180 19.7334L177.247 30.0667Z" fill="white"/>
<path d="M132.398 13.3331L132.599 12.5998C132.935 11.2664 131.928 9.93311 130.518 9.93311C129.578 9.93311 128.705 10.5998 128.437 11.5331L128.235 12.2664C127.9 13.5998 128.907 14.9331 130.317 14.9331C131.257 14.8664 132.129 14.2664 132.398 13.3331Z" fill="white"/>
<path d="M120.38 13.2667L120.581 12.6C120.984 11.2 119.91 9.8667 118.5 9.8667C117.493 9.8667 116.687 10.5334 116.419 11.4667L116.217 12.1334C115.815 13.5334 116.889 14.8667 118.299 14.8667C119.306 14.8667 120.179 14.2 120.38 13.2667Z" fill="white"/>
<path d="M127.296 16.5332L125.618 22.4665C125.484 22.9332 125.282 23.3999 124.946 23.8665C124.611 24.2665 124.275 24.6665 123.805 24.9999C123.402 25.3332 122.932 25.5999 122.395 25.7332C121.858 25.9332 121.388 25.9999 120.851 25.9999C120.314 25.9999 119.844 25.9332 119.441 25.7332C119.038 25.5332 118.702 25.2665 118.434 24.9999C118.165 24.6665 118.031 24.3332 117.964 23.8665C117.897 23.4665 117.897 22.9999 118.031 22.4665L119.71 16.5332H115.211L113.533 22.3999C113.264 23.4665 113.197 24.4665 113.331 25.3999C113.533 26.3332 113.868 27.1332 114.473 27.8665C115.01 28.5999 115.748 29.1332 116.621 29.5332C117.494 29.9332 118.501 30.1332 119.642 30.1332C120.784 30.1332 121.858 29.9332 122.999 29.5332C124.141 29.1332 125.148 28.5999 126.088 27.8665C127.028 27.1332 127.833 26.3332 128.505 25.3999C129.176 24.4665 129.646 23.4665 129.982 22.3999L131.66 16.5332H127.296Z" fill="white"/>
<path d="M134.815 16.7334L131.189 30.2001H135.621L139.313 16.7334H134.815Z" fill="white"/>
<path d="M139.247 13.4664L139.449 12.5998C139.784 11.2664 138.777 9.93311 137.367 9.93311C136.36 9.93311 135.554 10.5998 135.286 11.5331L135.084 12.3998C134.749 13.7331 135.756 15.0664 137.166 15.0664C138.173 14.9998 139.046 14.3998 139.247 13.4664Z" fill="white"/>
<path d="M45.3188 9.8667H50.3543L51.2271 14.6L52.3685 20.5334L55.5241 16.2L58.0082 12.8C58.3439 12.3334 58.6796 11.8667 59.0824 11.3334C59.4853 10.8 59.821 10.3334 60.0895 9.8667H65.1921L49.6158 30.7334L46.3931 15L45.3188 9.8667Z" fill="white"/>
<path d="M82.312 13.3331L82.5135 12.5998C82.8491 11.2664 81.8421 9.93311 80.4321 9.93311C79.4922 9.93311 78.6194 10.5998 78.3508 11.5331L78.1494 12.2664C77.8137 13.5998 78.8208 14.9331 80.2307 14.9331C81.2378 14.8664 82.1106 14.2664 82.312 13.3331Z" fill="white"/>
<path d="M70.361 13.2667L70.5624 12.6C70.9652 11.2 69.891 9.8667 68.4811 9.8667C67.474 9.8667 66.6683 10.5334 66.3998 11.4667L66.1983 12.1334C65.7955 13.5334 66.8697 14.8667 68.2797 14.8667C69.2868 14.8667 70.0924 14.2 70.361 13.2667Z" fill="white"/>
<path d="M77.2104 16.5332L75.5319 22.4665C75.3976 22.9332 75.1962 23.3999 74.8605 23.8665C74.5248 24.2665 74.1891 24.6665 73.7191 24.9999C73.3163 25.3332 72.7792 25.5999 72.3092 25.7332C71.7721 25.9332 71.3021 25.9999 70.765 25.9999C70.2279 25.9999 69.7579 25.9332 69.355 25.7332C68.9522 25.5332 68.6165 25.2665 68.348 24.9999C68.0794 24.6665 67.9451 24.3332 67.878 23.8665C67.8108 23.4665 67.8108 22.9999 67.9451 22.4665L69.6236 16.5332H65.1253L63.4468 22.3999C63.1782 23.4665 63.1111 24.4665 63.2454 25.3999C63.4468 26.3332 63.7825 27.1332 64.3867 27.8665C64.9238 28.5999 65.6624 29.1332 66.5352 29.5332C67.408 29.9332 68.4151 30.1332 69.5565 30.1332C70.6978 30.1332 71.7721 29.9332 72.9134 29.5332C74.0548 29.1332 75.0619 28.5999 76.0019 27.8665C76.9418 27.1332 77.7475 26.3332 78.4189 25.3999C79.0903 24.4665 79.5603 23.4665 79.896 22.3999L81.5744 16.5332H77.2104Z" fill="white"/>
<path d="M84.7974 16.7334L81.1719 30.2001H85.6031L89.2286 16.7334H84.7974Z" fill="white"/>
<path d="M90.0337 13.4664L90.2351 12.5998C90.5708 11.2664 89.5637 9.93311 88.1538 9.93311C87.1467 9.93311 86.341 10.5998 86.0725 11.5331L85.8711 12.3998C85.5354 13.7331 86.5425 15.0664 87.9524 15.0664C88.8923 14.9998 89.7652 14.3998 90.0337 13.4664Z" fill="white"/>
</svg>
