<svg width="18" height="18" viewBox="0 0 18 18" fill="none" xmlns="http://www.w3.org/2000/svg">
<circle opacity="0.7" cx="9" cy="9" r="8" fill="#8F9BB3"/>
<path fill-rule="evenodd" clip-rule="evenodd" d="M9.00007 8.47335L11.9267 5.38342C12.0647 5.23775 12.2884 5.23775 12.4264 5.38342C12.5644 5.5291 12.5644 5.76528 12.4264 5.91095L9.49913 9.00013L12.4264 12.0893C12.5644 12.235 12.5644 12.4712 12.4264 12.6168C12.2884 12.7625 12.0647 12.7625 11.9267 12.6168L9.00007 9.52692L6.07348 12.6168C5.93548 12.7625 5.71173 12.7625 5.57372 12.6168C5.43571 12.4712 5.43571 12.235 5.57372 12.0893L8.50101 9.00013L5.57372 5.91095C5.43571 5.76528 5.43571 5.5291 5.57372 5.38342C5.71173 5.23775 5.93548 5.23775 6.07348 5.38342L9.00007 8.47335Z" fill="white"/>
</svg>
