<svg width="96" height="96" viewBox="0 0 96 96" fill="none" xmlns="http://www.w3.org/2000/svg">
<path d="M0 8C0 3.58172 3.58172 0 8 0H88C92.4183 0 96 3.58172 96 8V88C96 92.4183 92.4183 96 88 96H8C3.58172 96 0 92.4183 0 88V8Z" fill="#F05A94"/>
<path d="M16 48C16 30.2933 30.2933 16 48 16C65.7067 16 80 30.2933 80 48C80 65.7067 65.7067 80 48 80C30.2933 80 16 65.7067 16 48Z" fill="#FFDD00"/>
<path d="M62.9118 30.9131L61.3584 37.1267H67.2613L68.8147 30.9131H62.9118Z" fill="#EF5191"/>
<path d="M45.8245 37.125H40.0024L38.3682 43.3386H44.2924L45.8245 37.125Z" fill="#EF5191"/>
<path d="M59.6761 43.3386L61.3589 37.125H54.9641L53.2812 43.3386H59.6761Z" fill="#EF5191"/>
<path d="M38.3694 43.3389H32.5473L30.9131 48.9311H36.7351L38.3694 43.3389Z" fill="#EF5191"/>
<path d="M52.2205 43.3386L53.9034 37.125H47.5085L45.8257 43.3386H52.2205Z" fill="#EF5191"/>
<path d="M52.0396 44.5781H45.7324L43.9619 50.7917H50.3798L52.0396 44.5781Z" fill="#EF5191"/>
<path d="M59.6761 43.3386L61.3589 37.125H54.9641L53.2812 43.3386H59.6761Z" fill="#EF5191"/>
<path d="M34.6416 58.2517H40.4636L42.0979 52.0381H36.2759L34.6416 58.2517Z" fill="#EF5191"/>
<path d="M57.6323 52.0381H51.2375L49.5547 58.2517H55.9495L57.6323 52.0381Z" fill="#EF5191"/>
<path d="M26.5625 64.4655H32.9573L34.6402 58.252H28.3575L26.5625 64.4655Z" fill="#EF5191"/>
<path d="M53.9038 64.4655H60.2986L61.9815 58.252H55.5867L53.9038 64.4655Z" fill="#EF5191"/>
<path d="M57.0111 30.5989C57.0111 33.5206 54.7901 35.8805 52.0402 35.8805C49.2904 35.8805 47.0693 33.5206 47.0693 30.5989C47.0693 27.6772 49.2904 25.3174 52.0402 25.3174C54.7901 25.3174 57.0111 27.6772 57.0111 30.5989Z" fill="#EF5191"/>
</svg>
